G04 #@! TF.GenerationSoftware,KiCad,Pcbnew,5.1.4-e60b266~84~ubuntu18.04.1*
G04 #@! TF.CreationDate,2019-11-08T12:52:39-03:00*
G04 #@! TF.ProjectId,DriverConSensor,44726976-6572-4436-9f6e-53656e736f72,Ribelotta-Perren*
G04 #@! TF.SameCoordinates,Original*
G04 #@! TF.FileFunction,Legend,Top*
G04 #@! TF.FilePolarity,Positive*
%FSLAX46Y46*%
G04 Gerber Fmt 4.6, Leading zero omitted, Abs format (unit mm)*
G04 Created by KiCad (PCBNEW 5.1.4-e60b266~84~ubuntu18.04.1) date 2019-11-08 12:52:39*
%MOMM*%
%LPD*%
G04 APERTURE LIST*
%ADD10C,0.300000*%
%ADD11C,0.250000*%
%ADD12C,0.120000*%
%ADD13C,0.150000*%
%ADD14C,0.110000*%
%ADD15C,0.100000*%
G04 APERTURE END LIST*
D10*
X139232142Y-127078571D02*
X139232142Y-128150000D01*
X139160714Y-128364285D01*
X139017857Y-128507142D01*
X138803571Y-128578571D01*
X138660714Y-128578571D01*
X139946428Y-128578571D02*
X139946428Y-127078571D01*
X140517857Y-127078571D01*
X140660714Y-127150000D01*
X140732142Y-127221428D01*
X140803571Y-127364285D01*
X140803571Y-127578571D01*
X140732142Y-127721428D01*
X140660714Y-127792857D01*
X140517857Y-127864285D01*
X139946428Y-127864285D01*
X141446428Y-128578571D02*
X141446428Y-127078571D01*
X141946428Y-128150000D01*
X142446428Y-127078571D01*
X142446428Y-128578571D01*
D11*
X161528571Y-128464285D02*
X161528571Y-126664285D01*
X162385714Y-127264285D02*
X162385714Y-128464285D01*
X162385714Y-127435714D02*
X162471428Y-127350000D01*
X162642857Y-127264285D01*
X162900000Y-127264285D01*
X163071428Y-127350000D01*
X163157142Y-127521428D01*
X163157142Y-128464285D01*
X164785714Y-128464285D02*
X164785714Y-126664285D01*
X164785714Y-128378571D02*
X164614285Y-128464285D01*
X164271428Y-128464285D01*
X164100000Y-128378571D01*
X164014285Y-128292857D01*
X163928571Y-128121428D01*
X163928571Y-127607142D01*
X164014285Y-127435714D01*
X164100000Y-127350000D01*
X164271428Y-127264285D01*
X164614285Y-127264285D01*
X164785714Y-127350000D01*
X166414285Y-127264285D02*
X166414285Y-128464285D01*
X165642857Y-127264285D02*
X165642857Y-128207142D01*
X165728571Y-128378571D01*
X165900000Y-128464285D01*
X166157142Y-128464285D01*
X166328571Y-128378571D01*
X166414285Y-128292857D01*
X167185714Y-128378571D02*
X167357142Y-128464285D01*
X167700000Y-128464285D01*
X167871428Y-128378571D01*
X167957142Y-128207142D01*
X167957142Y-128121428D01*
X167871428Y-127950000D01*
X167700000Y-127864285D01*
X167442857Y-127864285D01*
X167271428Y-127778571D01*
X167185714Y-127607142D01*
X167185714Y-127521428D01*
X167271428Y-127350000D01*
X167442857Y-127264285D01*
X167700000Y-127264285D01*
X167871428Y-127350000D01*
X168471428Y-127264285D02*
X169157142Y-127264285D01*
X168728571Y-126664285D02*
X168728571Y-128207142D01*
X168814285Y-128378571D01*
X168985714Y-128464285D01*
X169157142Y-128464285D01*
X169757142Y-128464285D02*
X169757142Y-127264285D01*
X169757142Y-127607142D02*
X169842857Y-127435714D01*
X169928571Y-127350000D01*
X170100000Y-127264285D01*
X170271428Y-127264285D01*
X170871428Y-128464285D02*
X170871428Y-127264285D01*
X170871428Y-126664285D02*
X170785714Y-126750000D01*
X170871428Y-126835714D01*
X170957142Y-126750000D01*
X170871428Y-126664285D01*
X170871428Y-126835714D01*
X172500000Y-128464285D02*
X172500000Y-127521428D01*
X172414285Y-127350000D01*
X172242857Y-127264285D01*
X171900000Y-127264285D01*
X171728571Y-127350000D01*
X172500000Y-128378571D02*
X172328571Y-128464285D01*
X171900000Y-128464285D01*
X171728571Y-128378571D01*
X171642857Y-128207142D01*
X171642857Y-128035714D01*
X171728571Y-127864285D01*
X171900000Y-127778571D01*
X172328571Y-127778571D01*
X172500000Y-127692857D01*
X174642857Y-127950000D02*
X175500000Y-127950000D01*
X174471428Y-128464285D02*
X175071428Y-126664285D01*
X175671428Y-128464285D01*
X176271428Y-128464285D02*
X176271428Y-127264285D01*
X176271428Y-127607142D02*
X176357142Y-127435714D01*
X176442857Y-127350000D01*
X176614285Y-127264285D01*
X176785714Y-127264285D01*
X178157142Y-127264285D02*
X178157142Y-128721428D01*
X178071428Y-128892857D01*
X177985714Y-128978571D01*
X177814285Y-129064285D01*
X177557142Y-129064285D01*
X177385714Y-128978571D01*
X178157142Y-128378571D02*
X177985714Y-128464285D01*
X177642857Y-128464285D01*
X177471428Y-128378571D01*
X177385714Y-128292857D01*
X177300000Y-128121428D01*
X177300000Y-127607142D01*
X177385714Y-127435714D01*
X177471428Y-127350000D01*
X177642857Y-127264285D01*
X177985714Y-127264285D01*
X178157142Y-127350000D01*
X179700000Y-128378571D02*
X179528571Y-128464285D01*
X179185714Y-128464285D01*
X179014285Y-128378571D01*
X178928571Y-128207142D01*
X178928571Y-127521428D01*
X179014285Y-127350000D01*
X179185714Y-127264285D01*
X179528571Y-127264285D01*
X179700000Y-127350000D01*
X179785714Y-127521428D01*
X179785714Y-127692857D01*
X178928571Y-127864285D01*
X180557142Y-127264285D02*
X180557142Y-128464285D01*
X180557142Y-127435714D02*
X180642857Y-127350000D01*
X180814285Y-127264285D01*
X181071428Y-127264285D01*
X181242857Y-127350000D01*
X181328571Y-127521428D01*
X181328571Y-128464285D01*
X181928571Y-127264285D02*
X182614285Y-127264285D01*
X182185714Y-126664285D02*
X182185714Y-128207142D01*
X182271428Y-128378571D01*
X182442857Y-128464285D01*
X182614285Y-128464285D01*
X183214285Y-128464285D02*
X183214285Y-127264285D01*
X183214285Y-126664285D02*
X183128571Y-126750000D01*
X183214285Y-126835714D01*
X183300000Y-126750000D01*
X183214285Y-126664285D01*
X183214285Y-126835714D01*
X184071428Y-127264285D02*
X184071428Y-128464285D01*
X184071428Y-127435714D02*
X184157142Y-127350000D01*
X184328571Y-127264285D01*
X184585714Y-127264285D01*
X184757142Y-127350000D01*
X184842857Y-127521428D01*
X184842857Y-128464285D01*
X186471428Y-128464285D02*
X186471428Y-127521428D01*
X186385714Y-127350000D01*
X186214285Y-127264285D01*
X185871428Y-127264285D01*
X185700000Y-127350000D01*
X186471428Y-128378571D02*
X186300000Y-128464285D01*
X185871428Y-128464285D01*
X185700000Y-128378571D01*
X185614285Y-128207142D01*
X185614285Y-128035714D01*
X185700000Y-127864285D01*
X185871428Y-127778571D01*
X186300000Y-127778571D01*
X186471428Y-127692857D01*
D12*
X137050000Y-100425000D02*
X137050000Y-103575000D01*
X137050000Y-94575000D02*
X137050000Y-97725000D01*
X142160000Y-98075000D02*
X142160000Y-100075000D01*
X136450000Y-98725000D02*
X136450000Y-99425000D01*
X137650000Y-98725000D02*
X136450000Y-98725000D01*
X137650000Y-99425000D02*
X137650000Y-98725000D01*
X136450000Y-99425000D02*
X137650000Y-99425000D01*
X136850000Y-98725000D02*
X137250000Y-99425000D01*
X119200000Y-90725000D02*
X119200000Y-107425000D01*
X141900000Y-90725000D02*
X119200000Y-90725000D01*
X141900000Y-107425000D02*
X141900000Y-90725000D01*
X119200000Y-107425000D02*
X141900000Y-107425000D01*
X131700000Y-77050000D02*
X131700000Y-80200000D01*
X131700000Y-71200000D02*
X131700000Y-74350000D01*
X136810000Y-74700000D02*
X136810000Y-76700000D01*
X131100000Y-75350000D02*
X131100000Y-76050000D01*
X132300000Y-75350000D02*
X131100000Y-75350000D01*
X132300000Y-76050000D02*
X132300000Y-75350000D01*
X131100000Y-76050000D02*
X132300000Y-76050000D01*
X131500000Y-75350000D02*
X131900000Y-76050000D01*
X113850000Y-67350000D02*
X113850000Y-84050000D01*
X136550000Y-67350000D02*
X113850000Y-67350000D01*
X136550000Y-84050000D02*
X136550000Y-67350000D01*
X113850000Y-84050000D02*
X136550000Y-84050000D01*
X124125000Y-115125000D02*
X124125000Y-111975000D01*
X124125000Y-120975000D02*
X124125000Y-117825000D01*
X119015000Y-117475000D02*
X119015000Y-115475000D01*
X124725000Y-116825000D02*
X124725000Y-116125000D01*
X123525000Y-116825000D02*
X124725000Y-116825000D01*
X123525000Y-116125000D02*
X123525000Y-116825000D01*
X124725000Y-116125000D02*
X123525000Y-116125000D01*
X124325000Y-116825000D02*
X123925000Y-116125000D01*
X141975000Y-124825000D02*
X141975000Y-108125000D01*
X119275000Y-124825000D02*
X141975000Y-124825000D01*
X119275000Y-108125000D02*
X119275000Y-124825000D01*
X141975000Y-108125000D02*
X119275000Y-108125000D01*
X121995000Y-88630000D02*
X121995000Y-88945000D01*
X121995000Y-86205000D02*
X121995000Y-86520000D01*
X116755000Y-88630000D02*
X116755000Y-88945000D01*
X116755000Y-86205000D02*
X116755000Y-86520000D01*
X116755000Y-88945000D02*
X121995000Y-88945000D01*
X116755000Y-86205000D02*
X121995000Y-86205000D01*
X171455000Y-87880000D02*
X171770000Y-87880000D01*
X169030000Y-87880000D02*
X169345000Y-87880000D01*
X171455000Y-93120000D02*
X171770000Y-93120000D01*
X169030000Y-93120000D02*
X169345000Y-93120000D01*
X171770000Y-93120000D02*
X171770000Y-87880000D01*
X169030000Y-93120000D02*
X169030000Y-87880000D01*
X174820000Y-100255000D02*
X174820000Y-100570000D01*
X174820000Y-97830000D02*
X174820000Y-98145000D01*
X169580000Y-100255000D02*
X169580000Y-100570000D01*
X169580000Y-97830000D02*
X169580000Y-98145000D01*
X169580000Y-100570000D02*
X174820000Y-100570000D01*
X169580000Y-97830000D02*
X174820000Y-97830000D01*
X162855000Y-112650000D02*
X159255000Y-112650000D01*
X162893478Y-112661522D02*
G75*
G02X161055000Y-117100000I-1838478J-1838478D01*
G01*
X159216522Y-112661522D02*
G75*
G03X161055000Y-117100000I1838478J-1838478D01*
G01*
X145935000Y-86930000D02*
X145935000Y-89870000D01*
X145935000Y-89870000D02*
X151375000Y-89870000D01*
X151375000Y-89870000D02*
X151375000Y-86930000D01*
X151375000Y-86930000D02*
X145935000Y-86930000D01*
X144915000Y-88400000D02*
X145935000Y-88400000D01*
X152395000Y-88400000D02*
X151375000Y-88400000D01*
X146835000Y-86930000D02*
X146835000Y-89870000D01*
X146955000Y-86930000D02*
X146955000Y-89870000D01*
X146715000Y-86930000D02*
X146715000Y-89870000D01*
X128140000Y-126055000D02*
X128140000Y-125430000D01*
X128140000Y-128270000D02*
X128140000Y-127645000D01*
X132180000Y-126055000D02*
X132180000Y-125430000D01*
X132180000Y-128270000D02*
X132180000Y-127645000D01*
X132180000Y-125430000D02*
X128140000Y-125430000D01*
X132180000Y-128270000D02*
X128140000Y-128270000D01*
X187990000Y-100610000D02*
X183950000Y-100610000D01*
X187990000Y-97770000D02*
X183950000Y-97770000D01*
X187990000Y-100610000D02*
X187990000Y-99985000D01*
X187990000Y-98395000D02*
X187990000Y-97770000D01*
X183950000Y-100610000D02*
X183950000Y-99985000D01*
X183950000Y-98395000D02*
X183950000Y-97770000D01*
X152280000Y-99880000D02*
X152280000Y-99255000D01*
X152280000Y-102095000D02*
X152280000Y-101470000D01*
X156320000Y-99880000D02*
X156320000Y-99255000D01*
X156320000Y-102095000D02*
X156320000Y-101470000D01*
X156320000Y-99255000D02*
X152280000Y-99255000D01*
X156320000Y-102095000D02*
X152280000Y-102095000D01*
X137192000Y-82009000D02*
X137192000Y-81384000D01*
X137192000Y-84224000D02*
X137192000Y-83599000D01*
X141232000Y-82009000D02*
X141232000Y-81384000D01*
X141232000Y-84224000D02*
X141232000Y-83599000D01*
X141232000Y-81384000D02*
X137192000Y-81384000D01*
X141232000Y-84224000D02*
X137192000Y-84224000D01*
X157995000Y-111525000D02*
G75*
G03X157995000Y-111525000I-3270000J0D01*
G01*
X164370000Y-122050000D02*
G75*
G03X164370000Y-122050000I-3270000J0D01*
G01*
X160680000Y-68470000D02*
X160680000Y-64430000D01*
X163520000Y-68470000D02*
X163520000Y-64430000D01*
X160680000Y-68470000D02*
X161305000Y-68470000D01*
X162895000Y-68470000D02*
X163520000Y-68470000D01*
X160680000Y-64430000D02*
X161305000Y-64430000D01*
X162895000Y-64430000D02*
X163520000Y-64430000D01*
X181765000Y-118605000D02*
X181765000Y-120845000D01*
X181765000Y-120845000D02*
X186005000Y-120845000D01*
X186005000Y-120845000D02*
X186005000Y-118605000D01*
X186005000Y-118605000D02*
X181765000Y-118605000D01*
X181115000Y-119725000D02*
X181765000Y-119725000D01*
X186655000Y-119725000D02*
X186005000Y-119725000D01*
X182485000Y-118605000D02*
X182485000Y-120845000D01*
X182605000Y-118605000D02*
X182605000Y-120845000D01*
X182365000Y-118605000D02*
X182365000Y-120845000D01*
X169290000Y-118480000D02*
X169290000Y-120720000D01*
X169530000Y-118480000D02*
X169530000Y-120720000D01*
X169410000Y-118480000D02*
X169410000Y-120720000D01*
X173580000Y-119600000D02*
X172930000Y-119600000D01*
X168040000Y-119600000D02*
X168690000Y-119600000D01*
X172930000Y-118480000D02*
X168690000Y-118480000D01*
X172930000Y-120720000D02*
X172930000Y-118480000D01*
X168690000Y-120720000D02*
X172930000Y-120720000D01*
X168690000Y-118480000D02*
X168690000Y-120720000D01*
X181765000Y-113905000D02*
X181765000Y-116145000D01*
X181765000Y-116145000D02*
X186005000Y-116145000D01*
X186005000Y-116145000D02*
X186005000Y-113905000D01*
X186005000Y-113905000D02*
X181765000Y-113905000D01*
X181115000Y-115025000D02*
X181765000Y-115025000D01*
X186655000Y-115025000D02*
X186005000Y-115025000D01*
X182485000Y-113905000D02*
X182485000Y-116145000D01*
X182605000Y-113905000D02*
X182605000Y-116145000D01*
X182365000Y-113905000D02*
X182365000Y-116145000D01*
X169290000Y-113780000D02*
X169290000Y-116020000D01*
X169530000Y-113780000D02*
X169530000Y-116020000D01*
X169410000Y-113780000D02*
X169410000Y-116020000D01*
X173580000Y-114900000D02*
X172930000Y-114900000D01*
X168040000Y-114900000D02*
X168690000Y-114900000D01*
X172930000Y-113780000D02*
X168690000Y-113780000D01*
X172930000Y-116020000D02*
X172930000Y-113780000D01*
X168690000Y-116020000D02*
X172930000Y-116020000D01*
X168690000Y-113780000D02*
X168690000Y-116020000D01*
X133760000Y-90370000D02*
X133760000Y-87430000D01*
X133520000Y-90370000D02*
X133520000Y-87430000D01*
X133640000Y-90370000D02*
X133640000Y-87430000D01*
X128080000Y-88900000D02*
X129100000Y-88900000D01*
X135560000Y-88900000D02*
X134540000Y-88900000D01*
X129100000Y-90370000D02*
X134540000Y-90370000D01*
X129100000Y-87430000D02*
X129100000Y-90370000D01*
X134540000Y-87430000D02*
X129100000Y-87430000D01*
X134540000Y-90370000D02*
X134540000Y-87430000D01*
X145930000Y-90990000D02*
X145930000Y-93930000D01*
X145930000Y-93930000D02*
X151370000Y-93930000D01*
X151370000Y-93930000D02*
X151370000Y-90990000D01*
X151370000Y-90990000D02*
X145930000Y-90990000D01*
X144910000Y-92460000D02*
X145930000Y-92460000D01*
X152390000Y-92460000D02*
X151370000Y-92460000D01*
X146830000Y-90990000D02*
X146830000Y-93930000D01*
X146950000Y-90990000D02*
X146950000Y-93930000D01*
X146710000Y-90990000D02*
X146710000Y-93930000D01*
X142655000Y-112810000D02*
X145595000Y-112810000D01*
X142655000Y-112570000D02*
X145595000Y-112570000D01*
X142655000Y-112690000D02*
X145595000Y-112690000D01*
X144125000Y-107130000D02*
X144125000Y-108150000D01*
X144125000Y-114610000D02*
X144125000Y-113590000D01*
X142655000Y-108150000D02*
X142655000Y-113590000D01*
X145595000Y-108150000D02*
X142655000Y-108150000D01*
X145595000Y-113590000D02*
X145595000Y-108150000D01*
X142655000Y-113590000D02*
X145595000Y-113590000D01*
X146847795Y-79185816D02*
G75*
G02X147575000Y-79710000I-1122795J-2324184D01*
G01*
X144626193Y-79153600D02*
G75*
G03X143125000Y-81510000I1098807J-2356400D01*
G01*
X144626193Y-83866400D02*
G75*
G02X143125000Y-81510000I1098807J2356400D01*
G01*
X146847795Y-83834184D02*
G75*
G03X147575000Y-83310000I-1122795J2324184D01*
G01*
X147575000Y-83310000D02*
X147575000Y-79710000D01*
X146225000Y-105640000D02*
X146225000Y-109240000D01*
X146952205Y-105115816D02*
G75*
G03X146225000Y-105640000I1122795J-2324184D01*
G01*
X149173807Y-105083600D02*
G75*
G02X150675000Y-107440000I-1098807J-2356400D01*
G01*
X149173807Y-109796400D02*
G75*
G03X150675000Y-107440000I-1098807J2356400D01*
G01*
X146952205Y-109764184D02*
G75*
G02X146225000Y-109240000I1122795J2324184D01*
G01*
X181965000Y-110880000D02*
X181965000Y-112720000D01*
X181965000Y-112720000D02*
X185805000Y-112720000D01*
X185805000Y-112720000D02*
X185805000Y-110880000D01*
X185805000Y-110880000D02*
X181965000Y-110880000D01*
X181015000Y-111800000D02*
X181965000Y-111800000D01*
X186755000Y-111800000D02*
X185805000Y-111800000D01*
X181095000Y-107000000D02*
X182045000Y-107000000D01*
X186835000Y-107000000D02*
X185885000Y-107000000D01*
X182045000Y-107920000D02*
X185885000Y-107920000D01*
X182045000Y-106080000D02*
X182045000Y-107920000D01*
X185885000Y-106080000D02*
X182045000Y-106080000D01*
X185885000Y-107920000D02*
X185885000Y-106080000D01*
X185885000Y-104345000D02*
X185885000Y-102505000D01*
X185885000Y-102505000D02*
X182045000Y-102505000D01*
X182045000Y-102505000D02*
X182045000Y-104345000D01*
X182045000Y-104345000D02*
X185885000Y-104345000D01*
X186835000Y-103425000D02*
X185885000Y-103425000D01*
X181095000Y-103425000D02*
X182045000Y-103425000D01*
X168790000Y-110780000D02*
X168790000Y-112620000D01*
X168790000Y-112620000D02*
X172630000Y-112620000D01*
X172630000Y-112620000D02*
X172630000Y-110780000D01*
X172630000Y-110780000D02*
X168790000Y-110780000D01*
X167840000Y-111700000D02*
X168790000Y-111700000D01*
X173580000Y-111700000D02*
X172630000Y-111700000D01*
X168020000Y-103300000D02*
X168970000Y-103300000D01*
X173760000Y-103300000D02*
X172810000Y-103300000D01*
X168970000Y-104220000D02*
X172810000Y-104220000D01*
X168970000Y-102380000D02*
X168970000Y-104220000D01*
X172810000Y-102380000D02*
X168970000Y-102380000D01*
X172810000Y-104220000D02*
X172810000Y-102380000D01*
X168020000Y-107000000D02*
X168970000Y-107000000D01*
X173760000Y-107000000D02*
X172810000Y-107000000D01*
X168970000Y-107920000D02*
X172810000Y-107920000D01*
X168970000Y-106080000D02*
X168970000Y-107920000D01*
X172810000Y-106080000D02*
X168970000Y-106080000D01*
X172810000Y-107920000D02*
X172810000Y-106080000D01*
X153070000Y-81550000D02*
X154020000Y-81550000D01*
X158810000Y-81550000D02*
X157860000Y-81550000D01*
X154020000Y-82470000D02*
X157860000Y-82470000D01*
X154020000Y-80630000D02*
X154020000Y-82470000D01*
X157860000Y-80630000D02*
X154020000Y-80630000D01*
X157860000Y-82470000D02*
X157860000Y-80630000D01*
X154420000Y-106000000D02*
X155370000Y-106000000D01*
X160160000Y-106000000D02*
X159210000Y-106000000D01*
X155370000Y-106920000D02*
X159210000Y-106920000D01*
X155370000Y-105080000D02*
X155370000Y-106920000D01*
X159210000Y-105080000D02*
X155370000Y-105080000D01*
X159210000Y-106920000D02*
X159210000Y-105080000D01*
X156310000Y-98620000D02*
X156310000Y-96780000D01*
X156310000Y-96780000D02*
X152470000Y-96780000D01*
X152470000Y-96780000D02*
X152470000Y-98620000D01*
X152470000Y-98620000D02*
X156310000Y-98620000D01*
X157260000Y-97700000D02*
X156310000Y-97700000D01*
X151520000Y-97700000D02*
X152470000Y-97700000D01*
X130760000Y-87195000D02*
X130760000Y-85355000D01*
X130760000Y-85355000D02*
X126920000Y-85355000D01*
X126920000Y-85355000D02*
X126920000Y-87195000D01*
X126920000Y-87195000D02*
X130760000Y-87195000D01*
X131710000Y-86275000D02*
X130760000Y-86275000D01*
X125970000Y-86275000D02*
X126920000Y-86275000D01*
X157380000Y-70710000D02*
X159220000Y-70710000D01*
X159220000Y-70710000D02*
X159220000Y-66870000D01*
X159220000Y-66870000D02*
X157380000Y-66870000D01*
X157380000Y-66870000D02*
X157380000Y-70710000D01*
X158300000Y-71660000D02*
X158300000Y-70710000D01*
X158300000Y-65920000D02*
X158300000Y-66870000D01*
X186770000Y-92390000D02*
X186770000Y-91440000D01*
X186770000Y-86650000D02*
X186770000Y-87600000D01*
X187690000Y-91440000D02*
X187690000Y-87600000D01*
X185850000Y-91440000D02*
X187690000Y-91440000D01*
X185850000Y-87600000D02*
X185850000Y-91440000D01*
X187690000Y-87600000D02*
X185850000Y-87600000D01*
X168710000Y-80160000D02*
X168710000Y-82000000D01*
X168710000Y-82000000D02*
X172550000Y-82000000D01*
X172550000Y-82000000D02*
X172550000Y-80160000D01*
X172550000Y-80160000D02*
X168710000Y-80160000D01*
X167760000Y-81080000D02*
X168710000Y-81080000D01*
X173500000Y-81080000D02*
X172550000Y-81080000D01*
X173500000Y-77380000D02*
X172550000Y-77380000D01*
X167760000Y-77380000D02*
X168710000Y-77380000D01*
X172550000Y-76460000D02*
X168710000Y-76460000D01*
X172550000Y-78300000D02*
X172550000Y-76460000D01*
X168710000Y-78300000D02*
X172550000Y-78300000D01*
X168710000Y-76460000D02*
X168710000Y-78300000D01*
X168810000Y-73160000D02*
X168810000Y-75000000D01*
X168810000Y-75000000D02*
X172650000Y-75000000D01*
X172650000Y-75000000D02*
X172650000Y-73160000D01*
X172650000Y-73160000D02*
X168810000Y-73160000D01*
X167860000Y-74080000D02*
X168810000Y-74080000D01*
X173600000Y-74080000D02*
X172650000Y-74080000D01*
X173570000Y-70480000D02*
X172620000Y-70480000D01*
X167830000Y-70480000D02*
X168780000Y-70480000D01*
X172620000Y-69560000D02*
X168780000Y-69560000D01*
X172620000Y-71400000D02*
X172620000Y-69560000D01*
X168780000Y-71400000D02*
X172620000Y-71400000D01*
X168780000Y-69560000D02*
X168780000Y-71400000D01*
X168820000Y-65960000D02*
X168820000Y-67800000D01*
X168820000Y-67800000D02*
X172660000Y-67800000D01*
X172660000Y-67800000D02*
X172660000Y-65960000D01*
X172660000Y-65960000D02*
X168820000Y-65960000D01*
X167870000Y-66880000D02*
X168820000Y-66880000D01*
X173610000Y-66880000D02*
X172660000Y-66880000D01*
X185520000Y-83590000D02*
X178699000Y-83590000D01*
X185520000Y-66669000D02*
X178699000Y-66669000D01*
X185520000Y-83590000D02*
X185520000Y-82520000D01*
X185520000Y-80440000D02*
X185520000Y-79929000D01*
X185520000Y-77950000D02*
X185520000Y-77389000D01*
X185520000Y-75410000D02*
X185520000Y-74849000D01*
X185520000Y-72870000D02*
X185520000Y-72310000D01*
X185520000Y-70330000D02*
X185520000Y-69770000D01*
X185520000Y-67790000D02*
X185520000Y-66669000D01*
X178699000Y-67790000D02*
X178699000Y-66669000D01*
X178699000Y-70330000D02*
X178699000Y-69770000D01*
X178699000Y-72870000D02*
X178699000Y-72310000D01*
X178699000Y-75410000D02*
X178699000Y-74849000D01*
X178699000Y-77950000D02*
X178699000Y-77389000D01*
X178699000Y-83590000D02*
X178699000Y-82470000D01*
X178699000Y-80490000D02*
X178699000Y-79929000D01*
X185760000Y-83830000D02*
X184377000Y-83830000D01*
X185760000Y-83830000D02*
X185760000Y-82520000D01*
X183920000Y-82115000D02*
X183920000Y-80845000D01*
X183920000Y-80845000D02*
X180300000Y-80845000D01*
X180300000Y-80845000D02*
X180300000Y-82115000D01*
X180300000Y-82115000D02*
X183920000Y-82115000D01*
X183920000Y-81995000D02*
X182713333Y-81995000D01*
X183920000Y-81875000D02*
X182713333Y-81875000D01*
X183920000Y-81755000D02*
X182713333Y-81755000D01*
X183920000Y-81635000D02*
X182713333Y-81635000D01*
X183920000Y-81515000D02*
X182713333Y-81515000D01*
X183920000Y-81395000D02*
X182713333Y-81395000D01*
X183920000Y-81275000D02*
X182713333Y-81275000D01*
X183920000Y-81155000D02*
X182713333Y-81155000D01*
X183920000Y-81035000D02*
X182713333Y-81035000D01*
X183920000Y-80915000D02*
X182713333Y-80915000D01*
X182713333Y-82115000D02*
X182713333Y-80845000D01*
X183920000Y-79575000D02*
X183920000Y-78305000D01*
X183920000Y-78305000D02*
X180300000Y-78305000D01*
X180300000Y-78305000D02*
X180300000Y-79575000D01*
X180300000Y-79575000D02*
X183920000Y-79575000D01*
X183920000Y-79455000D02*
X182713333Y-79455000D01*
X183920000Y-79335000D02*
X182713333Y-79335000D01*
X183920000Y-79215000D02*
X182713333Y-79215000D01*
X183920000Y-79095000D02*
X182713333Y-79095000D01*
X183920000Y-78975000D02*
X182713333Y-78975000D01*
X183920000Y-78855000D02*
X182713333Y-78855000D01*
X183920000Y-78735000D02*
X182713333Y-78735000D01*
X183920000Y-78615000D02*
X182713333Y-78615000D01*
X183920000Y-78495000D02*
X182713333Y-78495000D01*
X183920000Y-78375000D02*
X182713333Y-78375000D01*
X182713333Y-79575000D02*
X182713333Y-78305000D01*
X183920000Y-77035000D02*
X183920000Y-75765000D01*
X183920000Y-75765000D02*
X180300000Y-75765000D01*
X180300000Y-75765000D02*
X180300000Y-77035000D01*
X180300000Y-77035000D02*
X183920000Y-77035000D01*
X183920000Y-76915000D02*
X182713333Y-76915000D01*
X183920000Y-76795000D02*
X182713333Y-76795000D01*
X183920000Y-76675000D02*
X182713333Y-76675000D01*
X183920000Y-76555000D02*
X182713333Y-76555000D01*
X183920000Y-76435000D02*
X182713333Y-76435000D01*
X183920000Y-76315000D02*
X182713333Y-76315000D01*
X183920000Y-76195000D02*
X182713333Y-76195000D01*
X183920000Y-76075000D02*
X182713333Y-76075000D01*
X183920000Y-75955000D02*
X182713333Y-75955000D01*
X183920000Y-75835000D02*
X182713333Y-75835000D01*
X182713333Y-77035000D02*
X182713333Y-75765000D01*
X183920000Y-74495000D02*
X183920000Y-73225000D01*
X183920000Y-73225000D02*
X180300000Y-73225000D01*
X180300000Y-73225000D02*
X180300000Y-74495000D01*
X180300000Y-74495000D02*
X183920000Y-74495000D01*
X183920000Y-74375000D02*
X182713333Y-74375000D01*
X183920000Y-74255000D02*
X182713333Y-74255000D01*
X183920000Y-74135000D02*
X182713333Y-74135000D01*
X183920000Y-74015000D02*
X182713333Y-74015000D01*
X183920000Y-73895000D02*
X182713333Y-73895000D01*
X183920000Y-73775000D02*
X182713333Y-73775000D01*
X183920000Y-73655000D02*
X182713333Y-73655000D01*
X183920000Y-73535000D02*
X182713333Y-73535000D01*
X183920000Y-73415000D02*
X182713333Y-73415000D01*
X183920000Y-73295000D02*
X182713333Y-73295000D01*
X182713333Y-74495000D02*
X182713333Y-73225000D01*
X183920000Y-71955000D02*
X183920000Y-70685000D01*
X183920000Y-70685000D02*
X180300000Y-70685000D01*
X180300000Y-70685000D02*
X180300000Y-71955000D01*
X180300000Y-71955000D02*
X183920000Y-71955000D01*
X183920000Y-71835000D02*
X182713333Y-71835000D01*
X183920000Y-71715000D02*
X182713333Y-71715000D01*
X183920000Y-71595000D02*
X182713333Y-71595000D01*
X183920000Y-71475000D02*
X182713333Y-71475000D01*
X183920000Y-71355000D02*
X182713333Y-71355000D01*
X183920000Y-71235000D02*
X182713333Y-71235000D01*
X183920000Y-71115000D02*
X182713333Y-71115000D01*
X183920000Y-70995000D02*
X182713333Y-70995000D01*
X183920000Y-70875000D02*
X182713333Y-70875000D01*
X183920000Y-70755000D02*
X182713333Y-70755000D01*
X182713333Y-71955000D02*
X182713333Y-70685000D01*
X183920000Y-69415000D02*
X183920000Y-68145000D01*
X183920000Y-68145000D02*
X180300000Y-68145000D01*
X180300000Y-68145000D02*
X180300000Y-69415000D01*
X180300000Y-69415000D02*
X183920000Y-69415000D01*
X183920000Y-69295000D02*
X182713333Y-69295000D01*
X183920000Y-69175000D02*
X182713333Y-69175000D01*
X183920000Y-69055000D02*
X182713333Y-69055000D01*
X183920000Y-68935000D02*
X182713333Y-68935000D01*
X183920000Y-68815000D02*
X182713333Y-68815000D01*
X183920000Y-68695000D02*
X182713333Y-68695000D01*
X183920000Y-68575000D02*
X182713333Y-68575000D01*
X183920000Y-68455000D02*
X182713333Y-68455000D01*
X183920000Y-68335000D02*
X182713333Y-68335000D01*
X183920000Y-68215000D02*
X182713333Y-68215000D01*
X182713333Y-69415000D02*
X182713333Y-68145000D01*
X184930000Y-91910000D02*
G75*
G02X184930000Y-89910000I0J1000000D01*
G01*
X184930000Y-89910000D02*
X184930000Y-88260000D01*
X184930000Y-88260000D02*
X174650000Y-88260000D01*
X174650000Y-88260000D02*
X174650000Y-93560000D01*
X174650000Y-93560000D02*
X184930000Y-93560000D01*
X184930000Y-93560000D02*
X184930000Y-91910000D01*
D13*
X117086904Y-92527380D02*
X117086904Y-91527380D01*
X117658333Y-92527380D02*
X117229761Y-91955952D01*
X117658333Y-91527380D02*
X117086904Y-92098809D01*
X117991666Y-91527380D02*
X118610714Y-91527380D01*
X118277380Y-91908333D01*
X118420238Y-91908333D01*
X118515476Y-91955952D01*
X118563095Y-92003571D01*
X118610714Y-92098809D01*
X118610714Y-92336904D01*
X118563095Y-92432142D01*
X118515476Y-92479761D01*
X118420238Y-92527380D01*
X118134523Y-92527380D01*
X118039285Y-92479761D01*
X117991666Y-92432142D01*
X137886904Y-68927380D02*
X137886904Y-67927380D01*
X138458333Y-68927380D02*
X138029761Y-68355952D01*
X138458333Y-67927380D02*
X137886904Y-68498809D01*
X138839285Y-68022619D02*
X138886904Y-67975000D01*
X138982142Y-67927380D01*
X139220238Y-67927380D01*
X139315476Y-67975000D01*
X139363095Y-68022619D01*
X139410714Y-68117857D01*
X139410714Y-68213095D01*
X139363095Y-68355952D01*
X138791666Y-68927380D01*
X139410714Y-68927380D01*
X117386904Y-109952380D02*
X117386904Y-108952380D01*
X117958333Y-109952380D02*
X117529761Y-109380952D01*
X117958333Y-108952380D02*
X117386904Y-109523809D01*
X118910714Y-109952380D02*
X118339285Y-109952380D01*
X118625000Y-109952380D02*
X118625000Y-108952380D01*
X118529761Y-109095238D01*
X118434523Y-109190476D01*
X118339285Y-109238095D01*
X119208333Y-85432142D02*
X119160714Y-85479761D01*
X119017857Y-85527380D01*
X118922619Y-85527380D01*
X118779761Y-85479761D01*
X118684523Y-85384523D01*
X118636904Y-85289285D01*
X118589285Y-85098809D01*
X118589285Y-84955952D01*
X118636904Y-84765476D01*
X118684523Y-84670238D01*
X118779761Y-84575000D01*
X118922619Y-84527380D01*
X119017857Y-84527380D01*
X119160714Y-84575000D01*
X119208333Y-84622619D01*
X119684523Y-85527380D02*
X119875000Y-85527380D01*
X119970238Y-85479761D01*
X120017857Y-85432142D01*
X120113095Y-85289285D01*
X120160714Y-85098809D01*
X120160714Y-84717857D01*
X120113095Y-84622619D01*
X120065476Y-84575000D01*
X119970238Y-84527380D01*
X119779761Y-84527380D01*
X119684523Y-84575000D01*
X119636904Y-84622619D01*
X119589285Y-84717857D01*
X119589285Y-84955952D01*
X119636904Y-85051190D01*
X119684523Y-85098809D01*
X119779761Y-85146428D01*
X119970238Y-85146428D01*
X120065476Y-85098809D01*
X120113095Y-85051190D01*
X120160714Y-84955952D01*
X167733333Y-90857142D02*
X167685714Y-90904761D01*
X167542857Y-90952380D01*
X167447619Y-90952380D01*
X167304761Y-90904761D01*
X167209523Y-90809523D01*
X167161904Y-90714285D01*
X167114285Y-90523809D01*
X167114285Y-90380952D01*
X167161904Y-90190476D01*
X167209523Y-90095238D01*
X167304761Y-90000000D01*
X167447619Y-89952380D01*
X167542857Y-89952380D01*
X167685714Y-90000000D01*
X167733333Y-90047619D01*
X168590476Y-89952380D02*
X168400000Y-89952380D01*
X168304761Y-90000000D01*
X168257142Y-90047619D01*
X168161904Y-90190476D01*
X168114285Y-90380952D01*
X168114285Y-90761904D01*
X168161904Y-90857142D01*
X168209523Y-90904761D01*
X168304761Y-90952380D01*
X168495238Y-90952380D01*
X168590476Y-90904761D01*
X168638095Y-90857142D01*
X168685714Y-90761904D01*
X168685714Y-90523809D01*
X168638095Y-90428571D01*
X168590476Y-90380952D01*
X168495238Y-90333333D01*
X168304761Y-90333333D01*
X168209523Y-90380952D01*
X168161904Y-90428571D01*
X168114285Y-90523809D01*
X172033333Y-97057142D02*
X171985714Y-97104761D01*
X171842857Y-97152380D01*
X171747619Y-97152380D01*
X171604761Y-97104761D01*
X171509523Y-97009523D01*
X171461904Y-96914285D01*
X171414285Y-96723809D01*
X171414285Y-96580952D01*
X171461904Y-96390476D01*
X171509523Y-96295238D01*
X171604761Y-96200000D01*
X171747619Y-96152380D01*
X171842857Y-96152380D01*
X171985714Y-96200000D01*
X172033333Y-96247619D01*
X172366666Y-96152380D02*
X172985714Y-96152380D01*
X172652380Y-96533333D01*
X172795238Y-96533333D01*
X172890476Y-96580952D01*
X172938095Y-96628571D01*
X172985714Y-96723809D01*
X172985714Y-96961904D01*
X172938095Y-97057142D01*
X172890476Y-97104761D01*
X172795238Y-97152380D01*
X172509523Y-97152380D01*
X172414285Y-97104761D01*
X172366666Y-97057142D01*
X160138095Y-111077380D02*
X160138095Y-111886904D01*
X160185714Y-111982142D01*
X160233333Y-112029761D01*
X160328571Y-112077380D01*
X160519047Y-112077380D01*
X160614285Y-112029761D01*
X160661904Y-111982142D01*
X160709523Y-111886904D01*
X160709523Y-111077380D01*
X161138095Y-111172619D02*
X161185714Y-111125000D01*
X161280952Y-111077380D01*
X161519047Y-111077380D01*
X161614285Y-111125000D01*
X161661904Y-111172619D01*
X161709523Y-111267857D01*
X161709523Y-111363095D01*
X161661904Y-111505952D01*
X161090476Y-112077380D01*
X161709523Y-112077380D01*
X158888095Y-75025000D02*
X158792857Y-74977380D01*
X158650000Y-74977380D01*
X158507142Y-75025000D01*
X158411904Y-75120238D01*
X158364285Y-75215476D01*
X158316666Y-75405952D01*
X158316666Y-75548809D01*
X158364285Y-75739285D01*
X158411904Y-75834523D01*
X158507142Y-75929761D01*
X158650000Y-75977380D01*
X158745238Y-75977380D01*
X158888095Y-75929761D01*
X158935714Y-75882142D01*
X158935714Y-75548809D01*
X158745238Y-75548809D01*
X159364285Y-75977380D02*
X159364285Y-74977380D01*
X159935714Y-75977380D01*
X159935714Y-74977380D01*
X160411904Y-75977380D02*
X160411904Y-74977380D01*
X160650000Y-74977380D01*
X160792857Y-75025000D01*
X160888095Y-75120238D01*
X160935714Y-75215476D01*
X160983333Y-75405952D01*
X160983333Y-75548809D01*
X160935714Y-75739285D01*
X160888095Y-75834523D01*
X160792857Y-75929761D01*
X160650000Y-75977380D01*
X160411904Y-75977380D01*
X161163095Y-88925000D02*
X161067857Y-88877380D01*
X160925000Y-88877380D01*
X160782142Y-88925000D01*
X160686904Y-89020238D01*
X160639285Y-89115476D01*
X160591666Y-89305952D01*
X160591666Y-89448809D01*
X160639285Y-89639285D01*
X160686904Y-89734523D01*
X160782142Y-89829761D01*
X160925000Y-89877380D01*
X161020238Y-89877380D01*
X161163095Y-89829761D01*
X161210714Y-89782142D01*
X161210714Y-89448809D01*
X161020238Y-89448809D01*
X161639285Y-89877380D02*
X161639285Y-88877380D01*
X162210714Y-89877380D01*
X162210714Y-88877380D01*
X162686904Y-89877380D02*
X162686904Y-88877380D01*
X162925000Y-88877380D01*
X163067857Y-88925000D01*
X163163095Y-89020238D01*
X163210714Y-89115476D01*
X163258333Y-89305952D01*
X163258333Y-89448809D01*
X163210714Y-89639285D01*
X163163095Y-89734523D01*
X163067857Y-89829761D01*
X162925000Y-89877380D01*
X162686904Y-89877380D01*
X147916904Y-86382380D02*
X147916904Y-85382380D01*
X148155000Y-85382380D01*
X148297857Y-85430000D01*
X148393095Y-85525238D01*
X148440714Y-85620476D01*
X148488333Y-85810952D01*
X148488333Y-85953809D01*
X148440714Y-86144285D01*
X148393095Y-86239523D01*
X148297857Y-86334761D01*
X148155000Y-86382380D01*
X147916904Y-86382380D01*
X148821666Y-85382380D02*
X149488333Y-85382380D01*
X149059761Y-86382380D01*
X143313095Y-86752380D02*
X143313095Y-85752380D01*
X143884523Y-86752380D02*
X143455952Y-86180952D01*
X143884523Y-85752380D02*
X143313095Y-86323809D01*
X126513333Y-128212142D02*
X126465714Y-128259761D01*
X126322857Y-128307380D01*
X126227619Y-128307380D01*
X126084761Y-128259761D01*
X125989523Y-128164523D01*
X125941904Y-128069285D01*
X125894285Y-127878809D01*
X125894285Y-127735952D01*
X125941904Y-127545476D01*
X125989523Y-127450238D01*
X126084761Y-127355000D01*
X126227619Y-127307380D01*
X126322857Y-127307380D01*
X126465714Y-127355000D01*
X126513333Y-127402619D01*
X127465714Y-128307380D02*
X126894285Y-128307380D01*
X127180000Y-128307380D02*
X127180000Y-127307380D01*
X127084761Y-127450238D01*
X126989523Y-127545476D01*
X126894285Y-127593095D01*
X185908333Y-96982142D02*
X185860714Y-97029761D01*
X185717857Y-97077380D01*
X185622619Y-97077380D01*
X185479761Y-97029761D01*
X185384523Y-96934523D01*
X185336904Y-96839285D01*
X185289285Y-96648809D01*
X185289285Y-96505952D01*
X185336904Y-96315476D01*
X185384523Y-96220238D01*
X185479761Y-96125000D01*
X185622619Y-96077380D01*
X185717857Y-96077380D01*
X185860714Y-96125000D01*
X185908333Y-96172619D01*
X186289285Y-96172619D02*
X186336904Y-96125000D01*
X186432142Y-96077380D01*
X186670238Y-96077380D01*
X186765476Y-96125000D01*
X186813095Y-96172619D01*
X186860714Y-96267857D01*
X186860714Y-96363095D01*
X186813095Y-96505952D01*
X186241666Y-97077380D01*
X186860714Y-97077380D01*
X154133333Y-103582142D02*
X154085714Y-103629761D01*
X153942857Y-103677380D01*
X153847619Y-103677380D01*
X153704761Y-103629761D01*
X153609523Y-103534523D01*
X153561904Y-103439285D01*
X153514285Y-103248809D01*
X153514285Y-103105952D01*
X153561904Y-102915476D01*
X153609523Y-102820238D01*
X153704761Y-102725000D01*
X153847619Y-102677380D01*
X153942857Y-102677380D01*
X154085714Y-102725000D01*
X154133333Y-102772619D01*
X154990476Y-103010714D02*
X154990476Y-103677380D01*
X154752380Y-102629761D02*
X154514285Y-103344047D01*
X155133333Y-103344047D01*
X139045333Y-85711142D02*
X138997714Y-85758761D01*
X138854857Y-85806380D01*
X138759619Y-85806380D01*
X138616761Y-85758761D01*
X138521523Y-85663523D01*
X138473904Y-85568285D01*
X138426285Y-85377809D01*
X138426285Y-85234952D01*
X138473904Y-85044476D01*
X138521523Y-84949238D01*
X138616761Y-84854000D01*
X138759619Y-84806380D01*
X138854857Y-84806380D01*
X138997714Y-84854000D01*
X139045333Y-84901619D01*
X139950095Y-84806380D02*
X139473904Y-84806380D01*
X139426285Y-85282571D01*
X139473904Y-85234952D01*
X139569142Y-85187333D01*
X139807238Y-85187333D01*
X139902476Y-85234952D01*
X139950095Y-85282571D01*
X139997714Y-85377809D01*
X139997714Y-85615904D01*
X139950095Y-85711142D01*
X139902476Y-85758761D01*
X139807238Y-85806380D01*
X139569142Y-85806380D01*
X139473904Y-85758761D01*
X139426285Y-85711142D01*
X151158333Y-115982142D02*
X151110714Y-116029761D01*
X150967857Y-116077380D01*
X150872619Y-116077380D01*
X150729761Y-116029761D01*
X150634523Y-115934523D01*
X150586904Y-115839285D01*
X150539285Y-115648809D01*
X150539285Y-115505952D01*
X150586904Y-115315476D01*
X150634523Y-115220238D01*
X150729761Y-115125000D01*
X150872619Y-115077380D01*
X150967857Y-115077380D01*
X151110714Y-115125000D01*
X151158333Y-115172619D01*
X151491666Y-115077380D02*
X152158333Y-115077380D01*
X151729761Y-116077380D01*
X159133333Y-126407142D02*
X159085714Y-126454761D01*
X158942857Y-126502380D01*
X158847619Y-126502380D01*
X158704761Y-126454761D01*
X158609523Y-126359523D01*
X158561904Y-126264285D01*
X158514285Y-126073809D01*
X158514285Y-125930952D01*
X158561904Y-125740476D01*
X158609523Y-125645238D01*
X158704761Y-125550000D01*
X158847619Y-125502380D01*
X158942857Y-125502380D01*
X159085714Y-125550000D01*
X159133333Y-125597619D01*
X159704761Y-125930952D02*
X159609523Y-125883333D01*
X159561904Y-125835714D01*
X159514285Y-125740476D01*
X159514285Y-125692857D01*
X159561904Y-125597619D01*
X159609523Y-125550000D01*
X159704761Y-125502380D01*
X159895238Y-125502380D01*
X159990476Y-125550000D01*
X160038095Y-125597619D01*
X160085714Y-125692857D01*
X160085714Y-125740476D01*
X160038095Y-125835714D01*
X159990476Y-125883333D01*
X159895238Y-125930952D01*
X159704761Y-125930952D01*
X159609523Y-125978571D01*
X159561904Y-126026190D01*
X159514285Y-126121428D01*
X159514285Y-126311904D01*
X159561904Y-126407142D01*
X159609523Y-126454761D01*
X159704761Y-126502380D01*
X159895238Y-126502380D01*
X159990476Y-126454761D01*
X160038095Y-126407142D01*
X160085714Y-126311904D01*
X160085714Y-126121428D01*
X160038095Y-126026190D01*
X159990476Y-125978571D01*
X159895238Y-125930952D01*
X161632142Y-70382142D02*
X161584523Y-70429761D01*
X161441666Y-70477380D01*
X161346428Y-70477380D01*
X161203571Y-70429761D01*
X161108333Y-70334523D01*
X161060714Y-70239285D01*
X161013095Y-70048809D01*
X161013095Y-69905952D01*
X161060714Y-69715476D01*
X161108333Y-69620238D01*
X161203571Y-69525000D01*
X161346428Y-69477380D01*
X161441666Y-69477380D01*
X161584523Y-69525000D01*
X161632142Y-69572619D01*
X162584523Y-70477380D02*
X162013095Y-70477380D01*
X162298809Y-70477380D02*
X162298809Y-69477380D01*
X162203571Y-69620238D01*
X162108333Y-69715476D01*
X162013095Y-69763095D01*
X163203571Y-69477380D02*
X163298809Y-69477380D01*
X163394047Y-69525000D01*
X163441666Y-69572619D01*
X163489285Y-69667857D01*
X163536904Y-69858333D01*
X163536904Y-70096428D01*
X163489285Y-70286904D01*
X163441666Y-70382142D01*
X163394047Y-70429761D01*
X163298809Y-70477380D01*
X163203571Y-70477380D01*
X163108333Y-70429761D01*
X163060714Y-70382142D01*
X163013095Y-70286904D01*
X162965476Y-70096428D01*
X162965476Y-69858333D01*
X163013095Y-69667857D01*
X163060714Y-69572619D01*
X163108333Y-69525000D01*
X163203571Y-69477380D01*
X183486904Y-118327380D02*
X183486904Y-117327380D01*
X183725000Y-117327380D01*
X183867857Y-117375000D01*
X183963095Y-117470238D01*
X184010714Y-117565476D01*
X184058333Y-117755952D01*
X184058333Y-117898809D01*
X184010714Y-118089285D01*
X183963095Y-118184523D01*
X183867857Y-118279761D01*
X183725000Y-118327380D01*
X183486904Y-118327380D01*
X184391666Y-117327380D02*
X185010714Y-117327380D01*
X184677380Y-117708333D01*
X184820238Y-117708333D01*
X184915476Y-117755952D01*
X184963095Y-117803571D01*
X185010714Y-117898809D01*
X185010714Y-118136904D01*
X184963095Y-118232142D01*
X184915476Y-118279761D01*
X184820238Y-118327380D01*
X184534523Y-118327380D01*
X184439285Y-118279761D01*
X184391666Y-118232142D01*
X179813095Y-118377380D02*
X179813095Y-117377380D01*
X180384523Y-118377380D02*
X179955952Y-117805952D01*
X180384523Y-117377380D02*
X179813095Y-117948809D01*
X170286904Y-118152380D02*
X170286904Y-117152380D01*
X170525000Y-117152380D01*
X170667857Y-117200000D01*
X170763095Y-117295238D01*
X170810714Y-117390476D01*
X170858333Y-117580952D01*
X170858333Y-117723809D01*
X170810714Y-117914285D01*
X170763095Y-118009523D01*
X170667857Y-118104761D01*
X170525000Y-118152380D01*
X170286904Y-118152380D01*
X171715476Y-117485714D02*
X171715476Y-118152380D01*
X171477380Y-117104761D02*
X171239285Y-117819047D01*
X171858333Y-117819047D01*
X166738095Y-118252380D02*
X166738095Y-117252380D01*
X167309523Y-118252380D02*
X166880952Y-117680952D01*
X167309523Y-117252380D02*
X166738095Y-117823809D01*
D14*
X183484523Y-113761904D02*
X183484523Y-112961904D01*
X183675000Y-112961904D01*
X183789285Y-113000000D01*
X183865476Y-113076190D01*
X183903571Y-113152380D01*
X183941666Y-113304761D01*
X183941666Y-113419047D01*
X183903571Y-113571428D01*
X183865476Y-113647619D01*
X183789285Y-113723809D01*
X183675000Y-113761904D01*
X183484523Y-113761904D01*
X184665476Y-112961904D02*
X184284523Y-112961904D01*
X184246428Y-113342857D01*
X184284523Y-113304761D01*
X184360714Y-113266666D01*
X184551190Y-113266666D01*
X184627380Y-113304761D01*
X184665476Y-113342857D01*
X184703571Y-113419047D01*
X184703571Y-113609523D01*
X184665476Y-113685714D01*
X184627380Y-113723809D01*
X184551190Y-113761904D01*
X184360714Y-113761904D01*
X184284523Y-113723809D01*
X184246428Y-113685714D01*
D13*
X179863095Y-113902380D02*
X179863095Y-112902380D01*
X180434523Y-113902380D02*
X180005952Y-113330952D01*
X180434523Y-112902380D02*
X179863095Y-113473809D01*
D14*
X170184523Y-113561904D02*
X170184523Y-112761904D01*
X170375000Y-112761904D01*
X170489285Y-112800000D01*
X170565476Y-112876190D01*
X170603571Y-112952380D01*
X170641666Y-113104761D01*
X170641666Y-113219047D01*
X170603571Y-113371428D01*
X170565476Y-113447619D01*
X170489285Y-113523809D01*
X170375000Y-113561904D01*
X170184523Y-113561904D01*
X171327380Y-112761904D02*
X171175000Y-112761904D01*
X171098809Y-112800000D01*
X171060714Y-112838095D01*
X170984523Y-112952380D01*
X170946428Y-113104761D01*
X170946428Y-113409523D01*
X170984523Y-113485714D01*
X171022619Y-113523809D01*
X171098809Y-113561904D01*
X171251190Y-113561904D01*
X171327380Y-113523809D01*
X171365476Y-113485714D01*
X171403571Y-113409523D01*
X171403571Y-113219047D01*
X171365476Y-113142857D01*
X171327380Y-113104761D01*
X171251190Y-113066666D01*
X171098809Y-113066666D01*
X171022619Y-113104761D01*
X170984523Y-113142857D01*
X170946428Y-113219047D01*
D13*
X166688095Y-113777380D02*
X166688095Y-112777380D01*
X167259523Y-113777380D02*
X166830952Y-113205952D01*
X167259523Y-112777380D02*
X166688095Y-113348809D01*
X133886904Y-86927380D02*
X133886904Y-85927380D01*
X134125000Y-85927380D01*
X134267857Y-85975000D01*
X134363095Y-86070238D01*
X134410714Y-86165476D01*
X134458333Y-86355952D01*
X134458333Y-86498809D01*
X134410714Y-86689285D01*
X134363095Y-86784523D01*
X134267857Y-86879761D01*
X134125000Y-86927380D01*
X133886904Y-86927380D01*
X135029761Y-86355952D02*
X134934523Y-86308333D01*
X134886904Y-86260714D01*
X134839285Y-86165476D01*
X134839285Y-86117857D01*
X134886904Y-86022619D01*
X134934523Y-85975000D01*
X135029761Y-85927380D01*
X135220238Y-85927380D01*
X135315476Y-85975000D01*
X135363095Y-86022619D01*
X135410714Y-86117857D01*
X135410714Y-86165476D01*
X135363095Y-86260714D01*
X135315476Y-86308333D01*
X135220238Y-86355952D01*
X135029761Y-86355952D01*
X134934523Y-86403571D01*
X134886904Y-86451190D01*
X134839285Y-86546428D01*
X134839285Y-86736904D01*
X134886904Y-86832142D01*
X134934523Y-86879761D01*
X135029761Y-86927380D01*
X135220238Y-86927380D01*
X135315476Y-86879761D01*
X135363095Y-86832142D01*
X135410714Y-86736904D01*
X135410714Y-86546428D01*
X135363095Y-86451190D01*
X135315476Y-86403571D01*
X135220238Y-86355952D01*
X139038095Y-89202380D02*
X139038095Y-88202380D01*
X139609523Y-89202380D02*
X139180952Y-88630952D01*
X139609523Y-88202380D02*
X139038095Y-88773809D01*
X148086904Y-95202380D02*
X148086904Y-94202380D01*
X148325000Y-94202380D01*
X148467857Y-94250000D01*
X148563095Y-94345238D01*
X148610714Y-94440476D01*
X148658333Y-94630952D01*
X148658333Y-94773809D01*
X148610714Y-94964285D01*
X148563095Y-95059523D01*
X148467857Y-95154761D01*
X148325000Y-95202380D01*
X148086904Y-95202380D01*
X149134523Y-95202380D02*
X149325000Y-95202380D01*
X149420238Y-95154761D01*
X149467857Y-95107142D01*
X149563095Y-94964285D01*
X149610714Y-94773809D01*
X149610714Y-94392857D01*
X149563095Y-94297619D01*
X149515476Y-94250000D01*
X149420238Y-94202380D01*
X149229761Y-94202380D01*
X149134523Y-94250000D01*
X149086904Y-94297619D01*
X149039285Y-94392857D01*
X149039285Y-94630952D01*
X149086904Y-94726190D01*
X149134523Y-94773809D01*
X149229761Y-94821428D01*
X149420238Y-94821428D01*
X149515476Y-94773809D01*
X149563095Y-94726190D01*
X149610714Y-94630952D01*
X143313095Y-91002380D02*
X143313095Y-90002380D01*
X143884523Y-91002380D02*
X143455952Y-90430952D01*
X143884523Y-90002380D02*
X143313095Y-90573809D01*
X145960714Y-113152380D02*
X145960714Y-112152380D01*
X146198809Y-112152380D01*
X146341666Y-112200000D01*
X146436904Y-112295238D01*
X146484523Y-112390476D01*
X146532142Y-112580952D01*
X146532142Y-112723809D01*
X146484523Y-112914285D01*
X146436904Y-113009523D01*
X146341666Y-113104761D01*
X146198809Y-113152380D01*
X145960714Y-113152380D01*
X147484523Y-113152380D02*
X146913095Y-113152380D01*
X147198809Y-113152380D02*
X147198809Y-112152380D01*
X147103571Y-112295238D01*
X147008333Y-112390476D01*
X146913095Y-112438095D01*
X148103571Y-112152380D02*
X148198809Y-112152380D01*
X148294047Y-112200000D01*
X148341666Y-112247619D01*
X148389285Y-112342857D01*
X148436904Y-112533333D01*
X148436904Y-112771428D01*
X148389285Y-112961904D01*
X148341666Y-113057142D01*
X148294047Y-113104761D01*
X148198809Y-113152380D01*
X148103571Y-113152380D01*
X148008333Y-113104761D01*
X147960714Y-113057142D01*
X147913095Y-112961904D01*
X147865476Y-112771428D01*
X147865476Y-112533333D01*
X147913095Y-112342857D01*
X147960714Y-112247619D01*
X148008333Y-112200000D01*
X148103571Y-112152380D01*
X143988095Y-119202380D02*
X143988095Y-118202380D01*
X144559523Y-119202380D02*
X144130952Y-118630952D01*
X144559523Y-118202380D02*
X143988095Y-118773809D01*
X186691666Y-124652380D02*
X186691666Y-125366666D01*
X186644047Y-125509523D01*
X186548809Y-125604761D01*
X186405952Y-125652380D01*
X186310714Y-125652380D01*
X187691666Y-125652380D02*
X187120238Y-125652380D01*
X187405952Y-125652380D02*
X187405952Y-124652380D01*
X187310714Y-124795238D01*
X187215476Y-124890476D01*
X187120238Y-124938095D01*
X173741666Y-124652380D02*
X173741666Y-125366666D01*
X173694047Y-125509523D01*
X173598809Y-125604761D01*
X173455952Y-125652380D01*
X173360714Y-125652380D01*
X174170238Y-124747619D02*
X174217857Y-124700000D01*
X174313095Y-124652380D01*
X174551190Y-124652380D01*
X174646428Y-124700000D01*
X174694047Y-124747619D01*
X174741666Y-124842857D01*
X174741666Y-124938095D01*
X174694047Y-125080952D01*
X174122619Y-125652380D01*
X174741666Y-125652380D01*
X142891666Y-95002380D02*
X142891666Y-95716666D01*
X142844047Y-95859523D01*
X142748809Y-95954761D01*
X142605952Y-96002380D01*
X142510714Y-96002380D01*
X143272619Y-95002380D02*
X143891666Y-95002380D01*
X143558333Y-95383333D01*
X143701190Y-95383333D01*
X143796428Y-95430952D01*
X143844047Y-95478571D01*
X143891666Y-95573809D01*
X143891666Y-95811904D01*
X143844047Y-95907142D01*
X143796428Y-95954761D01*
X143701190Y-96002380D01*
X143415476Y-96002380D01*
X143320238Y-95954761D01*
X143272619Y-95907142D01*
X141216666Y-73802380D02*
X141216666Y-74516666D01*
X141169047Y-74659523D01*
X141073809Y-74754761D01*
X140930952Y-74802380D01*
X140835714Y-74802380D01*
X142121428Y-74135714D02*
X142121428Y-74802380D01*
X141883333Y-73754761D02*
X141645238Y-74469047D01*
X142264285Y-74469047D01*
X116041666Y-113117380D02*
X116041666Y-113831666D01*
X115994047Y-113974523D01*
X115898809Y-114069761D01*
X115755952Y-114117380D01*
X115660714Y-114117380D01*
X116994047Y-113117380D02*
X116517857Y-113117380D01*
X116470238Y-113593571D01*
X116517857Y-113545952D01*
X116613095Y-113498333D01*
X116851190Y-113498333D01*
X116946428Y-113545952D01*
X116994047Y-113593571D01*
X117041666Y-113688809D01*
X117041666Y-113926904D01*
X116994047Y-114022142D01*
X116946428Y-114069761D01*
X116851190Y-114117380D01*
X116613095Y-114117380D01*
X116517857Y-114069761D01*
X116470238Y-114022142D01*
X115841666Y-121892380D02*
X115841666Y-122606666D01*
X115794047Y-122749523D01*
X115698809Y-122844761D01*
X115555952Y-122892380D01*
X115460714Y-122892380D01*
X116746428Y-121892380D02*
X116555952Y-121892380D01*
X116460714Y-121940000D01*
X116413095Y-121987619D01*
X116317857Y-122130476D01*
X116270238Y-122320952D01*
X116270238Y-122701904D01*
X116317857Y-122797142D01*
X116365476Y-122844761D01*
X116460714Y-122892380D01*
X116651190Y-122892380D01*
X116746428Y-122844761D01*
X116794047Y-122797142D01*
X116841666Y-122701904D01*
X116841666Y-122463809D01*
X116794047Y-122368571D01*
X116746428Y-122320952D01*
X116651190Y-122273333D01*
X116460714Y-122273333D01*
X116365476Y-122320952D01*
X116317857Y-122368571D01*
X116270238Y-122463809D01*
X115941666Y-99342380D02*
X115941666Y-100056666D01*
X115894047Y-100199523D01*
X115798809Y-100294761D01*
X115655952Y-100342380D01*
X115560714Y-100342380D01*
X116322619Y-99342380D02*
X116989285Y-99342380D01*
X116560714Y-100342380D01*
X145404761Y-76847619D02*
X145309523Y-76800000D01*
X145214285Y-76704761D01*
X145071428Y-76561904D01*
X144976190Y-76514285D01*
X144880952Y-76514285D01*
X144928571Y-76752380D02*
X144833333Y-76704761D01*
X144738095Y-76609523D01*
X144690476Y-76419047D01*
X144690476Y-76085714D01*
X144738095Y-75895238D01*
X144833333Y-75800000D01*
X144928571Y-75752380D01*
X145119047Y-75752380D01*
X145214285Y-75800000D01*
X145309523Y-75895238D01*
X145357142Y-76085714D01*
X145357142Y-76419047D01*
X145309523Y-76609523D01*
X145214285Y-76704761D01*
X145119047Y-76752380D01*
X144928571Y-76752380D01*
X146309523Y-76752380D02*
X145738095Y-76752380D01*
X146023809Y-76752380D02*
X146023809Y-75752380D01*
X145928571Y-75895238D01*
X145833333Y-75990476D01*
X145738095Y-76038095D01*
X147954761Y-102922619D02*
X147859523Y-102875000D01*
X147764285Y-102779761D01*
X147621428Y-102636904D01*
X147526190Y-102589285D01*
X147430952Y-102589285D01*
X147478571Y-102827380D02*
X147383333Y-102779761D01*
X147288095Y-102684523D01*
X147240476Y-102494047D01*
X147240476Y-102160714D01*
X147288095Y-101970238D01*
X147383333Y-101875000D01*
X147478571Y-101827380D01*
X147669047Y-101827380D01*
X147764285Y-101875000D01*
X147859523Y-101970238D01*
X147907142Y-102160714D01*
X147907142Y-102494047D01*
X147859523Y-102684523D01*
X147764285Y-102779761D01*
X147669047Y-102827380D01*
X147478571Y-102827380D01*
X148288095Y-101922619D02*
X148335714Y-101875000D01*
X148430952Y-101827380D01*
X148669047Y-101827380D01*
X148764285Y-101875000D01*
X148811904Y-101922619D01*
X148859523Y-102017857D01*
X148859523Y-102113095D01*
X148811904Y-102255952D01*
X148240476Y-102827380D01*
X148859523Y-102827380D01*
X183718333Y-110332380D02*
X183385000Y-109856190D01*
X183146904Y-110332380D02*
X183146904Y-109332380D01*
X183527857Y-109332380D01*
X183623095Y-109380000D01*
X183670714Y-109427619D01*
X183718333Y-109522857D01*
X183718333Y-109665714D01*
X183670714Y-109760952D01*
X183623095Y-109808571D01*
X183527857Y-109856190D01*
X183146904Y-109856190D01*
X184670714Y-110332380D02*
X184099285Y-110332380D01*
X184385000Y-110332380D02*
X184385000Y-109332380D01*
X184289761Y-109475238D01*
X184194523Y-109570476D01*
X184099285Y-109618095D01*
X183958333Y-105777380D02*
X183625000Y-105301190D01*
X183386904Y-105777380D02*
X183386904Y-104777380D01*
X183767857Y-104777380D01*
X183863095Y-104825000D01*
X183910714Y-104872619D01*
X183958333Y-104967857D01*
X183958333Y-105110714D01*
X183910714Y-105205952D01*
X183863095Y-105253571D01*
X183767857Y-105301190D01*
X183386904Y-105301190D01*
X184339285Y-104872619D02*
X184386904Y-104825000D01*
X184482142Y-104777380D01*
X184720238Y-104777380D01*
X184815476Y-104825000D01*
X184863095Y-104872619D01*
X184910714Y-104967857D01*
X184910714Y-105063095D01*
X184863095Y-105205952D01*
X184291666Y-105777380D01*
X184910714Y-105777380D01*
X183883333Y-102252380D02*
X183550000Y-101776190D01*
X183311904Y-102252380D02*
X183311904Y-101252380D01*
X183692857Y-101252380D01*
X183788095Y-101300000D01*
X183835714Y-101347619D01*
X183883333Y-101442857D01*
X183883333Y-101585714D01*
X183835714Y-101680952D01*
X183788095Y-101728571D01*
X183692857Y-101776190D01*
X183311904Y-101776190D01*
X184216666Y-101252380D02*
X184835714Y-101252380D01*
X184502380Y-101633333D01*
X184645238Y-101633333D01*
X184740476Y-101680952D01*
X184788095Y-101728571D01*
X184835714Y-101823809D01*
X184835714Y-102061904D01*
X184788095Y-102157142D01*
X184740476Y-102204761D01*
X184645238Y-102252380D01*
X184359523Y-102252380D01*
X184264285Y-102204761D01*
X184216666Y-102157142D01*
X170733333Y-110227380D02*
X170400000Y-109751190D01*
X170161904Y-110227380D02*
X170161904Y-109227380D01*
X170542857Y-109227380D01*
X170638095Y-109275000D01*
X170685714Y-109322619D01*
X170733333Y-109417857D01*
X170733333Y-109560714D01*
X170685714Y-109655952D01*
X170638095Y-109703571D01*
X170542857Y-109751190D01*
X170161904Y-109751190D01*
X171590476Y-109560714D02*
X171590476Y-110227380D01*
X171352380Y-109179761D02*
X171114285Y-109894047D01*
X171733333Y-109894047D01*
X170858333Y-102102380D02*
X170525000Y-101626190D01*
X170286904Y-102102380D02*
X170286904Y-101102380D01*
X170667857Y-101102380D01*
X170763095Y-101150000D01*
X170810714Y-101197619D01*
X170858333Y-101292857D01*
X170858333Y-101435714D01*
X170810714Y-101530952D01*
X170763095Y-101578571D01*
X170667857Y-101626190D01*
X170286904Y-101626190D01*
X171763095Y-101102380D02*
X171286904Y-101102380D01*
X171239285Y-101578571D01*
X171286904Y-101530952D01*
X171382142Y-101483333D01*
X171620238Y-101483333D01*
X171715476Y-101530952D01*
X171763095Y-101578571D01*
X171810714Y-101673809D01*
X171810714Y-101911904D01*
X171763095Y-102007142D01*
X171715476Y-102054761D01*
X171620238Y-102102380D01*
X171382142Y-102102380D01*
X171286904Y-102054761D01*
X171239285Y-102007142D01*
X170808333Y-105852380D02*
X170475000Y-105376190D01*
X170236904Y-105852380D02*
X170236904Y-104852380D01*
X170617857Y-104852380D01*
X170713095Y-104900000D01*
X170760714Y-104947619D01*
X170808333Y-105042857D01*
X170808333Y-105185714D01*
X170760714Y-105280952D01*
X170713095Y-105328571D01*
X170617857Y-105376190D01*
X170236904Y-105376190D01*
X171665476Y-104852380D02*
X171475000Y-104852380D01*
X171379761Y-104900000D01*
X171332142Y-104947619D01*
X171236904Y-105090476D01*
X171189285Y-105280952D01*
X171189285Y-105661904D01*
X171236904Y-105757142D01*
X171284523Y-105804761D01*
X171379761Y-105852380D01*
X171570238Y-105852380D01*
X171665476Y-105804761D01*
X171713095Y-105757142D01*
X171760714Y-105661904D01*
X171760714Y-105423809D01*
X171713095Y-105328571D01*
X171665476Y-105280952D01*
X171570238Y-105233333D01*
X171379761Y-105233333D01*
X171284523Y-105280952D01*
X171236904Y-105328571D01*
X171189285Y-105423809D01*
X155773333Y-83922380D02*
X155440000Y-83446190D01*
X155201904Y-83922380D02*
X155201904Y-82922380D01*
X155582857Y-82922380D01*
X155678095Y-82970000D01*
X155725714Y-83017619D01*
X155773333Y-83112857D01*
X155773333Y-83255714D01*
X155725714Y-83350952D01*
X155678095Y-83398571D01*
X155582857Y-83446190D01*
X155201904Y-83446190D01*
X156106666Y-82922380D02*
X156773333Y-82922380D01*
X156344761Y-83922380D01*
X157123333Y-108372380D02*
X156790000Y-107896190D01*
X156551904Y-108372380D02*
X156551904Y-107372380D01*
X156932857Y-107372380D01*
X157028095Y-107420000D01*
X157075714Y-107467619D01*
X157123333Y-107562857D01*
X157123333Y-107705714D01*
X157075714Y-107800952D01*
X157028095Y-107848571D01*
X156932857Y-107896190D01*
X156551904Y-107896190D01*
X157694761Y-107800952D02*
X157599523Y-107753333D01*
X157551904Y-107705714D01*
X157504285Y-107610476D01*
X157504285Y-107562857D01*
X157551904Y-107467619D01*
X157599523Y-107420000D01*
X157694761Y-107372380D01*
X157885238Y-107372380D01*
X157980476Y-107420000D01*
X158028095Y-107467619D01*
X158075714Y-107562857D01*
X158075714Y-107610476D01*
X158028095Y-107705714D01*
X157980476Y-107753333D01*
X157885238Y-107800952D01*
X157694761Y-107800952D01*
X157599523Y-107848571D01*
X157551904Y-107896190D01*
X157504285Y-107991428D01*
X157504285Y-108181904D01*
X157551904Y-108277142D01*
X157599523Y-108324761D01*
X157694761Y-108372380D01*
X157885238Y-108372380D01*
X157980476Y-108324761D01*
X158028095Y-108277142D01*
X158075714Y-108181904D01*
X158075714Y-107991428D01*
X158028095Y-107896190D01*
X157980476Y-107848571D01*
X157885238Y-107800952D01*
X154158333Y-96352380D02*
X153825000Y-95876190D01*
X153586904Y-96352380D02*
X153586904Y-95352380D01*
X153967857Y-95352380D01*
X154063095Y-95400000D01*
X154110714Y-95447619D01*
X154158333Y-95542857D01*
X154158333Y-95685714D01*
X154110714Y-95780952D01*
X154063095Y-95828571D01*
X153967857Y-95876190D01*
X153586904Y-95876190D01*
X154634523Y-96352380D02*
X154825000Y-96352380D01*
X154920238Y-96304761D01*
X154967857Y-96257142D01*
X155063095Y-96114285D01*
X155110714Y-95923809D01*
X155110714Y-95542857D01*
X155063095Y-95447619D01*
X155015476Y-95400000D01*
X154920238Y-95352380D01*
X154729761Y-95352380D01*
X154634523Y-95400000D01*
X154586904Y-95447619D01*
X154539285Y-95542857D01*
X154539285Y-95780952D01*
X154586904Y-95876190D01*
X154634523Y-95923809D01*
X154729761Y-95971428D01*
X154920238Y-95971428D01*
X155015476Y-95923809D01*
X155063095Y-95876190D01*
X155110714Y-95780952D01*
D14*
X128310714Y-85086904D02*
X128044047Y-84705952D01*
X127853571Y-85086904D02*
X127853571Y-84286904D01*
X128158333Y-84286904D01*
X128234523Y-84325000D01*
X128272619Y-84363095D01*
X128310714Y-84439285D01*
X128310714Y-84553571D01*
X128272619Y-84629761D01*
X128234523Y-84667857D01*
X128158333Y-84705952D01*
X127853571Y-84705952D01*
X129072619Y-85086904D02*
X128615476Y-85086904D01*
X128844047Y-85086904D02*
X128844047Y-84286904D01*
X128767857Y-84401190D01*
X128691666Y-84477380D01*
X128615476Y-84515476D01*
X129567857Y-84286904D02*
X129644047Y-84286904D01*
X129720238Y-84325000D01*
X129758333Y-84363095D01*
X129796428Y-84439285D01*
X129834523Y-84591666D01*
X129834523Y-84782142D01*
X129796428Y-84934523D01*
X129758333Y-85010714D01*
X129720238Y-85048809D01*
X129644047Y-85086904D01*
X129567857Y-85086904D01*
X129491666Y-85048809D01*
X129453571Y-85010714D01*
X129415476Y-84934523D01*
X129377380Y-84782142D01*
X129377380Y-84591666D01*
X129415476Y-84439285D01*
X129453571Y-84363095D01*
X129491666Y-84325000D01*
X129567857Y-84286904D01*
D13*
X154957142Y-73177380D02*
X154623809Y-72701190D01*
X154385714Y-73177380D02*
X154385714Y-72177380D01*
X154766666Y-72177380D01*
X154861904Y-72225000D01*
X154909523Y-72272619D01*
X154957142Y-72367857D01*
X154957142Y-72510714D01*
X154909523Y-72605952D01*
X154861904Y-72653571D01*
X154766666Y-72701190D01*
X154385714Y-72701190D01*
X155909523Y-73177380D02*
X155338095Y-73177380D01*
X155623809Y-73177380D02*
X155623809Y-72177380D01*
X155528571Y-72320238D01*
X155433333Y-72415476D01*
X155338095Y-72463095D01*
X156861904Y-73177380D02*
X156290476Y-73177380D01*
X156576190Y-73177380D02*
X156576190Y-72177380D01*
X156480952Y-72320238D01*
X156385714Y-72415476D01*
X156290476Y-72463095D01*
D15*
X188100000Y-90066666D02*
X187866666Y-89733333D01*
X187700000Y-90066666D02*
X187700000Y-89366666D01*
X187966666Y-89366666D01*
X188033333Y-89400000D01*
X188066666Y-89433333D01*
X188100000Y-89500000D01*
X188100000Y-89600000D01*
X188066666Y-89666666D01*
X188033333Y-89700000D01*
X187966666Y-89733333D01*
X187700000Y-89733333D01*
X188766666Y-90066666D02*
X188366666Y-90066666D01*
X188566666Y-90066666D02*
X188566666Y-89366666D01*
X188500000Y-89466666D01*
X188433333Y-89533333D01*
X188366666Y-89566666D01*
X189033333Y-89433333D02*
X189066666Y-89400000D01*
X189133333Y-89366666D01*
X189300000Y-89366666D01*
X189366666Y-89400000D01*
X189400000Y-89433333D01*
X189433333Y-89500000D01*
X189433333Y-89566666D01*
X189400000Y-89666666D01*
X189000000Y-90066666D01*
X189433333Y-90066666D01*
D13*
X169957142Y-79927380D02*
X169623809Y-79451190D01*
X169385714Y-79927380D02*
X169385714Y-78927380D01*
X169766666Y-78927380D01*
X169861904Y-78975000D01*
X169909523Y-79022619D01*
X169957142Y-79117857D01*
X169957142Y-79260714D01*
X169909523Y-79355952D01*
X169861904Y-79403571D01*
X169766666Y-79451190D01*
X169385714Y-79451190D01*
X170909523Y-79927380D02*
X170338095Y-79927380D01*
X170623809Y-79927380D02*
X170623809Y-78927380D01*
X170528571Y-79070238D01*
X170433333Y-79165476D01*
X170338095Y-79213095D01*
X171242857Y-78927380D02*
X171861904Y-78927380D01*
X171528571Y-79308333D01*
X171671428Y-79308333D01*
X171766666Y-79355952D01*
X171814285Y-79403571D01*
X171861904Y-79498809D01*
X171861904Y-79736904D01*
X171814285Y-79832142D01*
X171766666Y-79879761D01*
X171671428Y-79927380D01*
X171385714Y-79927380D01*
X171290476Y-79879761D01*
X171242857Y-79832142D01*
X170032142Y-76177380D02*
X169698809Y-75701190D01*
X169460714Y-76177380D02*
X169460714Y-75177380D01*
X169841666Y-75177380D01*
X169936904Y-75225000D01*
X169984523Y-75272619D01*
X170032142Y-75367857D01*
X170032142Y-75510714D01*
X169984523Y-75605952D01*
X169936904Y-75653571D01*
X169841666Y-75701190D01*
X169460714Y-75701190D01*
X170984523Y-76177380D02*
X170413095Y-76177380D01*
X170698809Y-76177380D02*
X170698809Y-75177380D01*
X170603571Y-75320238D01*
X170508333Y-75415476D01*
X170413095Y-75463095D01*
X171841666Y-75510714D02*
X171841666Y-76177380D01*
X171603571Y-75129761D02*
X171365476Y-75844047D01*
X171984523Y-75844047D01*
X170032142Y-72677380D02*
X169698809Y-72201190D01*
X169460714Y-72677380D02*
X169460714Y-71677380D01*
X169841666Y-71677380D01*
X169936904Y-71725000D01*
X169984523Y-71772619D01*
X170032142Y-71867857D01*
X170032142Y-72010714D01*
X169984523Y-72105952D01*
X169936904Y-72153571D01*
X169841666Y-72201190D01*
X169460714Y-72201190D01*
X170984523Y-72677380D02*
X170413095Y-72677380D01*
X170698809Y-72677380D02*
X170698809Y-71677380D01*
X170603571Y-71820238D01*
X170508333Y-71915476D01*
X170413095Y-71963095D01*
X171889285Y-71677380D02*
X171413095Y-71677380D01*
X171365476Y-72153571D01*
X171413095Y-72105952D01*
X171508333Y-72058333D01*
X171746428Y-72058333D01*
X171841666Y-72105952D01*
X171889285Y-72153571D01*
X171936904Y-72248809D01*
X171936904Y-72486904D01*
X171889285Y-72582142D01*
X171841666Y-72629761D01*
X171746428Y-72677380D01*
X171508333Y-72677380D01*
X171413095Y-72629761D01*
X171365476Y-72582142D01*
X170057142Y-69012380D02*
X169723809Y-68536190D01*
X169485714Y-69012380D02*
X169485714Y-68012380D01*
X169866666Y-68012380D01*
X169961904Y-68060000D01*
X170009523Y-68107619D01*
X170057142Y-68202857D01*
X170057142Y-68345714D01*
X170009523Y-68440952D01*
X169961904Y-68488571D01*
X169866666Y-68536190D01*
X169485714Y-68536190D01*
X171009523Y-69012380D02*
X170438095Y-69012380D01*
X170723809Y-69012380D02*
X170723809Y-68012380D01*
X170628571Y-68155238D01*
X170533333Y-68250476D01*
X170438095Y-68298095D01*
X171866666Y-68012380D02*
X171676190Y-68012380D01*
X171580952Y-68060000D01*
X171533333Y-68107619D01*
X171438095Y-68250476D01*
X171390476Y-68440952D01*
X171390476Y-68821904D01*
X171438095Y-68917142D01*
X171485714Y-68964761D01*
X171580952Y-69012380D01*
X171771428Y-69012380D01*
X171866666Y-68964761D01*
X171914285Y-68917142D01*
X171961904Y-68821904D01*
X171961904Y-68583809D01*
X171914285Y-68488571D01*
X171866666Y-68440952D01*
X171771428Y-68393333D01*
X171580952Y-68393333D01*
X171485714Y-68440952D01*
X171438095Y-68488571D01*
X171390476Y-68583809D01*
X170097142Y-65412380D02*
X169763809Y-64936190D01*
X169525714Y-65412380D02*
X169525714Y-64412380D01*
X169906666Y-64412380D01*
X170001904Y-64460000D01*
X170049523Y-64507619D01*
X170097142Y-64602857D01*
X170097142Y-64745714D01*
X170049523Y-64840952D01*
X170001904Y-64888571D01*
X169906666Y-64936190D01*
X169525714Y-64936190D01*
X171049523Y-65412380D02*
X170478095Y-65412380D01*
X170763809Y-65412380D02*
X170763809Y-64412380D01*
X170668571Y-64555238D01*
X170573333Y-64650476D01*
X170478095Y-64698095D01*
X171382857Y-64412380D02*
X172049523Y-64412380D01*
X171620952Y-65412380D01*
X181441666Y-65904761D02*
X181584523Y-65952380D01*
X181822619Y-65952380D01*
X181917857Y-65904761D01*
X181965476Y-65857142D01*
X182013095Y-65761904D01*
X182013095Y-65666666D01*
X181965476Y-65571428D01*
X181917857Y-65523809D01*
X181822619Y-65476190D01*
X181632142Y-65428571D01*
X181536904Y-65380952D01*
X181489285Y-65333333D01*
X181441666Y-65238095D01*
X181441666Y-65142857D01*
X181489285Y-65047619D01*
X181536904Y-65000000D01*
X181632142Y-64952380D01*
X181870238Y-64952380D01*
X182013095Y-65000000D01*
X182346428Y-64952380D02*
X182584523Y-65952380D01*
X182775000Y-65238095D01*
X182965476Y-65952380D01*
X183203571Y-64952380D01*
X184108333Y-65952380D02*
X183536904Y-65952380D01*
X183822619Y-65952380D02*
X183822619Y-64952380D01*
X183727380Y-65095238D01*
X183632142Y-65190476D01*
X183536904Y-65238095D01*
X179263095Y-96527380D02*
X179263095Y-97336904D01*
X179310714Y-97432142D01*
X179358333Y-97479761D01*
X179453571Y-97527380D01*
X179644047Y-97527380D01*
X179739285Y-97479761D01*
X179786904Y-97432142D01*
X179834523Y-97336904D01*
X179834523Y-96527380D01*
X180834523Y-97527380D02*
X180263095Y-97527380D01*
X180548809Y-97527380D02*
X180548809Y-96527380D01*
X180453571Y-96670238D01*
X180358333Y-96765476D01*
X180263095Y-96813095D01*
M02*
