G04 #@! TF.GenerationSoftware,KiCad,Pcbnew,5.1.4-e60b266~84~ubuntu18.04.1*
G04 #@! TF.CreationDate,2019-11-15T12:41:15-03:00*
G04 #@! TF.ProjectId,DriverConSensor,44726976-6572-4436-9f6e-53656e736f72,Ribelotta-Perren*
G04 #@! TF.SameCoordinates,Original*
G04 #@! TF.FileFunction,Copper,L2,Bot*
G04 #@! TF.FilePolarity,Positive*
%FSLAX46Y46*%
G04 Gerber Fmt 4.6, Leading zero omitted, Abs format (unit mm)*
G04 Created by KiCad (PCBNEW 5.1.4-e60b266~84~ubuntu18.04.1) date 2019-11-15 12:41:15*
%MOMM*%
%LPD*%
G04 APERTURE LIST*
%ADD10C,0.150000*%
%ADD11O,2.500000X2.500000*%
%ADD12R,2.500000X2.500000*%
%ADD13C,1.600000*%
%ADD14C,0.100000*%
%ADD15C,0.600000*%
%ADD16O,1.050000X1.500000*%
%ADD17R,1.050000X1.500000*%
%ADD18C,1.998980*%
%ADD19R,2.200000X2.200000*%
%ADD20O,2.200000X2.200000*%
%ADD21R,1.600000X1.600000*%
%ADD22O,1.600000X1.600000*%
%ADD23C,3.500120*%
%ADD24C,4.500880*%
%ADD25R,1.500000X1.500000*%
%ADD26C,1.500000*%
%ADD27C,1.400000*%
%ADD28O,1.400000X1.400000*%
%ADD29C,1.000000*%
%ADD30C,0.800000*%
%ADD31C,0.600000*%
%ADD32C,3.000000*%
%ADD33C,0.250000*%
G04 APERTURE END LIST*
D10*
X140201190Y-104960714D02*
X140239285Y-104998809D01*
X140353571Y-105036904D01*
X140429761Y-105036904D01*
X140544047Y-104998809D01*
X140620238Y-104922619D01*
X140658333Y-104846428D01*
X140696428Y-104694047D01*
X140696428Y-104579761D01*
X140658333Y-104427380D01*
X140620238Y-104351190D01*
X140544047Y-104275000D01*
X140429761Y-104236904D01*
X140353571Y-104236904D01*
X140239285Y-104275000D01*
X140201190Y-104313095D01*
X139972619Y-104503571D02*
X139667857Y-104503571D01*
X139858333Y-104236904D02*
X139858333Y-104922619D01*
X139820238Y-104998809D01*
X139744047Y-105036904D01*
X139667857Y-105036904D01*
X139401190Y-105036904D02*
X139401190Y-104503571D01*
X139401190Y-104655952D02*
X139363095Y-104579761D01*
X139325000Y-104541666D01*
X139248809Y-104503571D01*
X139172619Y-104503571D01*
X138791666Y-105036904D02*
X138867857Y-104998809D01*
X138905952Y-104922619D01*
X138905952Y-104236904D01*
X138486904Y-105036904D02*
X138486904Y-104236904D01*
X138220238Y-104808333D01*
X137953571Y-104236904D01*
X137953571Y-105036904D01*
X137458333Y-105036904D02*
X137534523Y-104998809D01*
X137572619Y-104960714D01*
X137610714Y-104884523D01*
X137610714Y-104655952D01*
X137572619Y-104579761D01*
X137534523Y-104541666D01*
X137458333Y-104503571D01*
X137344047Y-104503571D01*
X137267857Y-104541666D01*
X137229761Y-104579761D01*
X137191666Y-104655952D01*
X137191666Y-104884523D01*
X137229761Y-104960714D01*
X137267857Y-104998809D01*
X137344047Y-105036904D01*
X137458333Y-105036904D01*
X136963095Y-104503571D02*
X136658333Y-104503571D01*
X136848809Y-104236904D02*
X136848809Y-104922619D01*
X136810714Y-104998809D01*
X136734523Y-105036904D01*
X136658333Y-105036904D01*
X136505952Y-104236904D02*
X136239285Y-105036904D01*
X135972619Y-104236904D01*
X135705952Y-105036904D02*
X135705952Y-104503571D01*
X135705952Y-104236904D02*
X135744047Y-104275000D01*
X135705952Y-104313095D01*
X135667857Y-104275000D01*
X135705952Y-104236904D01*
X135705952Y-104313095D01*
X134982142Y-105036904D02*
X134982142Y-104236904D01*
X134982142Y-104998809D02*
X135058333Y-105036904D01*
X135210714Y-105036904D01*
X135286904Y-104998809D01*
X135325000Y-104960714D01*
X135363095Y-104884523D01*
X135363095Y-104655952D01*
X135325000Y-104579761D01*
X135286904Y-104541666D01*
X135210714Y-104503571D01*
X135058333Y-104503571D01*
X134982142Y-104541666D01*
X134601190Y-105036904D02*
X134601190Y-104503571D01*
X134601190Y-104655952D02*
X134563095Y-104579761D01*
X134525000Y-104541666D01*
X134448809Y-104503571D01*
X134372619Y-104503571D01*
X133610714Y-104236904D02*
X133344047Y-105036904D01*
X133077380Y-104236904D01*
X132505952Y-104998809D02*
X132582142Y-105036904D01*
X132734523Y-105036904D01*
X132810714Y-104998809D01*
X132848809Y-104922619D01*
X132848809Y-104617857D01*
X132810714Y-104541666D01*
X132734523Y-104503571D01*
X132582142Y-104503571D01*
X132505952Y-104541666D01*
X132467857Y-104617857D01*
X132467857Y-104694047D01*
X132848809Y-104770238D01*
X132125000Y-105036904D02*
X132125000Y-104503571D01*
X132125000Y-104655952D02*
X132086904Y-104579761D01*
X132048809Y-104541666D01*
X131972619Y-104503571D01*
X131896428Y-104503571D01*
X131667857Y-104998809D02*
X131591666Y-105036904D01*
X131439285Y-105036904D01*
X131363095Y-104998809D01*
X131325000Y-104922619D01*
X131325000Y-104884523D01*
X131363095Y-104808333D01*
X131439285Y-104770238D01*
X131553571Y-104770238D01*
X131629761Y-104732142D01*
X131667857Y-104655952D01*
X131667857Y-104617857D01*
X131629761Y-104541666D01*
X131553571Y-104503571D01*
X131439285Y-104503571D01*
X131363095Y-104541666D01*
X130982142Y-105036904D02*
X130982142Y-104503571D01*
X130982142Y-104236904D02*
X131020238Y-104275000D01*
X130982142Y-104313095D01*
X130944047Y-104275000D01*
X130982142Y-104236904D01*
X130982142Y-104313095D01*
X130486904Y-105036904D02*
X130563095Y-104998809D01*
X130601190Y-104960714D01*
X130639285Y-104884523D01*
X130639285Y-104655952D01*
X130601190Y-104579761D01*
X130563095Y-104541666D01*
X130486904Y-104503571D01*
X130372619Y-104503571D01*
X130296428Y-104541666D01*
X130258333Y-104579761D01*
X130220238Y-104655952D01*
X130220238Y-104884523D01*
X130258333Y-104960714D01*
X130296428Y-104998809D01*
X130372619Y-105036904D01*
X130486904Y-105036904D01*
X130334523Y-104198809D02*
X130448809Y-104313095D01*
X129877380Y-104503571D02*
X129877380Y-105036904D01*
X129877380Y-104579761D02*
X129839285Y-104541666D01*
X129763095Y-104503571D01*
X129648809Y-104503571D01*
X129572619Y-104541666D01*
X129534523Y-104617857D01*
X129534523Y-105036904D01*
X128582142Y-104313095D02*
X128544047Y-104275000D01*
X128467857Y-104236904D01*
X128277380Y-104236904D01*
X128201190Y-104275000D01*
X128163095Y-104313095D01*
X128125000Y-104389285D01*
X128125000Y-104465476D01*
X128163095Y-104579761D01*
X128620238Y-105036904D01*
X128125000Y-105036904D01*
X127782142Y-104960714D02*
X127744047Y-104998809D01*
X127782142Y-105036904D01*
X127820238Y-104998809D01*
X127782142Y-104960714D01*
X127782142Y-105036904D01*
X127248809Y-104236904D02*
X127172619Y-104236904D01*
X127096428Y-104275000D01*
X127058333Y-104313095D01*
X127020238Y-104389285D01*
X126982142Y-104541666D01*
X126982142Y-104732142D01*
X127020238Y-104884523D01*
X127058333Y-104960714D01*
X127096428Y-104998809D01*
X127172619Y-105036904D01*
X127248809Y-105036904D01*
X127325000Y-104998809D01*
X127363095Y-104960714D01*
X127401190Y-104884523D01*
X127439285Y-104732142D01*
X127439285Y-104541666D01*
X127401190Y-104389285D01*
X127363095Y-104313095D01*
X127325000Y-104275000D01*
X127248809Y-104236904D01*
X126029761Y-104732142D02*
X125420238Y-104732142D01*
X124429761Y-105036904D02*
X124429761Y-104236904D01*
X123972619Y-105036904D01*
X123972619Y-104236904D01*
X123477380Y-105036904D02*
X123553571Y-104998809D01*
X123591666Y-104960714D01*
X123629761Y-104884523D01*
X123629761Y-104655952D01*
X123591666Y-104579761D01*
X123553571Y-104541666D01*
X123477380Y-104503571D01*
X123363095Y-104503571D01*
X123286904Y-104541666D01*
X123248809Y-104579761D01*
X123210714Y-104655952D01*
X123210714Y-104884523D01*
X123248809Y-104960714D01*
X123286904Y-104998809D01*
X123363095Y-105036904D01*
X123477380Y-105036904D01*
X122944047Y-104503571D02*
X122753571Y-105036904D01*
X122563095Y-104503571D01*
X122296428Y-104313095D02*
X122258333Y-104275000D01*
X122182142Y-104236904D01*
X121991666Y-104236904D01*
X121915476Y-104275000D01*
X121877380Y-104313095D01*
X121839285Y-104389285D01*
X121839285Y-104465476D01*
X121877380Y-104579761D01*
X122334523Y-105036904D01*
X121839285Y-105036904D01*
X121344047Y-104236904D02*
X121267857Y-104236904D01*
X121191666Y-104275000D01*
X121153571Y-104313095D01*
X121115476Y-104389285D01*
X121077380Y-104541666D01*
X121077380Y-104732142D01*
X121115476Y-104884523D01*
X121153571Y-104960714D01*
X121191666Y-104998809D01*
X121267857Y-105036904D01*
X121344047Y-105036904D01*
X121420238Y-104998809D01*
X121458333Y-104960714D01*
X121496428Y-104884523D01*
X121534523Y-104732142D01*
X121534523Y-104541666D01*
X121496428Y-104389285D01*
X121458333Y-104313095D01*
X121420238Y-104275000D01*
X121344047Y-104236904D01*
X120315476Y-105036904D02*
X120772619Y-105036904D01*
X120544047Y-105036904D02*
X120544047Y-104236904D01*
X120620238Y-104351190D01*
X120696428Y-104427380D01*
X120772619Y-104465476D01*
X119934523Y-105036904D02*
X119782142Y-105036904D01*
X119705952Y-104998809D01*
X119667857Y-104960714D01*
X119591666Y-104846428D01*
X119553571Y-104694047D01*
X119553571Y-104389285D01*
X119591666Y-104313095D01*
X119629761Y-104275000D01*
X119705952Y-104236904D01*
X119858333Y-104236904D01*
X119934523Y-104275000D01*
X119972619Y-104313095D01*
X120010714Y-104389285D01*
X120010714Y-104579761D01*
X119972619Y-104655952D01*
X119934523Y-104694047D01*
X119858333Y-104732142D01*
X119705952Y-104732142D01*
X119629761Y-104694047D01*
X119591666Y-104655952D01*
X119553571Y-104579761D01*
D11*
X83750000Y-78000000D03*
X71550000Y-78000000D03*
X71550000Y-66000000D03*
X83750000Y-66000000D03*
D12*
X85750000Y-72000000D03*
D11*
X83725000Y-98775000D03*
X71525000Y-98775000D03*
X71525000Y-86775000D03*
X83725000Y-86775000D03*
D12*
X85725000Y-92775000D03*
D11*
X83800000Y-59975000D03*
X71600000Y-59975000D03*
X71600000Y-47975000D03*
X83800000Y-47975000D03*
D12*
X85800000Y-53975000D03*
D13*
X75625000Y-82425000D03*
X80625000Y-82425000D03*
X121325000Y-63475000D03*
X121325000Y-68475000D03*
X125625000Y-74675000D03*
X120625000Y-74675000D03*
X110437700Y-95232100D03*
X110437700Y-98470600D03*
D14*
G36*
X74339703Y-94480722D02*
G01*
X74354264Y-94482882D01*
X74368543Y-94486459D01*
X74382403Y-94491418D01*
X74395710Y-94497712D01*
X74408336Y-94505280D01*
X74420159Y-94514048D01*
X74431066Y-94523934D01*
X74440952Y-94534841D01*
X74449720Y-94546664D01*
X74457288Y-94559290D01*
X74463582Y-94572597D01*
X74468541Y-94586457D01*
X74472118Y-94600736D01*
X74474278Y-94615297D01*
X74475000Y-94630000D01*
X74475000Y-94930000D01*
X74474278Y-94944703D01*
X74472118Y-94959264D01*
X74468541Y-94973543D01*
X74463582Y-94987403D01*
X74457288Y-95000710D01*
X74449720Y-95013336D01*
X74440952Y-95025159D01*
X74431066Y-95036066D01*
X74420159Y-95045952D01*
X74408336Y-95054720D01*
X74395710Y-95062288D01*
X74382403Y-95068582D01*
X74368543Y-95073541D01*
X74354264Y-95077118D01*
X74339703Y-95079278D01*
X74325000Y-95080000D01*
X72675000Y-95080000D01*
X72660297Y-95079278D01*
X72645736Y-95077118D01*
X72631457Y-95073541D01*
X72617597Y-95068582D01*
X72604290Y-95062288D01*
X72591664Y-95054720D01*
X72579841Y-95045952D01*
X72568934Y-95036066D01*
X72559048Y-95025159D01*
X72550280Y-95013336D01*
X72542712Y-95000710D01*
X72536418Y-94987403D01*
X72531459Y-94973543D01*
X72527882Y-94959264D01*
X72525722Y-94944703D01*
X72525000Y-94930000D01*
X72525000Y-94630000D01*
X72525722Y-94615297D01*
X72527882Y-94600736D01*
X72531459Y-94586457D01*
X72536418Y-94572597D01*
X72542712Y-94559290D01*
X72550280Y-94546664D01*
X72559048Y-94534841D01*
X72568934Y-94523934D01*
X72579841Y-94514048D01*
X72591664Y-94505280D01*
X72604290Y-94497712D01*
X72617597Y-94491418D01*
X72631457Y-94486459D01*
X72645736Y-94482882D01*
X72660297Y-94480722D01*
X72675000Y-94480000D01*
X74325000Y-94480000D01*
X74339703Y-94480722D01*
X74339703Y-94480722D01*
G37*
D15*
X73500000Y-94780000D03*
D14*
G36*
X74339703Y-93210722D02*
G01*
X74354264Y-93212882D01*
X74368543Y-93216459D01*
X74382403Y-93221418D01*
X74395710Y-93227712D01*
X74408336Y-93235280D01*
X74420159Y-93244048D01*
X74431066Y-93253934D01*
X74440952Y-93264841D01*
X74449720Y-93276664D01*
X74457288Y-93289290D01*
X74463582Y-93302597D01*
X74468541Y-93316457D01*
X74472118Y-93330736D01*
X74474278Y-93345297D01*
X74475000Y-93360000D01*
X74475000Y-93660000D01*
X74474278Y-93674703D01*
X74472118Y-93689264D01*
X74468541Y-93703543D01*
X74463582Y-93717403D01*
X74457288Y-93730710D01*
X74449720Y-93743336D01*
X74440952Y-93755159D01*
X74431066Y-93766066D01*
X74420159Y-93775952D01*
X74408336Y-93784720D01*
X74395710Y-93792288D01*
X74382403Y-93798582D01*
X74368543Y-93803541D01*
X74354264Y-93807118D01*
X74339703Y-93809278D01*
X74325000Y-93810000D01*
X72675000Y-93810000D01*
X72660297Y-93809278D01*
X72645736Y-93807118D01*
X72631457Y-93803541D01*
X72617597Y-93798582D01*
X72604290Y-93792288D01*
X72591664Y-93784720D01*
X72579841Y-93775952D01*
X72568934Y-93766066D01*
X72559048Y-93755159D01*
X72550280Y-93743336D01*
X72542712Y-93730710D01*
X72536418Y-93717403D01*
X72531459Y-93703543D01*
X72527882Y-93689264D01*
X72525722Y-93674703D01*
X72525000Y-93660000D01*
X72525000Y-93360000D01*
X72525722Y-93345297D01*
X72527882Y-93330736D01*
X72531459Y-93316457D01*
X72536418Y-93302597D01*
X72542712Y-93289290D01*
X72550280Y-93276664D01*
X72559048Y-93264841D01*
X72568934Y-93253934D01*
X72579841Y-93244048D01*
X72591664Y-93235280D01*
X72604290Y-93227712D01*
X72617597Y-93221418D01*
X72631457Y-93216459D01*
X72645736Y-93212882D01*
X72660297Y-93210722D01*
X72675000Y-93210000D01*
X74325000Y-93210000D01*
X74339703Y-93210722D01*
X74339703Y-93210722D01*
G37*
D15*
X73500000Y-93510000D03*
D14*
G36*
X74339703Y-91940722D02*
G01*
X74354264Y-91942882D01*
X74368543Y-91946459D01*
X74382403Y-91951418D01*
X74395710Y-91957712D01*
X74408336Y-91965280D01*
X74420159Y-91974048D01*
X74431066Y-91983934D01*
X74440952Y-91994841D01*
X74449720Y-92006664D01*
X74457288Y-92019290D01*
X74463582Y-92032597D01*
X74468541Y-92046457D01*
X74472118Y-92060736D01*
X74474278Y-92075297D01*
X74475000Y-92090000D01*
X74475000Y-92390000D01*
X74474278Y-92404703D01*
X74472118Y-92419264D01*
X74468541Y-92433543D01*
X74463582Y-92447403D01*
X74457288Y-92460710D01*
X74449720Y-92473336D01*
X74440952Y-92485159D01*
X74431066Y-92496066D01*
X74420159Y-92505952D01*
X74408336Y-92514720D01*
X74395710Y-92522288D01*
X74382403Y-92528582D01*
X74368543Y-92533541D01*
X74354264Y-92537118D01*
X74339703Y-92539278D01*
X74325000Y-92540000D01*
X72675000Y-92540000D01*
X72660297Y-92539278D01*
X72645736Y-92537118D01*
X72631457Y-92533541D01*
X72617597Y-92528582D01*
X72604290Y-92522288D01*
X72591664Y-92514720D01*
X72579841Y-92505952D01*
X72568934Y-92496066D01*
X72559048Y-92485159D01*
X72550280Y-92473336D01*
X72542712Y-92460710D01*
X72536418Y-92447403D01*
X72531459Y-92433543D01*
X72527882Y-92419264D01*
X72525722Y-92404703D01*
X72525000Y-92390000D01*
X72525000Y-92090000D01*
X72525722Y-92075297D01*
X72527882Y-92060736D01*
X72531459Y-92046457D01*
X72536418Y-92032597D01*
X72542712Y-92019290D01*
X72550280Y-92006664D01*
X72559048Y-91994841D01*
X72568934Y-91983934D01*
X72579841Y-91974048D01*
X72591664Y-91965280D01*
X72604290Y-91957712D01*
X72617597Y-91951418D01*
X72631457Y-91946459D01*
X72645736Y-91942882D01*
X72660297Y-91940722D01*
X72675000Y-91940000D01*
X74325000Y-91940000D01*
X74339703Y-91940722D01*
X74339703Y-91940722D01*
G37*
D15*
X73500000Y-92240000D03*
D14*
G36*
X74339703Y-90670722D02*
G01*
X74354264Y-90672882D01*
X74368543Y-90676459D01*
X74382403Y-90681418D01*
X74395710Y-90687712D01*
X74408336Y-90695280D01*
X74420159Y-90704048D01*
X74431066Y-90713934D01*
X74440952Y-90724841D01*
X74449720Y-90736664D01*
X74457288Y-90749290D01*
X74463582Y-90762597D01*
X74468541Y-90776457D01*
X74472118Y-90790736D01*
X74474278Y-90805297D01*
X74475000Y-90820000D01*
X74475000Y-91120000D01*
X74474278Y-91134703D01*
X74472118Y-91149264D01*
X74468541Y-91163543D01*
X74463582Y-91177403D01*
X74457288Y-91190710D01*
X74449720Y-91203336D01*
X74440952Y-91215159D01*
X74431066Y-91226066D01*
X74420159Y-91235952D01*
X74408336Y-91244720D01*
X74395710Y-91252288D01*
X74382403Y-91258582D01*
X74368543Y-91263541D01*
X74354264Y-91267118D01*
X74339703Y-91269278D01*
X74325000Y-91270000D01*
X72675000Y-91270000D01*
X72660297Y-91269278D01*
X72645736Y-91267118D01*
X72631457Y-91263541D01*
X72617597Y-91258582D01*
X72604290Y-91252288D01*
X72591664Y-91244720D01*
X72579841Y-91235952D01*
X72568934Y-91226066D01*
X72559048Y-91215159D01*
X72550280Y-91203336D01*
X72542712Y-91190710D01*
X72536418Y-91177403D01*
X72531459Y-91163543D01*
X72527882Y-91149264D01*
X72525722Y-91134703D01*
X72525000Y-91120000D01*
X72525000Y-90820000D01*
X72525722Y-90805297D01*
X72527882Y-90790736D01*
X72531459Y-90776457D01*
X72536418Y-90762597D01*
X72542712Y-90749290D01*
X72550280Y-90736664D01*
X72559048Y-90724841D01*
X72568934Y-90713934D01*
X72579841Y-90704048D01*
X72591664Y-90695280D01*
X72604290Y-90687712D01*
X72617597Y-90681418D01*
X72631457Y-90676459D01*
X72645736Y-90672882D01*
X72660297Y-90670722D01*
X72675000Y-90670000D01*
X74325000Y-90670000D01*
X74339703Y-90670722D01*
X74339703Y-90670722D01*
G37*
D15*
X73500000Y-90970000D03*
D14*
G36*
X79289703Y-90670722D02*
G01*
X79304264Y-90672882D01*
X79318543Y-90676459D01*
X79332403Y-90681418D01*
X79345710Y-90687712D01*
X79358336Y-90695280D01*
X79370159Y-90704048D01*
X79381066Y-90713934D01*
X79390952Y-90724841D01*
X79399720Y-90736664D01*
X79407288Y-90749290D01*
X79413582Y-90762597D01*
X79418541Y-90776457D01*
X79422118Y-90790736D01*
X79424278Y-90805297D01*
X79425000Y-90820000D01*
X79425000Y-91120000D01*
X79424278Y-91134703D01*
X79422118Y-91149264D01*
X79418541Y-91163543D01*
X79413582Y-91177403D01*
X79407288Y-91190710D01*
X79399720Y-91203336D01*
X79390952Y-91215159D01*
X79381066Y-91226066D01*
X79370159Y-91235952D01*
X79358336Y-91244720D01*
X79345710Y-91252288D01*
X79332403Y-91258582D01*
X79318543Y-91263541D01*
X79304264Y-91267118D01*
X79289703Y-91269278D01*
X79275000Y-91270000D01*
X77625000Y-91270000D01*
X77610297Y-91269278D01*
X77595736Y-91267118D01*
X77581457Y-91263541D01*
X77567597Y-91258582D01*
X77554290Y-91252288D01*
X77541664Y-91244720D01*
X77529841Y-91235952D01*
X77518934Y-91226066D01*
X77509048Y-91215159D01*
X77500280Y-91203336D01*
X77492712Y-91190710D01*
X77486418Y-91177403D01*
X77481459Y-91163543D01*
X77477882Y-91149264D01*
X77475722Y-91134703D01*
X77475000Y-91120000D01*
X77475000Y-90820000D01*
X77475722Y-90805297D01*
X77477882Y-90790736D01*
X77481459Y-90776457D01*
X77486418Y-90762597D01*
X77492712Y-90749290D01*
X77500280Y-90736664D01*
X77509048Y-90724841D01*
X77518934Y-90713934D01*
X77529841Y-90704048D01*
X77541664Y-90695280D01*
X77554290Y-90687712D01*
X77567597Y-90681418D01*
X77581457Y-90676459D01*
X77595736Y-90672882D01*
X77610297Y-90670722D01*
X77625000Y-90670000D01*
X79275000Y-90670000D01*
X79289703Y-90670722D01*
X79289703Y-90670722D01*
G37*
D15*
X78450000Y-90970000D03*
D14*
G36*
X79289703Y-91940722D02*
G01*
X79304264Y-91942882D01*
X79318543Y-91946459D01*
X79332403Y-91951418D01*
X79345710Y-91957712D01*
X79358336Y-91965280D01*
X79370159Y-91974048D01*
X79381066Y-91983934D01*
X79390952Y-91994841D01*
X79399720Y-92006664D01*
X79407288Y-92019290D01*
X79413582Y-92032597D01*
X79418541Y-92046457D01*
X79422118Y-92060736D01*
X79424278Y-92075297D01*
X79425000Y-92090000D01*
X79425000Y-92390000D01*
X79424278Y-92404703D01*
X79422118Y-92419264D01*
X79418541Y-92433543D01*
X79413582Y-92447403D01*
X79407288Y-92460710D01*
X79399720Y-92473336D01*
X79390952Y-92485159D01*
X79381066Y-92496066D01*
X79370159Y-92505952D01*
X79358336Y-92514720D01*
X79345710Y-92522288D01*
X79332403Y-92528582D01*
X79318543Y-92533541D01*
X79304264Y-92537118D01*
X79289703Y-92539278D01*
X79275000Y-92540000D01*
X77625000Y-92540000D01*
X77610297Y-92539278D01*
X77595736Y-92537118D01*
X77581457Y-92533541D01*
X77567597Y-92528582D01*
X77554290Y-92522288D01*
X77541664Y-92514720D01*
X77529841Y-92505952D01*
X77518934Y-92496066D01*
X77509048Y-92485159D01*
X77500280Y-92473336D01*
X77492712Y-92460710D01*
X77486418Y-92447403D01*
X77481459Y-92433543D01*
X77477882Y-92419264D01*
X77475722Y-92404703D01*
X77475000Y-92390000D01*
X77475000Y-92090000D01*
X77475722Y-92075297D01*
X77477882Y-92060736D01*
X77481459Y-92046457D01*
X77486418Y-92032597D01*
X77492712Y-92019290D01*
X77500280Y-92006664D01*
X77509048Y-91994841D01*
X77518934Y-91983934D01*
X77529841Y-91974048D01*
X77541664Y-91965280D01*
X77554290Y-91957712D01*
X77567597Y-91951418D01*
X77581457Y-91946459D01*
X77595736Y-91942882D01*
X77610297Y-91940722D01*
X77625000Y-91940000D01*
X79275000Y-91940000D01*
X79289703Y-91940722D01*
X79289703Y-91940722D01*
G37*
D15*
X78450000Y-92240000D03*
D14*
G36*
X79289703Y-93210722D02*
G01*
X79304264Y-93212882D01*
X79318543Y-93216459D01*
X79332403Y-93221418D01*
X79345710Y-93227712D01*
X79358336Y-93235280D01*
X79370159Y-93244048D01*
X79381066Y-93253934D01*
X79390952Y-93264841D01*
X79399720Y-93276664D01*
X79407288Y-93289290D01*
X79413582Y-93302597D01*
X79418541Y-93316457D01*
X79422118Y-93330736D01*
X79424278Y-93345297D01*
X79425000Y-93360000D01*
X79425000Y-93660000D01*
X79424278Y-93674703D01*
X79422118Y-93689264D01*
X79418541Y-93703543D01*
X79413582Y-93717403D01*
X79407288Y-93730710D01*
X79399720Y-93743336D01*
X79390952Y-93755159D01*
X79381066Y-93766066D01*
X79370159Y-93775952D01*
X79358336Y-93784720D01*
X79345710Y-93792288D01*
X79332403Y-93798582D01*
X79318543Y-93803541D01*
X79304264Y-93807118D01*
X79289703Y-93809278D01*
X79275000Y-93810000D01*
X77625000Y-93810000D01*
X77610297Y-93809278D01*
X77595736Y-93807118D01*
X77581457Y-93803541D01*
X77567597Y-93798582D01*
X77554290Y-93792288D01*
X77541664Y-93784720D01*
X77529841Y-93775952D01*
X77518934Y-93766066D01*
X77509048Y-93755159D01*
X77500280Y-93743336D01*
X77492712Y-93730710D01*
X77486418Y-93717403D01*
X77481459Y-93703543D01*
X77477882Y-93689264D01*
X77475722Y-93674703D01*
X77475000Y-93660000D01*
X77475000Y-93360000D01*
X77475722Y-93345297D01*
X77477882Y-93330736D01*
X77481459Y-93316457D01*
X77486418Y-93302597D01*
X77492712Y-93289290D01*
X77500280Y-93276664D01*
X77509048Y-93264841D01*
X77518934Y-93253934D01*
X77529841Y-93244048D01*
X77541664Y-93235280D01*
X77554290Y-93227712D01*
X77567597Y-93221418D01*
X77581457Y-93216459D01*
X77595736Y-93212882D01*
X77610297Y-93210722D01*
X77625000Y-93210000D01*
X79275000Y-93210000D01*
X79289703Y-93210722D01*
X79289703Y-93210722D01*
G37*
D15*
X78450000Y-93510000D03*
D14*
G36*
X79289703Y-94480722D02*
G01*
X79304264Y-94482882D01*
X79318543Y-94486459D01*
X79332403Y-94491418D01*
X79345710Y-94497712D01*
X79358336Y-94505280D01*
X79370159Y-94514048D01*
X79381066Y-94523934D01*
X79390952Y-94534841D01*
X79399720Y-94546664D01*
X79407288Y-94559290D01*
X79413582Y-94572597D01*
X79418541Y-94586457D01*
X79422118Y-94600736D01*
X79424278Y-94615297D01*
X79425000Y-94630000D01*
X79425000Y-94930000D01*
X79424278Y-94944703D01*
X79422118Y-94959264D01*
X79418541Y-94973543D01*
X79413582Y-94987403D01*
X79407288Y-95000710D01*
X79399720Y-95013336D01*
X79390952Y-95025159D01*
X79381066Y-95036066D01*
X79370159Y-95045952D01*
X79358336Y-95054720D01*
X79345710Y-95062288D01*
X79332403Y-95068582D01*
X79318543Y-95073541D01*
X79304264Y-95077118D01*
X79289703Y-95079278D01*
X79275000Y-95080000D01*
X77625000Y-95080000D01*
X77610297Y-95079278D01*
X77595736Y-95077118D01*
X77581457Y-95073541D01*
X77567597Y-95068582D01*
X77554290Y-95062288D01*
X77541664Y-95054720D01*
X77529841Y-95045952D01*
X77518934Y-95036066D01*
X77509048Y-95025159D01*
X77500280Y-95013336D01*
X77492712Y-95000710D01*
X77486418Y-94987403D01*
X77481459Y-94973543D01*
X77477882Y-94959264D01*
X77475722Y-94944703D01*
X77475000Y-94930000D01*
X77475000Y-94630000D01*
X77475722Y-94615297D01*
X77477882Y-94600736D01*
X77481459Y-94586457D01*
X77486418Y-94572597D01*
X77492712Y-94559290D01*
X77500280Y-94546664D01*
X77509048Y-94534841D01*
X77518934Y-94523934D01*
X77529841Y-94514048D01*
X77541664Y-94505280D01*
X77554290Y-94497712D01*
X77567597Y-94491418D01*
X77581457Y-94486459D01*
X77595736Y-94482882D01*
X77610297Y-94480722D01*
X77625000Y-94480000D01*
X79275000Y-94480000D01*
X79289703Y-94480722D01*
X79289703Y-94480722D01*
G37*
D15*
X78450000Y-94780000D03*
D16*
X110655000Y-89575000D03*
X108750000Y-89575000D03*
D17*
X112547300Y-89625800D03*
D18*
X106625000Y-50900000D03*
X106650000Y-58625000D03*
D19*
X101375000Y-62725000D03*
D20*
X111535000Y-62725000D03*
D13*
X104075000Y-91350000D03*
X104075000Y-93850000D03*
X138145000Y-74665000D03*
X135645000Y-74665000D03*
X96850000Y-54650000D03*
X96850000Y-57150000D03*
X90875000Y-59725000D03*
X90875000Y-62225000D03*
X110525000Y-81775000D03*
X110525000Y-84275000D03*
X113025000Y-43175000D03*
X113025000Y-40675000D03*
D21*
X131000000Y-95200000D03*
D22*
X138620000Y-95200000D03*
X125545000Y-95075000D03*
D21*
X117925000Y-95075000D03*
X131000000Y-90500000D03*
D22*
X138620000Y-90500000D03*
X125545000Y-90375000D03*
D21*
X117925000Y-90375000D03*
D20*
X72565000Y-43650000D03*
D19*
X82725000Y-43650000D03*
X101300000Y-68975000D03*
D20*
X111460000Y-68975000D03*
X98925000Y-80175000D03*
D19*
X98925000Y-90335000D03*
D23*
X134525000Y-99000000D03*
X121775000Y-98900000D03*
D24*
X92075000Y-54025000D03*
X92075000Y-72000000D03*
X92425000Y-92775000D03*
D23*
X91525000Y-84675000D03*
D24*
X95075000Y-42625000D03*
D25*
X111550000Y-59625000D03*
D26*
X111550000Y-54545000D03*
X111550000Y-57085000D03*
X109175000Y-75240000D03*
X109175000Y-77780000D03*
D25*
X109175000Y-72700000D03*
D27*
X131000000Y-87275000D03*
D28*
X138620000Y-87275000D03*
X131080000Y-82475000D03*
D27*
X138700000Y-82475000D03*
X138700000Y-78900000D03*
D28*
X131080000Y-78900000D03*
D27*
X117825000Y-87175000D03*
D28*
X125445000Y-87175000D03*
X118005000Y-78775000D03*
D27*
X125625000Y-78775000D03*
D28*
X118005000Y-82475000D03*
D27*
X125625000Y-82475000D03*
D28*
X115130000Y-60150000D03*
D27*
X122750000Y-60150000D03*
D28*
X107955000Y-65750000D03*
D27*
X115575000Y-65750000D03*
X97575000Y-59700000D03*
D28*
X97575000Y-67320000D03*
D27*
X94400000Y-59700000D03*
D28*
X94400000Y-67320000D03*
D27*
X109225000Y-48075000D03*
D28*
X109225000Y-40455000D03*
X137695000Y-68805000D03*
D27*
X137695000Y-61185000D03*
X117745000Y-56555000D03*
D28*
X125365000Y-56555000D03*
X125365000Y-52855000D03*
D27*
X117745000Y-52855000D03*
X117845000Y-49555000D03*
D28*
X125465000Y-49555000D03*
X125435000Y-45955000D03*
D27*
X117815000Y-45955000D03*
X117855000Y-42355000D03*
D28*
X125475000Y-42355000D03*
D21*
X136845000Y-56955000D03*
D22*
X129225000Y-44255000D03*
X136845000Y-54415000D03*
X129225000Y-46795000D03*
X136845000Y-51875000D03*
X129225000Y-49335000D03*
X136845000Y-49335000D03*
X129225000Y-51875000D03*
X136845000Y-46795000D03*
X129225000Y-54415000D03*
X136845000Y-44255000D03*
X129225000Y-56955000D03*
D21*
X134525000Y-62575000D03*
D22*
X126905000Y-70195000D03*
X131985000Y-62575000D03*
X129445000Y-70195000D03*
X129445000Y-62575000D03*
X131985000Y-70195000D03*
X126905000Y-62575000D03*
X134525000Y-70195000D03*
D29*
X138620000Y-101905000D02*
X138620000Y-95200000D01*
X136305000Y-70195000D02*
X137695000Y-68805000D01*
X134525000Y-70195000D02*
X136305000Y-70195000D01*
X138145000Y-73815000D02*
X138145000Y-74665000D01*
X134525000Y-70195000D02*
X138145000Y-73815000D01*
X126144999Y-87874999D02*
X125445000Y-87175000D01*
X127645001Y-92974999D02*
X127645001Y-89375001D01*
X127645001Y-89375001D02*
X126144999Y-87874999D01*
X125545000Y-95075000D02*
X127645001Y-92974999D01*
D30*
X125545000Y-95075000D02*
X121744990Y-91274990D01*
D31*
X123824999Y-76504201D02*
X124841501Y-75487699D01*
X124841501Y-75487699D02*
X125641500Y-74687700D01*
X123824999Y-81175001D02*
X123824999Y-76504201D01*
X121744990Y-83255010D02*
X123824999Y-81175001D01*
X121825000Y-91150000D02*
X121825000Y-83130020D01*
D29*
X112805000Y-40455000D02*
X113025000Y-40675000D01*
X109225000Y-40455000D02*
X112805000Y-40455000D01*
D30*
X115052370Y-102702370D02*
X124297630Y-102702370D01*
X110425000Y-98075000D02*
X115052370Y-102702370D01*
X125545000Y-101455000D02*
X125545000Y-95075000D01*
X124297630Y-102702370D02*
X125545000Y-101455000D01*
D29*
X122225000Y-62575000D02*
X121325000Y-63475000D01*
X126905000Y-62575000D02*
X122225000Y-62575000D01*
X111145000Y-54495000D02*
X109125000Y-54495000D01*
X134525000Y-62006998D02*
X131763002Y-59245000D01*
X134525000Y-62575000D02*
X134525000Y-62006998D01*
X131763002Y-43685000D02*
X130233001Y-42154999D01*
X131763002Y-59245000D02*
X131763002Y-43685000D01*
D30*
X130233001Y-42154999D02*
X129815001Y-42154999D01*
D29*
X118005000Y-71795000D02*
X121325000Y-68475000D01*
X118005000Y-78775000D02*
X118005000Y-71795000D01*
X123528033Y-68094999D02*
X130141969Y-68094999D01*
X123148032Y-68475000D02*
X123528033Y-68094999D01*
X121325000Y-68475000D02*
X123148032Y-68475000D01*
X134525000Y-63711968D02*
X134525000Y-62575000D01*
X130141969Y-68094999D02*
X134525000Y-63711968D01*
X114156370Y-43175000D02*
X113025000Y-43175000D01*
X114370998Y-43175000D02*
X114156370Y-43175000D01*
X109924999Y-47375001D02*
X109924999Y-45075001D01*
X109225000Y-48075000D02*
X109924999Y-47375001D01*
X109924999Y-45075001D02*
X111825000Y-43175000D01*
X111825000Y-43175000D02*
X113025000Y-43175000D01*
X117015051Y-78775000D02*
X115625000Y-80165051D01*
X118005000Y-78775000D02*
X117015051Y-78775000D01*
X115625000Y-80165051D02*
X115625000Y-84875000D01*
X115625000Y-84875000D02*
X115725000Y-84975000D01*
X115725000Y-94874999D02*
X114324999Y-96275000D01*
X115725000Y-84975000D02*
X115725000Y-90075000D01*
X115725000Y-90075000D02*
X115725000Y-94874999D01*
X114521500Y-90075000D02*
X115725000Y-90075000D01*
X114072300Y-89625800D02*
X114521500Y-90075000D01*
X112547300Y-89625800D02*
X114072300Y-89625800D01*
D30*
X115025001Y-41374999D02*
X115025001Y-42520997D01*
X115025001Y-42520997D02*
X114370998Y-43175000D01*
X132980001Y-83931999D02*
X132980001Y-80800001D01*
X121325010Y-81276324D02*
X121325011Y-76874989D01*
X128425000Y-75492245D02*
X127579989Y-76337256D01*
X119905001Y-82696333D02*
X121325010Y-81276324D01*
X119905001Y-83387001D02*
X119905001Y-82696333D01*
X118417002Y-84875000D02*
X119905001Y-83387001D01*
X115625000Y-84875000D02*
X118417002Y-84875000D01*
X132980001Y-80800001D02*
X131080000Y-78900000D01*
X122625001Y-75574999D02*
X122625001Y-73974999D01*
X127579989Y-82467235D02*
X130112753Y-84999999D01*
X122625001Y-73974999D02*
X124175000Y-72425000D01*
X121325011Y-76874989D02*
X122625001Y-75574999D01*
X124175000Y-72425000D02*
X126870823Y-72425000D01*
X126870823Y-72425000D02*
X128425000Y-73979177D01*
X127579989Y-76337256D02*
X127579989Y-82467235D01*
X130112753Y-84999999D02*
X131912001Y-84999999D01*
X128425000Y-73979177D02*
X128425000Y-75492245D01*
X131912001Y-84999999D02*
X132980001Y-83931999D01*
X124562999Y-40454999D02*
X123200000Y-41817998D01*
X129815001Y-42154999D02*
X128115001Y-40454999D01*
X128115001Y-40454999D02*
X124562999Y-40454999D01*
X123200000Y-41817998D02*
X119957002Y-41817998D01*
X115945001Y-40454999D02*
X115025001Y-41374999D01*
X118767001Y-40454999D02*
X115945001Y-40454999D01*
X119755001Y-41442999D02*
X118767001Y-40454999D01*
X119755001Y-41615997D02*
X119755001Y-41442999D01*
X119957002Y-41817998D02*
X119755001Y-41615997D01*
D29*
X110437700Y-95232100D02*
X109637701Y-94432101D01*
X80775000Y-103225000D02*
X95125000Y-103225000D01*
X78450000Y-95110010D02*
X78450000Y-100900000D01*
X95125000Y-103225000D02*
X96950000Y-101400000D01*
X78450000Y-100900000D02*
X80775000Y-103225000D01*
D30*
X109055600Y-93850000D02*
X104075000Y-93850000D01*
X109637701Y-94432101D02*
X109055600Y-93850000D01*
D29*
X111480600Y-96275000D02*
X110437700Y-95232100D01*
X114324999Y-96275000D02*
X111480600Y-96275000D01*
D30*
X101200000Y-93850000D02*
X100525000Y-94525000D01*
X104075000Y-93850000D02*
X101200000Y-93850000D01*
X100525000Y-94525000D02*
X99825000Y-94525000D01*
X99825000Y-94525000D02*
X98550000Y-95800000D01*
X98550000Y-95800000D02*
X98550000Y-96400000D01*
X97250000Y-97700000D02*
X98550000Y-96400000D01*
X96950000Y-97700000D02*
X97250000Y-97700000D01*
D29*
X96950000Y-101400000D02*
X96950000Y-97700000D01*
X129445000Y-72595000D02*
X129445000Y-70195000D01*
X131515000Y-74665000D02*
X129445000Y-72595000D01*
X135645000Y-74665000D02*
X131515000Y-74665000D01*
D30*
X129179999Y-77000001D02*
X131515000Y-74665000D01*
X129179999Y-80574999D02*
X129179999Y-77000001D01*
X131080000Y-82475000D02*
X129179999Y-80574999D01*
D29*
X120625000Y-73543630D02*
X120625000Y-74675000D01*
X123973630Y-70195000D02*
X120625000Y-73543630D01*
X126905000Y-70195000D02*
X123973630Y-70195000D01*
D31*
X119825001Y-75474999D02*
X119825001Y-80654999D01*
X118704999Y-81775001D02*
X118005000Y-82475000D01*
X119825001Y-80654999D02*
X118704999Y-81775001D01*
X120625000Y-74675000D02*
X119825001Y-75474999D01*
D32*
X92025000Y-53975000D02*
X92075000Y-54025000D01*
X85800000Y-53975000D02*
X92025000Y-53975000D01*
D29*
X92950000Y-53150000D02*
X92075000Y-54025000D01*
X92700000Y-54650000D02*
X92075000Y-54025000D01*
X96850000Y-54650000D02*
X92700000Y-54650000D01*
X97575000Y-57875000D02*
X96850000Y-57150000D01*
X97575000Y-59700000D02*
X97575000Y-57875000D01*
X94375000Y-59725000D02*
X94400000Y-59700000D01*
X90875000Y-59725000D02*
X94375000Y-59725000D01*
D32*
X92075000Y-72000000D02*
X86383814Y-72000000D01*
D29*
X92075000Y-70100000D02*
X92075000Y-72000000D01*
X90075001Y-68100001D02*
X92075000Y-70100000D01*
X90875000Y-62225000D02*
X90075001Y-63024999D01*
X90075001Y-63024999D02*
X90075001Y-68100001D01*
D32*
X85725000Y-92775000D02*
X92425000Y-92775000D01*
D31*
X79525000Y-92240000D02*
X78450000Y-92240000D01*
X79540010Y-92224990D02*
X79525000Y-92240000D01*
X81825010Y-92224990D02*
X79540010Y-92224990D01*
X81975000Y-92075000D02*
X81825010Y-92224990D01*
X81975000Y-90025000D02*
X81975000Y-92075000D01*
D29*
X80625000Y-88675000D02*
X80625000Y-82425000D01*
X81975000Y-90025000D02*
X80625000Y-88675000D01*
X131000000Y-95200000D02*
X131000000Y-90500000D01*
X131000000Y-95200000D02*
X131175000Y-95200000D01*
X131000000Y-95475000D02*
X134525000Y-99000000D01*
X131000000Y-95200000D02*
X131000000Y-95475000D01*
X131000000Y-90500000D02*
X131000000Y-87275000D01*
X117925000Y-95075000D02*
X117925000Y-90375000D01*
X117950000Y-95075000D02*
X121775000Y-98900000D01*
X117925000Y-95075000D02*
X117950000Y-95075000D01*
X117925000Y-87275000D02*
X117825000Y-87175000D01*
X117925000Y-90375000D02*
X117925000Y-87275000D01*
X138700000Y-82475000D02*
X138700000Y-78900000D01*
X138000001Y-83174999D02*
X138700000Y-82475000D01*
X136619999Y-84555001D02*
X138000001Y-83174999D01*
X136619999Y-88499999D02*
X136619999Y-84555001D01*
X138620000Y-90500000D02*
X136619999Y-88499999D01*
X125625000Y-82775000D02*
X125625000Y-78775000D01*
D30*
X123544999Y-84555001D02*
X124925001Y-83174999D01*
X123544999Y-88374999D02*
X123544999Y-84555001D01*
X124925001Y-83174999D02*
X125625000Y-82475000D01*
X125545000Y-90375000D02*
X123544999Y-88374999D01*
D29*
X111485000Y-63475000D02*
X111585000Y-63375000D01*
X111485000Y-67675000D02*
X111485000Y-63475000D01*
X110325000Y-70110000D02*
X111460000Y-68975000D01*
X110325000Y-72675000D02*
X110325000Y-70110000D01*
X83750000Y-60025000D02*
X83800000Y-59975000D01*
X83750000Y-66000000D02*
X83750000Y-60025000D01*
D30*
X110300000Y-72700000D02*
X110325000Y-72675000D01*
X109175000Y-72700000D02*
X110300000Y-72700000D01*
D29*
X111460000Y-67700000D02*
X111485000Y-67675000D01*
X111460000Y-68975000D02*
X111460000Y-67700000D01*
X111550000Y-62710000D02*
X111535000Y-62725000D01*
X111550000Y-59625000D02*
X111550000Y-62710000D01*
X111550000Y-59625000D02*
X111053248Y-59625000D01*
D30*
X108849491Y-58474491D02*
X108849491Y-56974491D01*
X111550000Y-59625000D02*
X110000000Y-59625000D01*
X110000000Y-59625000D02*
X108849491Y-58474491D01*
X108300509Y-56425509D02*
X104375509Y-56425509D01*
X108849491Y-56974491D02*
X108300509Y-56425509D01*
D29*
X83800000Y-58207234D02*
X77675000Y-52082234D01*
X77675000Y-52082234D02*
X77675000Y-41925000D01*
X83800000Y-59975000D02*
X83800000Y-58207234D01*
D30*
X77675000Y-41925000D02*
X77675000Y-41700000D01*
X77675000Y-41700000D02*
X78250000Y-41125000D01*
X78250000Y-41125000D02*
X84625000Y-41125000D01*
X84625000Y-41125000D02*
X85325000Y-41825000D01*
D29*
X104375509Y-56425509D02*
X103225010Y-55275010D01*
X86970588Y-46174990D02*
X86924990Y-46174990D01*
X86924990Y-46174990D02*
X85325000Y-44575000D01*
X88020587Y-47224989D02*
X86970588Y-46174990D01*
D30*
X85325000Y-44575000D02*
X85325000Y-41825000D01*
D29*
X96353590Y-48499990D02*
X89295588Y-48499990D01*
X103225010Y-55275010D02*
X103128610Y-55275010D01*
X103128610Y-55275010D02*
X96353590Y-48499990D01*
X89295588Y-48499990D02*
X88372799Y-47577201D01*
X89425000Y-86775000D02*
X91525000Y-84675000D01*
X83725000Y-86775000D02*
X89425000Y-86775000D01*
X112610660Y-57085000D02*
X111550000Y-57085000D01*
X113054949Y-57085000D02*
X112610660Y-57085000D01*
X115130000Y-59160051D02*
X113054949Y-57085000D01*
X115130000Y-60150000D02*
X115130000Y-59160051D01*
X108114340Y-75240000D02*
X109175000Y-75240000D01*
X107701000Y-75240000D02*
X108114340Y-75240000D01*
X107124999Y-74663999D02*
X107701000Y-75240000D01*
X107124999Y-66580001D02*
X107124999Y-74663999D01*
X107955000Y-65750000D02*
X107124999Y-66580001D01*
X129445000Y-61443630D02*
X128156381Y-60155011D01*
X129445000Y-62575000D02*
X129445000Y-61443630D01*
X123739949Y-60150000D02*
X122750000Y-60150000D01*
X123744960Y-60155011D02*
X123739949Y-60150000D01*
X128156381Y-60155011D02*
X123744960Y-60155011D01*
D30*
X129437803Y-66394989D02*
X116505011Y-66394989D01*
X131985000Y-62575000D02*
X131985000Y-63847792D01*
X131985000Y-63847792D02*
X129437803Y-66394989D01*
X116274999Y-66449999D02*
X115575000Y-65750000D01*
X116450001Y-66449999D02*
X116274999Y-66449999D01*
X116505011Y-66394989D02*
X116450001Y-66449999D01*
D29*
X137345000Y-57455000D02*
X136845000Y-56955000D01*
X136845000Y-56955000D02*
X136845000Y-54415000D01*
X136845000Y-54415000D02*
X136845000Y-51875000D01*
X136845000Y-51875000D02*
X136845000Y-49335000D01*
X136845000Y-49335000D02*
X136845000Y-46795000D01*
X136845000Y-46795000D02*
X136845000Y-44255000D01*
X137695000Y-63353630D02*
X137695000Y-61185000D01*
X131985000Y-70195000D02*
X131985000Y-69063630D01*
X131985000Y-69063630D02*
X137695000Y-63353630D01*
X137695000Y-57805000D02*
X136845000Y-56955000D01*
X137695000Y-61185000D02*
X137695000Y-57805000D01*
X117855000Y-45915000D02*
X117815000Y-45955000D01*
X117855000Y-42355000D02*
X117855000Y-45915000D01*
X117815000Y-49525000D02*
X117845000Y-49555000D01*
X117815000Y-45955000D02*
X117815000Y-49525000D01*
X117845000Y-52755000D02*
X117745000Y-52855000D01*
X117845000Y-49555000D02*
X117845000Y-52755000D01*
X117745000Y-52855000D02*
X117745000Y-56555000D01*
D30*
X124452999Y-58455001D02*
X127021173Y-58455001D01*
X117745000Y-56555000D02*
X122552998Y-56555000D01*
X122552998Y-56555000D02*
X124452999Y-58455001D01*
X128425001Y-57754999D02*
X129225000Y-56955000D01*
X127721175Y-57754999D02*
X128425001Y-57754999D01*
X127021173Y-58455001D02*
X127721175Y-57754999D01*
D29*
X115765000Y-50875000D02*
X117745000Y-52855000D01*
D30*
X84925000Y-96575000D02*
X81875000Y-93525000D01*
X81875000Y-93525000D02*
X80575000Y-93525000D01*
X85565188Y-96575000D02*
X84925000Y-96575000D01*
D31*
X80560000Y-93510000D02*
X78450000Y-93510000D01*
X80575000Y-93525000D02*
X80560000Y-93510000D01*
D29*
X115740000Y-50900000D02*
X115765000Y-50875000D01*
X106625000Y-50900000D02*
X115740000Y-50900000D01*
X105324989Y-75409587D02*
X105324989Y-59950011D01*
X105350010Y-75434608D02*
X105324989Y-75409587D01*
X85565188Y-96575000D02*
X93879654Y-96575000D01*
X93879654Y-96575000D02*
X96025000Y-94429654D01*
X105324989Y-59950011D02*
X105650511Y-59624489D01*
X96025000Y-94429654D02*
X96025000Y-88694998D01*
X105650511Y-59624489D02*
X106650000Y-58625000D01*
X96025000Y-88694998D02*
X97394998Y-87325000D01*
X105350010Y-76229412D02*
X105350010Y-82174990D01*
X105324989Y-75409587D02*
X105324989Y-76204391D01*
X105324989Y-76204391D02*
X105350010Y-76229412D01*
X100200000Y-87325000D02*
X97394998Y-87325000D01*
X105350010Y-82174990D02*
X100200000Y-87325000D01*
X126516998Y-56555000D02*
X125365000Y-56555000D01*
X127253630Y-55818368D02*
X126516998Y-56555000D01*
X127253630Y-55255000D02*
X127253630Y-55818368D01*
X129225000Y-54415000D02*
X128093630Y-54415000D01*
X128093630Y-54415000D02*
X127253630Y-55255000D01*
X128093630Y-51875000D02*
X127113630Y-52855000D01*
X129225000Y-51875000D02*
X128093630Y-51875000D01*
X127113630Y-52855000D02*
X125365000Y-52855000D01*
X125685000Y-49335000D02*
X125465000Y-49555000D01*
X129225000Y-49335000D02*
X125685000Y-49335000D01*
X129225000Y-46795000D02*
X127985000Y-46795000D01*
X127145000Y-45955000D02*
X125435000Y-45955000D01*
X127985000Y-46795000D02*
X127145000Y-45955000D01*
X127325000Y-42355000D02*
X129225000Y-44255000D01*
X125475000Y-42355000D02*
X127325000Y-42355000D01*
D32*
X67599990Y-91999990D02*
X70315010Y-94715010D01*
X71600000Y-47975000D02*
X71600000Y-54720998D01*
X71600000Y-54720998D02*
X67724990Y-58596008D01*
X71660172Y-94840010D02*
X73500000Y-94840010D01*
X67724990Y-92124990D02*
X70440010Y-94840010D01*
X70440010Y-94840010D02*
X71660172Y-94840010D01*
X67950000Y-66000000D02*
X71550000Y-66000000D01*
X67724990Y-65774990D02*
X67950000Y-66000000D01*
X67724990Y-65774990D02*
X67724990Y-92124990D01*
X67724990Y-58596008D02*
X67724990Y-65774990D01*
D29*
X97575000Y-68309949D02*
X97500000Y-68384949D01*
X97575000Y-67320000D02*
X97575000Y-68309949D01*
X97500000Y-78750000D02*
X98925000Y-80175000D01*
X97500000Y-68384949D02*
X97500000Y-78750000D01*
X73075000Y-67525000D02*
X71550000Y-66000000D01*
X97825001Y-79075001D02*
X89499003Y-79075001D01*
X84974003Y-74550001D02*
X77075001Y-74550001D01*
X89499003Y-79075001D02*
X84974003Y-74550001D01*
X98925000Y-80175000D02*
X97825001Y-79075001D01*
X73075000Y-70550000D02*
X73075000Y-67525000D01*
X94400000Y-67320000D02*
X97575000Y-67320000D01*
X72590000Y-46985000D02*
X71600000Y-47975000D01*
X72590000Y-43325000D02*
X72590000Y-46985000D01*
X73075000Y-70550000D02*
X77075001Y-74550001D01*
X101325000Y-63475000D02*
X101425000Y-63375000D01*
X101300000Y-68975000D02*
X101300000Y-74725000D01*
X101300000Y-74725000D02*
X103550000Y-76975000D01*
X103550000Y-76975000D02*
X103550000Y-79325000D01*
X100299999Y-82575001D02*
X97325001Y-82575001D01*
X103550000Y-79325000D02*
X100299999Y-82575001D01*
X83750000Y-78000000D02*
X86850000Y-81100000D01*
X95850000Y-81100000D02*
X97325001Y-82575001D01*
X86850000Y-81100000D02*
X95850000Y-81100000D01*
X82725000Y-46900000D02*
X82725000Y-43650000D01*
X83800000Y-47975000D02*
X82725000Y-46900000D01*
X88550000Y-50300000D02*
X86225000Y-47975000D01*
X93604654Y-50300000D02*
X88550000Y-50300000D01*
X101375000Y-59129402D02*
X98950001Y-56704403D01*
X86225000Y-47975000D02*
X83800000Y-47975000D01*
X98950001Y-56704403D02*
X98950001Y-53641999D01*
X98950001Y-53641999D02*
X96158002Y-50850000D01*
X101375000Y-62725000D02*
X101375000Y-59129402D01*
X96158002Y-50850000D02*
X94154654Y-50850000D01*
X94154654Y-50850000D02*
X93604654Y-50300000D01*
D30*
X101300000Y-62800000D02*
X101375000Y-62725000D01*
X101300000Y-68975000D02*
X101300000Y-62800000D01*
D32*
X73500000Y-86982234D02*
X73500000Y-90909990D01*
X71525000Y-86775000D02*
X73292766Y-86775000D01*
X73292766Y-86775000D02*
X73500000Y-86982234D01*
D29*
X108750000Y-86050000D02*
X108750000Y-89575000D01*
X110525000Y-84275000D02*
X108750000Y-86050000D01*
X104416998Y-86050000D02*
X108750000Y-86050000D01*
X100131998Y-90335000D02*
X104416998Y-86050000D01*
X98925000Y-90335000D02*
X100131998Y-90335000D01*
D33*
G36*
X100530415Y-38949255D02*
G01*
X99820343Y-39564536D01*
X99239546Y-40303080D01*
X98809014Y-41138194D01*
X98544310Y-42039695D01*
X98454999Y-42975000D01*
X98544310Y-43910305D01*
X98809014Y-44811806D01*
X99239546Y-45646920D01*
X99820343Y-46385464D01*
X100530415Y-47000745D01*
X101344098Y-47470525D01*
X102231982Y-47777825D01*
X103161979Y-47911538D01*
X104100474Y-47866832D01*
X105013549Y-47645323D01*
X105868203Y-47255015D01*
X106633546Y-46710017D01*
X107281916Y-46030026D01*
X107789881Y-45239618D01*
X108139080Y-44367361D01*
X108316893Y-43444780D01*
X108316893Y-42505220D01*
X108139080Y-41582639D01*
X107819679Y-40784813D01*
X107941699Y-40784813D01*
X108030701Y-41028835D01*
X108165599Y-41250805D01*
X108341209Y-41442193D01*
X108550783Y-41595643D01*
X108786266Y-41705259D01*
X108895188Y-41738296D01*
X109100000Y-41617046D01*
X109100000Y-40580000D01*
X109350000Y-40580000D01*
X109350000Y-41617046D01*
X109554812Y-41738296D01*
X109663734Y-41705259D01*
X109899217Y-41595643D01*
X110108791Y-41442193D01*
X110284401Y-41250805D01*
X110419299Y-41028835D01*
X110508301Y-40784813D01*
X110484241Y-40743903D01*
X111594763Y-40743903D01*
X111635686Y-41021604D01*
X111730000Y-41285986D01*
X111797521Y-41412307D01*
X112038935Y-41484288D01*
X112848223Y-40675000D01*
X112038935Y-39865712D01*
X111797521Y-39937693D01*
X111677265Y-40191330D01*
X111608802Y-40463553D01*
X111594763Y-40743903D01*
X110484241Y-40743903D01*
X110387846Y-40580000D01*
X109350000Y-40580000D01*
X109100000Y-40580000D01*
X108062154Y-40580000D01*
X107941699Y-40784813D01*
X107819679Y-40784813D01*
X107789881Y-40710382D01*
X107413799Y-40125187D01*
X107941699Y-40125187D01*
X108062154Y-40330000D01*
X109100000Y-40330000D01*
X109100000Y-39292954D01*
X109350000Y-39292954D01*
X109350000Y-40330000D01*
X110387846Y-40330000D01*
X110508301Y-40125187D01*
X110419299Y-39881165D01*
X110302475Y-39688935D01*
X112215712Y-39688935D01*
X113025000Y-40498223D01*
X113834288Y-39688935D01*
X113762307Y-39447521D01*
X113508670Y-39327265D01*
X113236447Y-39258802D01*
X112956097Y-39244763D01*
X112678396Y-39285686D01*
X112414014Y-39380000D01*
X112287693Y-39447521D01*
X112215712Y-39688935D01*
X110302475Y-39688935D01*
X110284401Y-39659195D01*
X110108791Y-39467807D01*
X109899217Y-39314357D01*
X109663734Y-39204741D01*
X109554812Y-39171704D01*
X109350000Y-39292954D01*
X109100000Y-39292954D01*
X108895188Y-39171704D01*
X108786266Y-39204741D01*
X108550783Y-39314357D01*
X108341209Y-39467807D01*
X108165599Y-39659195D01*
X108030701Y-39881165D01*
X107941699Y-40125187D01*
X107413799Y-40125187D01*
X107281916Y-39919974D01*
X106633546Y-39239983D01*
X106191214Y-38925000D01*
X140475001Y-38925000D01*
X140475000Y-103136500D01*
X118401191Y-103136500D01*
X118401191Y-105025000D01*
X106233013Y-105025000D01*
X106725485Y-104674312D01*
X107381144Y-103986677D01*
X107894819Y-103187383D01*
X108247943Y-102305321D01*
X108427755Y-101372369D01*
X108427755Y-100422247D01*
X108247943Y-99489295D01*
X108234880Y-99456665D01*
X109628412Y-99456665D01*
X109700393Y-99698079D01*
X109954030Y-99818335D01*
X110226253Y-99886798D01*
X110506603Y-99900837D01*
X110784304Y-99859914D01*
X111048686Y-99765600D01*
X111175007Y-99698079D01*
X111246988Y-99456665D01*
X110437700Y-98647377D01*
X109628412Y-99456665D01*
X108234880Y-99456665D01*
X107894819Y-98607233D01*
X107851292Y-98539503D01*
X109007463Y-98539503D01*
X109048386Y-98817204D01*
X109142700Y-99081586D01*
X109210221Y-99207907D01*
X109451635Y-99279888D01*
X110260923Y-98470600D01*
X109451635Y-97661312D01*
X109210221Y-97733293D01*
X109089965Y-97986930D01*
X109021502Y-98259153D01*
X109007463Y-98539503D01*
X107851292Y-98539503D01*
X107381144Y-97807939D01*
X106725485Y-97120304D01*
X105951539Y-96569179D01*
X105087277Y-96174484D01*
X104163938Y-95950484D01*
X103214892Y-95905276D01*
X102274441Y-96040492D01*
X101376575Y-96351247D01*
X100553746Y-96826307D01*
X99835691Y-97448505D01*
X99248365Y-98195351D01*
X98812994Y-99039853D01*
X98545314Y-99951488D01*
X98454999Y-100897308D01*
X98545314Y-101843128D01*
X98812994Y-102754763D01*
X99248365Y-103599265D01*
X99835691Y-104346111D01*
X100553746Y-104968309D01*
X100651938Y-105025000D01*
X64375000Y-105025000D01*
X64375000Y-91999990D01*
X65163258Y-91999990D01*
X65210079Y-92475372D01*
X65348743Y-92932487D01*
X65573921Y-93353766D01*
X65801020Y-93630487D01*
X65926026Y-93755493D01*
X66001961Y-93848020D01*
X66094487Y-93923954D01*
X67370532Y-95200000D01*
X68641045Y-96470513D01*
X68716980Y-96563040D01*
X68809507Y-96638975D01*
X68809512Y-96638980D01*
X69086233Y-96866079D01*
X69273653Y-96966257D01*
X69507513Y-97091258D01*
X69964627Y-97229922D01*
X69978239Y-97231263D01*
X69707804Y-97560788D01*
X69505840Y-97938637D01*
X69381471Y-98348626D01*
X69339477Y-98775000D01*
X69381471Y-99201374D01*
X69505840Y-99611363D01*
X69707804Y-99989212D01*
X69979602Y-100320398D01*
X70310788Y-100592196D01*
X70688637Y-100794160D01*
X71098626Y-100918529D01*
X71418158Y-100950000D01*
X71631842Y-100950000D01*
X71951374Y-100918529D01*
X72361363Y-100794160D01*
X72739212Y-100592196D01*
X73070398Y-100320398D01*
X73342196Y-99989212D01*
X73544160Y-99611363D01*
X73668529Y-99201374D01*
X73710523Y-98775000D01*
X73668529Y-98348626D01*
X73544160Y-97938637D01*
X73342196Y-97560788D01*
X73099457Y-97265010D01*
X73619128Y-97265010D01*
X73975383Y-97229922D01*
X74432497Y-97091258D01*
X74853776Y-96866079D01*
X75223030Y-96563040D01*
X75526069Y-96193786D01*
X75751248Y-95772507D01*
X75889912Y-95315393D01*
X75936733Y-94840010D01*
X75889912Y-94364627D01*
X75751248Y-93907513D01*
X75526069Y-93486234D01*
X75402021Y-93335081D01*
X75383733Y-93149405D01*
X75322305Y-92946903D01*
X75283872Y-92875000D01*
X75322305Y-92803097D01*
X75383733Y-92600595D01*
X75402021Y-92414919D01*
X75526069Y-92263766D01*
X75751248Y-91842487D01*
X75889912Y-91385373D01*
X75925000Y-91029118D01*
X75925000Y-90670000D01*
X76846976Y-90670000D01*
X76850000Y-90688750D01*
X77006250Y-90845000D01*
X78325000Y-90845000D01*
X78325000Y-90201250D01*
X78575000Y-90201250D01*
X78575000Y-90845000D01*
X79893750Y-90845000D01*
X80050000Y-90688750D01*
X80053024Y-90670000D01*
X80040957Y-90547479D01*
X80005219Y-90429666D01*
X79947183Y-90321089D01*
X79869080Y-90225920D01*
X79773911Y-90147817D01*
X79665334Y-90089781D01*
X79547521Y-90054043D01*
X79425000Y-90041976D01*
X78731250Y-90045000D01*
X78575000Y-90201250D01*
X78325000Y-90201250D01*
X78168750Y-90045000D01*
X77475000Y-90041976D01*
X77352479Y-90054043D01*
X77234666Y-90089781D01*
X77126089Y-90147817D01*
X77030920Y-90225920D01*
X76952817Y-90321089D01*
X76894781Y-90429666D01*
X76859043Y-90547479D01*
X76846976Y-90670000D01*
X75925000Y-90670000D01*
X75925000Y-87101350D01*
X75936732Y-86982233D01*
X75925000Y-86863116D01*
X75925000Y-86863106D01*
X75889912Y-86506851D01*
X75751248Y-86049737D01*
X75526069Y-85628458D01*
X75223030Y-85259204D01*
X75130499Y-85183266D01*
X75091735Y-85144502D01*
X75015796Y-85051970D01*
X74901055Y-84957804D01*
X74646542Y-84748931D01*
X74225263Y-84523752D01*
X73768149Y-84385088D01*
X73411894Y-84350000D01*
X73411883Y-84350000D01*
X73292766Y-84338268D01*
X73173649Y-84350000D01*
X71405872Y-84350000D01*
X71049617Y-84385088D01*
X70592503Y-84523752D01*
X70171224Y-84748931D01*
X70149990Y-84766357D01*
X70149990Y-83411065D01*
X74815712Y-83411065D01*
X74887693Y-83652479D01*
X75141330Y-83772735D01*
X75413553Y-83841198D01*
X75693903Y-83855237D01*
X75971604Y-83814314D01*
X76235986Y-83720000D01*
X76362307Y-83652479D01*
X76434288Y-83411065D01*
X75625000Y-82601777D01*
X74815712Y-83411065D01*
X70149990Y-83411065D01*
X70149990Y-82493903D01*
X74194763Y-82493903D01*
X74235686Y-82771604D01*
X74330000Y-83035986D01*
X74397521Y-83162307D01*
X74638935Y-83234288D01*
X75448223Y-82425000D01*
X75801777Y-82425000D01*
X76611065Y-83234288D01*
X76852479Y-83162307D01*
X76972735Y-82908670D01*
X77041198Y-82636447D01*
X77055237Y-82356097D01*
X77014314Y-82078396D01*
X76920000Y-81814014D01*
X76852479Y-81687693D01*
X76611065Y-81615712D01*
X75801777Y-82425000D01*
X75448223Y-82425000D01*
X74638935Y-81615712D01*
X74397521Y-81687693D01*
X74277265Y-81941330D01*
X74208802Y-82213553D01*
X74194763Y-82493903D01*
X70149990Y-82493903D01*
X70149990Y-81438935D01*
X74815712Y-81438935D01*
X75625000Y-82248223D01*
X76434288Y-81438935D01*
X76362307Y-81197521D01*
X76108670Y-81077265D01*
X75836447Y-81008802D01*
X75556097Y-80994763D01*
X75278396Y-81035686D01*
X75014014Y-81130000D01*
X74887693Y-81197521D01*
X74815712Y-81438935D01*
X70149990Y-81438935D01*
X70149990Y-79233709D01*
X70261056Y-79361712D01*
X70551480Y-79587008D01*
X70880276Y-79751316D01*
X71133877Y-79828242D01*
X71425000Y-79714199D01*
X71425000Y-78125000D01*
X71675000Y-78125000D01*
X71675000Y-79714199D01*
X71966123Y-79828242D01*
X72219724Y-79751316D01*
X72548520Y-79587008D01*
X72838944Y-79361712D01*
X73079834Y-79084087D01*
X73261934Y-78764801D01*
X73378245Y-78416124D01*
X73264582Y-78125000D01*
X71675000Y-78125000D01*
X71425000Y-78125000D01*
X71405000Y-78125000D01*
X71405000Y-77875000D01*
X71425000Y-77875000D01*
X71425000Y-76285801D01*
X71675000Y-76285801D01*
X71675000Y-77875000D01*
X73264582Y-77875000D01*
X73378245Y-77583876D01*
X73261934Y-77235199D01*
X73079834Y-76915913D01*
X72838944Y-76638288D01*
X72548520Y-76412992D01*
X72219724Y-76248684D01*
X71966123Y-76171758D01*
X71675000Y-76285801D01*
X71425000Y-76285801D01*
X71133877Y-76171758D01*
X70880276Y-76248684D01*
X70551480Y-76412992D01*
X70261056Y-76638288D01*
X70149990Y-76766291D01*
X70149990Y-68425000D01*
X71650001Y-68425000D01*
X71650000Y-70480005D01*
X71643106Y-70550000D01*
X71650000Y-70619994D01*
X71650000Y-70619996D01*
X71670619Y-70829348D01*
X71752102Y-71097961D01*
X71884424Y-71345517D01*
X72062498Y-71562501D01*
X72116871Y-71607124D01*
X76017877Y-75508131D01*
X76062499Y-75562503D01*
X76116869Y-75607123D01*
X76279483Y-75740578D01*
X76527038Y-75872899D01*
X76577753Y-75888283D01*
X76795652Y-75954382D01*
X77005004Y-75975001D01*
X77005007Y-75975001D01*
X77075001Y-75981895D01*
X77144995Y-75975001D01*
X82932886Y-75975001D01*
X82913637Y-75980840D01*
X82535788Y-76182804D01*
X82204602Y-76454602D01*
X81932804Y-76785788D01*
X81730840Y-77163637D01*
X81606471Y-77573626D01*
X81564477Y-78000000D01*
X81606471Y-78426374D01*
X81730840Y-78836363D01*
X81932804Y-79214212D01*
X82204602Y-79545398D01*
X82535788Y-79817196D01*
X82913637Y-80019160D01*
X83323626Y-80143529D01*
X83643158Y-80175000D01*
X83856842Y-80175000D01*
X83905003Y-80170257D01*
X85792876Y-82058130D01*
X85837498Y-82112502D01*
X86054482Y-82290576D01*
X86302038Y-82422898D01*
X86570651Y-82504381D01*
X86780003Y-82525000D01*
X86780005Y-82525000D01*
X86849999Y-82531894D01*
X86919994Y-82525000D01*
X89927723Y-82525000D01*
X89819749Y-82597146D01*
X89447146Y-82969749D01*
X89154393Y-83407884D01*
X88952742Y-83894714D01*
X88849940Y-84411530D01*
X88849940Y-84938470D01*
X88915697Y-85269050D01*
X88834747Y-85350000D01*
X85369206Y-85350000D01*
X85270398Y-85229602D01*
X84939212Y-84957804D01*
X84561363Y-84755840D01*
X84151374Y-84631471D01*
X83831842Y-84600000D01*
X83618158Y-84600000D01*
X83298626Y-84631471D01*
X82888637Y-84755840D01*
X82510788Y-84957804D01*
X82179602Y-85229602D01*
X82050000Y-85387522D01*
X82050000Y-83397256D01*
X82153676Y-83242094D01*
X82283710Y-82928164D01*
X82350000Y-82594898D01*
X82350000Y-82255102D01*
X82283710Y-81921836D01*
X82153676Y-81607906D01*
X81964895Y-81325376D01*
X81724624Y-81085105D01*
X81442094Y-80896324D01*
X81128164Y-80766290D01*
X80794898Y-80700000D01*
X80455102Y-80700000D01*
X80121836Y-80766290D01*
X79807906Y-80896324D01*
X79525376Y-81085105D01*
X79285105Y-81325376D01*
X79096324Y-81607906D01*
X78966290Y-81921836D01*
X78900000Y-82255102D01*
X78900000Y-82594898D01*
X78966290Y-82928164D01*
X79096324Y-83242094D01*
X79200001Y-83397257D01*
X79200000Y-88605005D01*
X79193106Y-88675000D01*
X79200000Y-88744994D01*
X79200000Y-88744996D01*
X79220619Y-88954348D01*
X79302102Y-89222961D01*
X79434424Y-89470517D01*
X79612498Y-89687501D01*
X79666870Y-89732123D01*
X80750000Y-90815255D01*
X80750000Y-90999990D01*
X79600176Y-90999990D01*
X79540009Y-90994064D01*
X79479842Y-90999990D01*
X79479832Y-90999990D01*
X79327434Y-91015000D01*
X79320435Y-91015000D01*
X79275000Y-91010525D01*
X77625000Y-91010525D01*
X77414405Y-91031267D01*
X77211903Y-91092695D01*
X77207591Y-91095000D01*
X77006250Y-91095000D01*
X76850000Y-91251250D01*
X76846976Y-91270000D01*
X76853539Y-91336635D01*
X76727449Y-91490276D01*
X76627695Y-91676903D01*
X76566267Y-91879405D01*
X76545525Y-92090000D01*
X76545525Y-92390000D01*
X76566267Y-92600595D01*
X76627695Y-92803097D01*
X76666128Y-92875000D01*
X76627695Y-92946903D01*
X76566267Y-93149405D01*
X76545525Y-93360000D01*
X76545525Y-93660000D01*
X76566267Y-93870595D01*
X76627695Y-94073097D01*
X76666128Y-94145000D01*
X76627695Y-94216903D01*
X76566267Y-94419405D01*
X76545525Y-94630000D01*
X76545525Y-94930000D01*
X76566267Y-95140595D01*
X76627695Y-95343097D01*
X76727449Y-95529724D01*
X76861696Y-95693304D01*
X77025000Y-95827325D01*
X77025001Y-100829996D01*
X77018106Y-100900000D01*
X77045620Y-101179348D01*
X77127103Y-101447962D01*
X77250782Y-101679348D01*
X77259425Y-101695518D01*
X77437499Y-101912502D01*
X77491870Y-101957123D01*
X79717876Y-104183130D01*
X79762498Y-104237502D01*
X79816868Y-104282122D01*
X79979482Y-104415577D01*
X80227037Y-104547898D01*
X80277752Y-104563282D01*
X80495651Y-104629381D01*
X80705003Y-104650000D01*
X80705006Y-104650000D01*
X80775000Y-104656894D01*
X80844994Y-104650000D01*
X95055006Y-104650000D01*
X95125000Y-104656894D01*
X95194994Y-104650000D01*
X95194997Y-104650000D01*
X95404349Y-104629381D01*
X95672962Y-104547898D01*
X95920518Y-104415576D01*
X96137502Y-104237502D01*
X96182128Y-104183125D01*
X97908135Y-102457119D01*
X97962501Y-102412502D01*
X98050463Y-102305321D01*
X98140577Y-102195518D01*
X98272897Y-101947963D01*
X98272898Y-101947962D01*
X98354381Y-101679349D01*
X98375000Y-101469997D01*
X98375000Y-101469995D01*
X98381894Y-101400000D01*
X98375000Y-101330006D01*
X98375000Y-98448832D01*
X99440887Y-97382945D01*
X99491450Y-97341450D01*
X99657028Y-97139692D01*
X99780063Y-96909509D01*
X99813920Y-96797898D01*
X99855828Y-96659746D01*
X99881411Y-96400000D01*
X99876248Y-96347584D01*
X100373833Y-95850000D01*
X100459909Y-95850000D01*
X100525000Y-95856411D01*
X100590091Y-95850000D01*
X100784745Y-95830828D01*
X101034509Y-95755063D01*
X101264692Y-95632028D01*
X101466450Y-95466450D01*
X101507950Y-95415882D01*
X101748832Y-95175000D01*
X102960481Y-95175000D01*
X102975376Y-95189895D01*
X103257906Y-95378676D01*
X103571836Y-95508710D01*
X103905102Y-95575000D01*
X104244898Y-95575000D01*
X104578164Y-95508710D01*
X104892094Y-95378676D01*
X105174624Y-95189895D01*
X105189519Y-95175000D01*
X108419000Y-95175000D01*
X108447125Y-95227618D01*
X108580579Y-95390232D01*
X108742584Y-95552237D01*
X108778990Y-95735264D01*
X108909024Y-96049194D01*
X109097805Y-96331724D01*
X109338076Y-96571995D01*
X109620606Y-96760776D01*
X109934536Y-96890810D01*
X110117561Y-96927216D01*
X110248444Y-97058099D01*
X110091096Y-97081286D01*
X109826714Y-97175600D01*
X109700393Y-97243121D01*
X109628412Y-97484535D01*
X110437700Y-98293823D01*
X110451842Y-98279681D01*
X110628619Y-98456458D01*
X110614477Y-98470600D01*
X111423765Y-99279888D01*
X111665179Y-99207907D01*
X111785435Y-98954270D01*
X111853898Y-98682047D01*
X111867937Y-98401697D01*
X111827014Y-98123996D01*
X111732700Y-97859614D01*
X111665179Y-97733293D01*
X111553519Y-97700000D01*
X114255005Y-97700000D01*
X114324999Y-97706894D01*
X114394993Y-97700000D01*
X114394996Y-97700000D01*
X114604348Y-97679381D01*
X114872961Y-97597898D01*
X115120517Y-97465576D01*
X115337501Y-97287502D01*
X115382126Y-97233126D01*
X116307478Y-96307776D01*
X116352170Y-96391389D01*
X116467762Y-96532238D01*
X116608611Y-96647830D01*
X116769305Y-96733723D01*
X116943668Y-96786615D01*
X117125000Y-96804475D01*
X117664222Y-96804475D01*
X119165697Y-98305951D01*
X119099940Y-98636530D01*
X119099940Y-99163470D01*
X119202742Y-99680286D01*
X119404393Y-100167116D01*
X119697146Y-100605251D01*
X120069749Y-100977854D01*
X120507884Y-101270607D01*
X120994714Y-101472258D01*
X121511530Y-101575060D01*
X122038470Y-101575060D01*
X122555286Y-101472258D01*
X123042116Y-101270607D01*
X123480251Y-100977854D01*
X123852854Y-100605251D01*
X124145607Y-100167116D01*
X124347258Y-99680286D01*
X124450060Y-99163470D01*
X124450060Y-98636530D01*
X124347258Y-98119714D01*
X124145607Y-97632884D01*
X123852854Y-97194749D01*
X123480251Y-96822146D01*
X123042116Y-96529393D01*
X122555286Y-96327742D01*
X122038470Y-96224940D01*
X121511530Y-96224940D01*
X121180951Y-96290697D01*
X120310775Y-95420521D01*
X124162524Y-95420521D01*
X124203547Y-95555773D01*
X124323117Y-95808240D01*
X124489643Y-96032529D01*
X124696726Y-96220020D01*
X124936408Y-96363509D01*
X125199478Y-96457481D01*
X125420000Y-96338262D01*
X125420000Y-95200000D01*
X125670000Y-95200000D01*
X125670000Y-96338262D01*
X125890522Y-96457481D01*
X126153592Y-96363509D01*
X126393274Y-96220020D01*
X126600357Y-96032529D01*
X126766883Y-95808240D01*
X126886453Y-95555773D01*
X126927476Y-95420521D01*
X126807577Y-95200000D01*
X125670000Y-95200000D01*
X125420000Y-95200000D01*
X124282423Y-95200000D01*
X124162524Y-95420521D01*
X120310775Y-95420521D01*
X119654475Y-94764222D01*
X119654475Y-94729479D01*
X124162524Y-94729479D01*
X124282423Y-94950000D01*
X125420000Y-94950000D01*
X125420000Y-93811738D01*
X125670000Y-93811738D01*
X125670000Y-94950000D01*
X126807577Y-94950000D01*
X126927476Y-94729479D01*
X126886453Y-94594227D01*
X126766883Y-94341760D01*
X126600357Y-94117471D01*
X126393274Y-93929980D01*
X126153592Y-93786491D01*
X125890522Y-93692519D01*
X125670000Y-93811738D01*
X125420000Y-93811738D01*
X125199478Y-93692519D01*
X124936408Y-93786491D01*
X124696726Y-93929980D01*
X124489643Y-94117471D01*
X124323117Y-94341760D01*
X124203547Y-94594227D01*
X124162524Y-94729479D01*
X119654475Y-94729479D01*
X119654475Y-94275000D01*
X119636615Y-94093668D01*
X119583723Y-93919305D01*
X119497830Y-93758611D01*
X119382238Y-93617762D01*
X119350000Y-93591305D01*
X119350000Y-91858695D01*
X119382238Y-91832238D01*
X119497830Y-91691389D01*
X119583723Y-91530695D01*
X119636615Y-91356332D01*
X119654475Y-91175000D01*
X119654475Y-89575000D01*
X119636615Y-89393668D01*
X119583723Y-89219305D01*
X119497830Y-89058611D01*
X119382238Y-88917762D01*
X119350000Y-88891305D01*
X119350000Y-87739654D01*
X119387552Y-87648995D01*
X119450000Y-87335049D01*
X119450000Y-87014951D01*
X119387552Y-86701005D01*
X119265057Y-86405274D01*
X119087220Y-86139123D01*
X119009045Y-86060948D01*
X119156694Y-85982028D01*
X119358452Y-85816450D01*
X119399951Y-85765883D01*
X120795890Y-84369945D01*
X120846451Y-84328451D01*
X121012029Y-84126693D01*
X121135064Y-83896510D01*
X121210829Y-83646746D01*
X121230001Y-83452092D01*
X121230001Y-83452091D01*
X121236412Y-83387002D01*
X121230001Y-83321913D01*
X121230001Y-83245165D01*
X122215902Y-82259265D01*
X122266459Y-82217774D01*
X122316385Y-82156939D01*
X122432037Y-82016017D01*
X122555073Y-81785833D01*
X122630838Y-81536070D01*
X122656421Y-81276324D01*
X122650009Y-81211223D01*
X122650011Y-77423822D01*
X123515890Y-76557943D01*
X123566451Y-76516449D01*
X123732029Y-76314691D01*
X123855064Y-76084508D01*
X123930829Y-75834744D01*
X123950001Y-75640090D01*
X123950001Y-75640089D01*
X123956412Y-75575000D01*
X123950001Y-75509911D01*
X123950001Y-74523831D01*
X124275505Y-74198327D01*
X124208802Y-74463553D01*
X124194763Y-74743903D01*
X124235686Y-75021604D01*
X124330000Y-75285986D01*
X124397521Y-75412307D01*
X124638935Y-75484288D01*
X125448223Y-74675000D01*
X125434081Y-74660858D01*
X125610858Y-74484081D01*
X125625000Y-74498223D01*
X125639142Y-74484081D01*
X125815919Y-74660858D01*
X125801777Y-74675000D01*
X125815919Y-74689142D01*
X125639142Y-74865919D01*
X125625000Y-74851777D01*
X124815712Y-75661065D01*
X124887693Y-75902479D01*
X125141330Y-76022735D01*
X125413553Y-76091198D01*
X125693903Y-76105237D01*
X125971604Y-76064314D01*
X126235986Y-75970000D01*
X126320473Y-75924840D01*
X126274161Y-76077511D01*
X126248578Y-76337256D01*
X126254989Y-76402347D01*
X126254989Y-77277062D01*
X126098995Y-77212448D01*
X125785049Y-77150000D01*
X125464951Y-77150000D01*
X125151005Y-77212448D01*
X124855274Y-77334943D01*
X124589123Y-77512780D01*
X124362780Y-77739123D01*
X124184943Y-78005274D01*
X124062448Y-78301005D01*
X124000000Y-78614951D01*
X124000000Y-78935049D01*
X124062448Y-79248995D01*
X124184943Y-79544726D01*
X124200001Y-79567262D01*
X124200000Y-81682739D01*
X124184943Y-81705274D01*
X124062448Y-82001005D01*
X124022045Y-82204122D01*
X122654112Y-83572056D01*
X122603550Y-83613551D01*
X122472642Y-83773063D01*
X122437972Y-83815309D01*
X122314936Y-84045493D01*
X122239171Y-84295256D01*
X122213588Y-84555001D01*
X122220000Y-84620102D01*
X122219999Y-88309908D01*
X122213588Y-88374999D01*
X122239171Y-88634744D01*
X122289289Y-88799960D01*
X122314936Y-88884507D01*
X122437971Y-89114690D01*
X122603549Y-89316449D01*
X122654117Y-89357949D01*
X123827003Y-90530835D01*
X123844960Y-90713159D01*
X123943597Y-91038323D01*
X124103775Y-91337995D01*
X124319339Y-91600661D01*
X124582005Y-91816225D01*
X124881677Y-91976403D01*
X125206841Y-92075040D01*
X125460262Y-92100000D01*
X125629738Y-92100000D01*
X125883159Y-92075040D01*
X126208323Y-91976403D01*
X126507995Y-91816225D01*
X126770661Y-91600661D01*
X126986225Y-91337995D01*
X127146403Y-91038323D01*
X127245040Y-90713159D01*
X127278346Y-90375000D01*
X127245040Y-90036841D01*
X127146403Y-89711677D01*
X126986225Y-89412005D01*
X126770661Y-89149339D01*
X126507995Y-88933775D01*
X126208323Y-88773597D01*
X125883159Y-88674960D01*
X125700835Y-88657003D01*
X125543832Y-88500000D01*
X125570002Y-88500000D01*
X125570002Y-88337847D01*
X125774813Y-88458301D01*
X126018835Y-88369299D01*
X126240805Y-88234401D01*
X126432193Y-88058791D01*
X126585643Y-87849217D01*
X126695259Y-87613734D01*
X126728296Y-87504812D01*
X126607046Y-87300000D01*
X125570000Y-87300000D01*
X125570000Y-87320000D01*
X125320000Y-87320000D01*
X125320000Y-87300000D01*
X125300000Y-87300000D01*
X125300000Y-87050000D01*
X125320000Y-87050000D01*
X125320000Y-86012154D01*
X125570000Y-86012154D01*
X125570000Y-87050000D01*
X126607046Y-87050000D01*
X126728296Y-86845188D01*
X126695259Y-86736266D01*
X126585643Y-86500783D01*
X126432193Y-86291209D01*
X126240805Y-86115599D01*
X126018835Y-85980701D01*
X125774813Y-85891699D01*
X125570000Y-86012154D01*
X125320000Y-86012154D01*
X125115187Y-85891699D01*
X124871165Y-85980701D01*
X124869999Y-85981410D01*
X124869999Y-85103833D01*
X125782446Y-84191387D01*
X125904348Y-84179381D01*
X126172961Y-84097898D01*
X126420517Y-83965576D01*
X126637501Y-83787502D01*
X126760642Y-83637455D01*
X126818509Y-83579588D01*
X129129808Y-85890887D01*
X129171303Y-85941449D01*
X129373061Y-86107027D01*
X129543069Y-86197898D01*
X129603244Y-86230062D01*
X129720141Y-86265522D01*
X129559943Y-86505274D01*
X129437448Y-86801005D01*
X129375000Y-87114951D01*
X129375000Y-87435049D01*
X129437448Y-87748995D01*
X129559943Y-88044726D01*
X129575001Y-88067261D01*
X129575000Y-89016305D01*
X129542762Y-89042762D01*
X129427170Y-89183611D01*
X129341277Y-89344305D01*
X129288385Y-89518668D01*
X129270525Y-89700000D01*
X129270525Y-91300000D01*
X129288385Y-91481332D01*
X129341277Y-91655695D01*
X129427170Y-91816389D01*
X129542762Y-91957238D01*
X129575001Y-91983696D01*
X129575000Y-93716305D01*
X129542762Y-93742762D01*
X129427170Y-93883611D01*
X129341277Y-94044305D01*
X129288385Y-94218668D01*
X129270525Y-94400000D01*
X129270525Y-96000000D01*
X129288385Y-96181332D01*
X129341277Y-96355695D01*
X129427170Y-96516389D01*
X129542762Y-96657238D01*
X129683611Y-96772830D01*
X129844305Y-96858723D01*
X130018668Y-96911615D01*
X130200000Y-96929475D01*
X130439222Y-96929475D01*
X131915697Y-98405950D01*
X131849940Y-98736530D01*
X131849940Y-99263470D01*
X131952742Y-99780286D01*
X132154393Y-100267116D01*
X132447146Y-100705251D01*
X132819749Y-101077854D01*
X133257884Y-101370607D01*
X133744714Y-101572258D01*
X134261530Y-101675060D01*
X134788470Y-101675060D01*
X135305286Y-101572258D01*
X135792116Y-101370607D01*
X136230251Y-101077854D01*
X136602854Y-100705251D01*
X136895607Y-100267116D01*
X137097258Y-99780286D01*
X137200060Y-99263470D01*
X137200060Y-98736530D01*
X137097258Y-98219714D01*
X136895607Y-97732884D01*
X136602854Y-97294749D01*
X136230251Y-96922146D01*
X135792116Y-96629393D01*
X135305286Y-96427742D01*
X134788470Y-96324940D01*
X134261530Y-96324940D01*
X133930950Y-96390697D01*
X133085774Y-95545521D01*
X137237524Y-95545521D01*
X137278547Y-95680773D01*
X137398117Y-95933240D01*
X137564643Y-96157529D01*
X137771726Y-96345020D01*
X138011408Y-96488509D01*
X138274478Y-96582481D01*
X138495000Y-96463262D01*
X138495000Y-95325000D01*
X138745000Y-95325000D01*
X138745000Y-96463262D01*
X138965522Y-96582481D01*
X139228592Y-96488509D01*
X139468274Y-96345020D01*
X139675357Y-96157529D01*
X139841883Y-95933240D01*
X139961453Y-95680773D01*
X140002476Y-95545521D01*
X139882577Y-95325000D01*
X138745000Y-95325000D01*
X138495000Y-95325000D01*
X137357423Y-95325000D01*
X137237524Y-95545521D01*
X133085774Y-95545521D01*
X132729475Y-95189222D01*
X132729475Y-94854479D01*
X137237524Y-94854479D01*
X137357423Y-95075000D01*
X138495000Y-95075000D01*
X138495000Y-93936738D01*
X138745000Y-93936738D01*
X138745000Y-95075000D01*
X139882577Y-95075000D01*
X140002476Y-94854479D01*
X139961453Y-94719227D01*
X139841883Y-94466760D01*
X139675357Y-94242471D01*
X139468274Y-94054980D01*
X139228592Y-93911491D01*
X138965522Y-93817519D01*
X138745000Y-93936738D01*
X138495000Y-93936738D01*
X138274478Y-93817519D01*
X138011408Y-93911491D01*
X137771726Y-94054980D01*
X137564643Y-94242471D01*
X137398117Y-94466760D01*
X137278547Y-94719227D01*
X137237524Y-94854479D01*
X132729475Y-94854479D01*
X132729475Y-94400000D01*
X132711615Y-94218668D01*
X132658723Y-94044305D01*
X132572830Y-93883611D01*
X132457238Y-93742762D01*
X132425000Y-93716305D01*
X132425000Y-91983695D01*
X132457238Y-91957238D01*
X132572830Y-91816389D01*
X132658723Y-91655695D01*
X132711615Y-91481332D01*
X132729475Y-91300000D01*
X132729475Y-89700000D01*
X132711615Y-89518668D01*
X132658723Y-89344305D01*
X132572830Y-89183611D01*
X132457238Y-89042762D01*
X132425000Y-89016305D01*
X132425000Y-88067260D01*
X132440057Y-88044726D01*
X132562552Y-87748995D01*
X132625000Y-87435049D01*
X132625000Y-87114951D01*
X132562552Y-86801005D01*
X132440057Y-86505274D01*
X132284031Y-86271766D01*
X132421510Y-86230062D01*
X132651693Y-86107027D01*
X132853451Y-85941449D01*
X132894950Y-85890882D01*
X133870890Y-84914943D01*
X133921451Y-84873449D01*
X134087029Y-84671691D01*
X134149400Y-84555001D01*
X135188105Y-84555001D01*
X135195000Y-84625005D01*
X135194999Y-88430004D01*
X135188105Y-88499999D01*
X135194999Y-88569993D01*
X135194999Y-88569995D01*
X135215618Y-88779347D01*
X135297101Y-89047960D01*
X135429423Y-89295516D01*
X135607497Y-89512500D01*
X135661870Y-89557123D01*
X136917453Y-90812707D01*
X136919960Y-90838159D01*
X137018597Y-91163323D01*
X137178775Y-91462995D01*
X137394339Y-91725661D01*
X137657005Y-91941225D01*
X137956677Y-92101403D01*
X138281841Y-92200040D01*
X138535262Y-92225000D01*
X138704738Y-92225000D01*
X138958159Y-92200040D01*
X139283323Y-92101403D01*
X139582995Y-91941225D01*
X139845661Y-91725661D01*
X140061225Y-91462995D01*
X140221403Y-91163323D01*
X140320040Y-90838159D01*
X140353346Y-90500000D01*
X140320040Y-90161841D01*
X140221403Y-89836677D01*
X140061225Y-89537005D01*
X139845661Y-89274339D01*
X139582995Y-89058775D01*
X139283323Y-88898597D01*
X138958159Y-88799960D01*
X138932707Y-88797453D01*
X138735254Y-88600000D01*
X138745002Y-88600000D01*
X138745002Y-88437847D01*
X138949813Y-88558301D01*
X139193835Y-88469299D01*
X139415805Y-88334401D01*
X139607193Y-88158791D01*
X139760643Y-87949217D01*
X139870259Y-87713734D01*
X139903296Y-87604812D01*
X139782046Y-87400000D01*
X138745000Y-87400000D01*
X138745000Y-87420000D01*
X138495000Y-87420000D01*
X138495000Y-87400000D01*
X138475000Y-87400000D01*
X138475000Y-87150000D01*
X138495000Y-87150000D01*
X138495000Y-86112154D01*
X138745000Y-86112154D01*
X138745000Y-87150000D01*
X139782046Y-87150000D01*
X139903296Y-86945188D01*
X139870259Y-86836266D01*
X139760643Y-86600783D01*
X139607193Y-86391209D01*
X139415805Y-86215599D01*
X139193835Y-86080701D01*
X138949813Y-85991699D01*
X138745000Y-86112154D01*
X138495000Y-86112154D01*
X138290187Y-85991699D01*
X138046165Y-86080701D01*
X138044999Y-86081410D01*
X138044999Y-85145254D01*
X139057123Y-84133131D01*
X139057128Y-84133125D01*
X139147414Y-84042839D01*
X139173995Y-84037552D01*
X139469726Y-83915057D01*
X139735877Y-83737220D01*
X139962220Y-83510877D01*
X140140057Y-83244726D01*
X140262552Y-82948995D01*
X140325000Y-82635049D01*
X140325000Y-82314951D01*
X140262552Y-82001005D01*
X140140057Y-81705274D01*
X140125000Y-81682740D01*
X140125000Y-79692260D01*
X140140057Y-79669726D01*
X140262552Y-79373995D01*
X140325000Y-79060049D01*
X140325000Y-78739951D01*
X140262552Y-78426005D01*
X140140057Y-78130274D01*
X139962220Y-77864123D01*
X139735877Y-77637780D01*
X139469726Y-77459943D01*
X139173995Y-77337448D01*
X138860049Y-77275000D01*
X138539951Y-77275000D01*
X138226005Y-77337448D01*
X137930274Y-77459943D01*
X137664123Y-77637780D01*
X137437780Y-77864123D01*
X137259943Y-78130274D01*
X137137448Y-78426005D01*
X137075000Y-78739951D01*
X137075000Y-79060049D01*
X137137448Y-79373995D01*
X137259943Y-79669726D01*
X137275001Y-79692261D01*
X137275000Y-81682739D01*
X137259943Y-81705274D01*
X137137448Y-82001005D01*
X137132161Y-82027586D01*
X137041875Y-82117872D01*
X137041869Y-82117877D01*
X135661869Y-83497878D01*
X135607498Y-83542499D01*
X135562877Y-83596870D01*
X135429423Y-83759484D01*
X135302420Y-83997089D01*
X135297102Y-84007039D01*
X135215817Y-84275001D01*
X135215619Y-84275653D01*
X135188105Y-84555001D01*
X134149400Y-84555001D01*
X134210064Y-84441508D01*
X134223974Y-84395653D01*
X134285829Y-84191745D01*
X134311412Y-83932000D01*
X134305001Y-83866909D01*
X134305001Y-80865091D01*
X134311412Y-80800000D01*
X134285829Y-80540255D01*
X134210064Y-80290492D01*
X134145284Y-80169297D01*
X134087029Y-80060309D01*
X133921451Y-79858551D01*
X133870889Y-79817056D01*
X132686536Y-78632703D01*
X132681487Y-78581444D01*
X132588568Y-78275131D01*
X132437675Y-77992830D01*
X132234608Y-77745392D01*
X131987170Y-77542325D01*
X131704869Y-77391432D01*
X131398556Y-77298513D01*
X131159824Y-77275000D01*
X131000176Y-77275000D01*
X130761444Y-77298513D01*
X130752652Y-77301180D01*
X131963833Y-76090000D01*
X134672744Y-76090000D01*
X134827906Y-76193676D01*
X135141836Y-76323710D01*
X135475102Y-76390000D01*
X135814898Y-76390000D01*
X136148164Y-76323710D01*
X136462094Y-76193676D01*
X136744624Y-76004895D01*
X136984895Y-75764624D01*
X137060772Y-75651065D01*
X137335712Y-75651065D01*
X137407693Y-75892479D01*
X137661330Y-76012735D01*
X137933553Y-76081198D01*
X138213903Y-76095237D01*
X138491604Y-76054314D01*
X138755986Y-75960000D01*
X138882307Y-75892479D01*
X138954288Y-75651065D01*
X138145000Y-74841777D01*
X137335712Y-75651065D01*
X137060772Y-75651065D01*
X137173676Y-75482094D01*
X137189619Y-75443604D01*
X137968223Y-74665000D01*
X138321777Y-74665000D01*
X139131065Y-75474288D01*
X139372479Y-75402307D01*
X139492735Y-75148670D01*
X139561198Y-74876447D01*
X139575237Y-74596097D01*
X139534314Y-74318396D01*
X139440000Y-74054014D01*
X139372479Y-73927693D01*
X139131065Y-73855712D01*
X138321777Y-74665000D01*
X137968223Y-74665000D01*
X137189619Y-73886396D01*
X137173676Y-73847906D01*
X137060773Y-73678935D01*
X137335712Y-73678935D01*
X138145000Y-74488223D01*
X138954288Y-73678935D01*
X138882307Y-73437521D01*
X138628670Y-73317265D01*
X138356447Y-73248802D01*
X138076097Y-73234763D01*
X137798396Y-73275686D01*
X137534014Y-73370000D01*
X137407693Y-73437521D01*
X137335712Y-73678935D01*
X137060773Y-73678935D01*
X136984895Y-73565376D01*
X136744624Y-73325105D01*
X136462094Y-73136324D01*
X136148164Y-73006290D01*
X135814898Y-72940000D01*
X135475102Y-72940000D01*
X135141836Y-73006290D01*
X134827906Y-73136324D01*
X134672744Y-73240000D01*
X132105254Y-73240000D01*
X130870000Y-72004747D01*
X130870000Y-71511478D01*
X131022005Y-71636225D01*
X131321677Y-71796403D01*
X131646841Y-71895040D01*
X131900262Y-71920000D01*
X132069738Y-71920000D01*
X132323159Y-71895040D01*
X132648323Y-71796403D01*
X132947995Y-71636225D01*
X133210661Y-71420661D01*
X133426225Y-71157995D01*
X133447615Y-71117977D01*
X133567471Y-71250357D01*
X133791760Y-71416883D01*
X134044227Y-71536453D01*
X134179479Y-71577476D01*
X134400000Y-71457577D01*
X134400000Y-70320000D01*
X134650000Y-70320000D01*
X134650000Y-71457577D01*
X134870521Y-71577476D01*
X135005773Y-71536453D01*
X135258240Y-71416883D01*
X135482529Y-71250357D01*
X135670020Y-71043274D01*
X135813509Y-70803592D01*
X135907481Y-70540522D01*
X135788262Y-70320000D01*
X134650000Y-70320000D01*
X134400000Y-70320000D01*
X134380000Y-70320000D01*
X134380000Y-70070000D01*
X134400000Y-70070000D01*
X134400000Y-68932423D01*
X134650000Y-68932423D01*
X134650000Y-70070000D01*
X135788262Y-70070000D01*
X135907481Y-69849478D01*
X135813509Y-69586408D01*
X135670020Y-69346726D01*
X135482529Y-69139643D01*
X135476024Y-69134813D01*
X136411699Y-69134813D01*
X136500701Y-69378835D01*
X136635599Y-69600805D01*
X136811209Y-69792193D01*
X137020783Y-69945643D01*
X137256266Y-70055259D01*
X137365188Y-70088296D01*
X137570000Y-69967046D01*
X137570000Y-68930000D01*
X137820000Y-68930000D01*
X137820000Y-69967046D01*
X138024812Y-70088296D01*
X138133734Y-70055259D01*
X138369217Y-69945643D01*
X138578791Y-69792193D01*
X138754401Y-69600805D01*
X138889299Y-69378835D01*
X138978301Y-69134813D01*
X138857846Y-68930000D01*
X137820000Y-68930000D01*
X137570000Y-68930000D01*
X136532154Y-68930000D01*
X136411699Y-69134813D01*
X135476024Y-69134813D01*
X135258240Y-68973117D01*
X135005773Y-68853547D01*
X134870521Y-68812524D01*
X134650000Y-68932423D01*
X134400000Y-68932423D01*
X134226043Y-68837841D01*
X134588697Y-68475187D01*
X136411699Y-68475187D01*
X136532154Y-68680000D01*
X137570000Y-68680000D01*
X137570000Y-67642954D01*
X137820000Y-67642954D01*
X137820000Y-68680000D01*
X138857846Y-68680000D01*
X138978301Y-68475187D01*
X138889299Y-68231165D01*
X138754401Y-68009195D01*
X138578791Y-67817807D01*
X138369217Y-67664357D01*
X138133734Y-67554741D01*
X138024812Y-67521704D01*
X137820000Y-67642954D01*
X137570000Y-67642954D01*
X137365188Y-67521704D01*
X137256266Y-67554741D01*
X137020783Y-67664357D01*
X136811209Y-67817807D01*
X136635599Y-68009195D01*
X136500701Y-68231165D01*
X136411699Y-68475187D01*
X134588697Y-68475187D01*
X138653140Y-64410744D01*
X138707501Y-64366132D01*
X138752115Y-64311770D01*
X138752122Y-64311763D01*
X138885576Y-64149149D01*
X139006475Y-63922962D01*
X139017898Y-63901592D01*
X139099381Y-63632979D01*
X139120000Y-63423627D01*
X139120000Y-63423618D01*
X139126893Y-63353631D01*
X139120000Y-63283644D01*
X139120000Y-61977260D01*
X139135057Y-61954726D01*
X139257552Y-61658995D01*
X139320000Y-61345049D01*
X139320000Y-61024951D01*
X139257552Y-60711005D01*
X139135057Y-60415274D01*
X139120000Y-60392740D01*
X139120000Y-57874994D01*
X139126894Y-57805000D01*
X139119639Y-57731337D01*
X139099381Y-57525651D01*
X139017898Y-57257038D01*
X139017898Y-57257037D01*
X138885577Y-57009482D01*
X138811762Y-56919539D01*
X138707502Y-56792498D01*
X138653125Y-56747872D01*
X138574475Y-56669222D01*
X138574475Y-56155000D01*
X138556615Y-55973668D01*
X138503723Y-55799305D01*
X138417830Y-55638611D01*
X138302238Y-55497762D01*
X138270000Y-55471305D01*
X138270000Y-55397765D01*
X138286225Y-55377995D01*
X138446403Y-55078323D01*
X138545040Y-54753159D01*
X138578346Y-54415000D01*
X138545040Y-54076841D01*
X138446403Y-53751677D01*
X138286225Y-53452005D01*
X138270000Y-53432235D01*
X138270000Y-52857765D01*
X138286225Y-52837995D01*
X138446403Y-52538323D01*
X138545040Y-52213159D01*
X138578346Y-51875000D01*
X138545040Y-51536841D01*
X138446403Y-51211677D01*
X138286225Y-50912005D01*
X138270000Y-50892235D01*
X138270000Y-50317765D01*
X138286225Y-50297995D01*
X138446403Y-49998323D01*
X138545040Y-49673159D01*
X138578346Y-49335000D01*
X138545040Y-48996841D01*
X138446403Y-48671677D01*
X138286225Y-48372005D01*
X138270000Y-48352235D01*
X138270000Y-47777765D01*
X138286225Y-47757995D01*
X138446403Y-47458323D01*
X138545040Y-47133159D01*
X138578346Y-46795000D01*
X138545040Y-46456841D01*
X138446403Y-46131677D01*
X138286225Y-45832005D01*
X138270000Y-45812235D01*
X138270000Y-45237765D01*
X138286225Y-45217995D01*
X138446403Y-44918323D01*
X138545040Y-44593159D01*
X138578346Y-44255000D01*
X138545040Y-43916841D01*
X138446403Y-43591677D01*
X138286225Y-43292005D01*
X138070661Y-43029339D01*
X137807995Y-42813775D01*
X137508323Y-42653597D01*
X137183159Y-42554960D01*
X136929738Y-42530000D01*
X136760262Y-42530000D01*
X136506841Y-42554960D01*
X136181677Y-42653597D01*
X135882005Y-42813775D01*
X135619339Y-43029339D01*
X135403775Y-43292005D01*
X135243597Y-43591677D01*
X135144960Y-43916841D01*
X135111654Y-44255000D01*
X135144960Y-44593159D01*
X135243597Y-44918323D01*
X135403775Y-45217995D01*
X135420001Y-45237766D01*
X135420000Y-45812234D01*
X135403775Y-45832005D01*
X135243597Y-46131677D01*
X135144960Y-46456841D01*
X135111654Y-46795000D01*
X135144960Y-47133159D01*
X135243597Y-47458323D01*
X135403775Y-47757995D01*
X135420001Y-47777766D01*
X135420000Y-48352234D01*
X135403775Y-48372005D01*
X135243597Y-48671677D01*
X135144960Y-48996841D01*
X135111654Y-49335000D01*
X135144960Y-49673159D01*
X135243597Y-49998323D01*
X135403775Y-50297995D01*
X135420001Y-50317766D01*
X135420000Y-50892234D01*
X135403775Y-50912005D01*
X135243597Y-51211677D01*
X135144960Y-51536841D01*
X135111654Y-51875000D01*
X135144960Y-52213159D01*
X135243597Y-52538323D01*
X135403775Y-52837995D01*
X135420001Y-52857766D01*
X135420000Y-53432234D01*
X135403775Y-53452005D01*
X135243597Y-53751677D01*
X135144960Y-54076841D01*
X135111654Y-54415000D01*
X135144960Y-54753159D01*
X135243597Y-55078323D01*
X135403775Y-55377995D01*
X135420001Y-55397766D01*
X135420001Y-55471304D01*
X135387762Y-55497762D01*
X135272170Y-55638611D01*
X135186277Y-55799305D01*
X135133385Y-55973668D01*
X135115525Y-56155000D01*
X135115525Y-57755000D01*
X135133385Y-57936332D01*
X135186277Y-58110695D01*
X135272170Y-58271389D01*
X135387762Y-58412238D01*
X135528611Y-58527830D01*
X135689305Y-58613723D01*
X135863668Y-58666615D01*
X136045000Y-58684475D01*
X136270001Y-58684475D01*
X136270000Y-60392739D01*
X136254943Y-60415274D01*
X136132448Y-60711005D01*
X136070000Y-61024951D01*
X136070000Y-61224700D01*
X135982238Y-61117762D01*
X135841389Y-61002170D01*
X135680695Y-60916277D01*
X135506332Y-60863385D01*
X135384657Y-60851401D01*
X133188002Y-58654747D01*
X133188002Y-43754986D01*
X133194895Y-43684999D01*
X133188002Y-43615012D01*
X133188002Y-43615003D01*
X133167383Y-43405651D01*
X133085900Y-43137038D01*
X132953578Y-42889482D01*
X132775504Y-42672498D01*
X132721132Y-42627876D01*
X131191132Y-41097877D01*
X131028518Y-40964423D01*
X130780963Y-40832102D01*
X130512349Y-40750619D01*
X130259555Y-40725720D01*
X129097951Y-39564116D01*
X129056451Y-39513549D01*
X128854693Y-39347971D01*
X128624510Y-39224936D01*
X128374746Y-39149171D01*
X128180092Y-39129999D01*
X128115001Y-39123588D01*
X128049910Y-39129999D01*
X124628090Y-39129999D01*
X124562999Y-39123588D01*
X124303253Y-39149171D01*
X124120064Y-39204741D01*
X124053490Y-39224936D01*
X123823307Y-39347971D01*
X123621549Y-39513549D01*
X123580054Y-39564112D01*
X122651168Y-40492998D01*
X120686032Y-40492998D01*
X120645888Y-40460053D01*
X119749950Y-39564116D01*
X119708451Y-39513549D01*
X119506693Y-39347971D01*
X119276510Y-39224936D01*
X119026746Y-39149171D01*
X118832092Y-39129999D01*
X118767001Y-39123588D01*
X118701910Y-39129999D01*
X116010089Y-39129999D01*
X115945000Y-39123588D01*
X115879911Y-39129999D01*
X115879910Y-39129999D01*
X115685256Y-39149171D01*
X115435492Y-39224936D01*
X115205309Y-39347971D01*
X115003551Y-39513549D01*
X114962055Y-39564112D01*
X114357377Y-40168790D01*
X114320000Y-40064014D01*
X114252479Y-39937693D01*
X114011065Y-39865712D01*
X113201777Y-40675000D01*
X113215919Y-40689142D01*
X113039142Y-40865919D01*
X113025000Y-40851777D01*
X112246396Y-41630381D01*
X112207906Y-41646324D01*
X112052744Y-41750000D01*
X111894986Y-41750000D01*
X111824999Y-41743107D01*
X111755012Y-41750000D01*
X111755003Y-41750000D01*
X111545651Y-41770619D01*
X111277038Y-41852102D01*
X111029482Y-41984424D01*
X110812498Y-42162498D01*
X110767876Y-42216870D01*
X108966869Y-44017878D01*
X108912498Y-44062499D01*
X108867877Y-44116870D01*
X108734423Y-44279484D01*
X108634095Y-44467185D01*
X108602102Y-44527039D01*
X108528216Y-44770610D01*
X108520619Y-44795653D01*
X108493105Y-45075001D01*
X108500000Y-45145005D01*
X108499999Y-46616417D01*
X108455274Y-46634943D01*
X108189123Y-46812780D01*
X107962780Y-47039123D01*
X107784943Y-47305274D01*
X107662448Y-47601005D01*
X107600000Y-47914951D01*
X107600000Y-48235049D01*
X107662448Y-48548995D01*
X107784943Y-48844726D01*
X107962780Y-49110877D01*
X108189123Y-49337220D01*
X108395325Y-49475000D01*
X107921640Y-49475000D01*
X107851791Y-49405151D01*
X107536588Y-49194539D01*
X107186353Y-49049467D01*
X106814546Y-48975510D01*
X106435454Y-48975510D01*
X106063647Y-49049467D01*
X105713412Y-49194539D01*
X105398209Y-49405151D01*
X105130151Y-49673209D01*
X104919539Y-49988412D01*
X104774467Y-50338647D01*
X104700510Y-50710454D01*
X104700510Y-51089546D01*
X104774467Y-51461353D01*
X104919539Y-51811588D01*
X105130151Y-52126791D01*
X105398209Y-52394849D01*
X105713412Y-52605461D01*
X106063647Y-52750533D01*
X106435454Y-52824490D01*
X106814546Y-52824490D01*
X107186353Y-52750533D01*
X107536588Y-52605461D01*
X107851791Y-52394849D01*
X107921640Y-52325000D01*
X115199747Y-52325000D01*
X116177161Y-53302414D01*
X116182448Y-53328995D01*
X116304943Y-53624726D01*
X116320000Y-53647261D01*
X116320001Y-55762739D01*
X116304943Y-55785274D01*
X116182448Y-56081005D01*
X116120000Y-56394951D01*
X116120000Y-56715049D01*
X116182448Y-57028995D01*
X116304943Y-57324726D01*
X116482780Y-57590877D01*
X116709123Y-57817220D01*
X116975274Y-57995057D01*
X117271005Y-58117552D01*
X117584951Y-58180000D01*
X117905049Y-58180000D01*
X118218995Y-58117552D01*
X118514726Y-57995057D01*
X118686920Y-57880000D01*
X122004166Y-57880000D01*
X122649165Y-58525000D01*
X122589951Y-58525000D01*
X122276005Y-58587448D01*
X121980274Y-58709943D01*
X121714123Y-58887780D01*
X121487780Y-59114123D01*
X121309943Y-59380274D01*
X121187448Y-59676005D01*
X121125000Y-59989951D01*
X121125000Y-60310049D01*
X121187448Y-60623995D01*
X121309943Y-60919726D01*
X121487780Y-61185877D01*
X121714123Y-61412220D01*
X121980274Y-61590057D01*
X122276005Y-61712552D01*
X122589951Y-61775000D01*
X122910049Y-61775000D01*
X123223995Y-61712552D01*
X123519726Y-61590057D01*
X123542260Y-61575000D01*
X123624085Y-61575000D01*
X123674963Y-61580011D01*
X123674966Y-61580011D01*
X123744960Y-61586905D01*
X123814954Y-61580011D01*
X125892814Y-61580011D01*
X125759980Y-61726726D01*
X125616491Y-61966408D01*
X125522519Y-62229478D01*
X125641738Y-62450000D01*
X126780000Y-62450000D01*
X126780000Y-62430000D01*
X127030000Y-62430000D01*
X127030000Y-62450000D01*
X127050000Y-62450000D01*
X127050000Y-62700000D01*
X127030000Y-62700000D01*
X127030000Y-63837577D01*
X127250521Y-63957476D01*
X127385773Y-63916453D01*
X127638240Y-63796883D01*
X127862529Y-63630357D01*
X127982385Y-63497977D01*
X128003775Y-63537995D01*
X128219339Y-63800661D01*
X128482005Y-64016225D01*
X128781677Y-64176403D01*
X129106841Y-64275040D01*
X129360262Y-64300000D01*
X129529738Y-64300000D01*
X129673077Y-64285882D01*
X128888971Y-65069989D01*
X117052218Y-65069989D01*
X117015057Y-64980274D01*
X116837220Y-64714123D01*
X116610877Y-64487780D01*
X116570896Y-64461065D01*
X120515712Y-64461065D01*
X120587693Y-64702479D01*
X120841330Y-64822735D01*
X121113553Y-64891198D01*
X121393903Y-64905237D01*
X121671604Y-64864314D01*
X121935986Y-64770000D01*
X122062307Y-64702479D01*
X122134288Y-64461065D01*
X121325000Y-63651777D01*
X120515712Y-64461065D01*
X116570896Y-64461065D01*
X116344726Y-64309943D01*
X116048995Y-64187448D01*
X115735049Y-64125000D01*
X115414951Y-64125000D01*
X115101005Y-64187448D01*
X114805274Y-64309943D01*
X114539123Y-64487780D01*
X114312780Y-64714123D01*
X114134943Y-64980274D01*
X114012448Y-65276005D01*
X113950000Y-65589951D01*
X113950000Y-65910049D01*
X114012448Y-66223995D01*
X114134943Y-66519726D01*
X114312780Y-66785877D01*
X114539123Y-67012220D01*
X114805274Y-67190057D01*
X115101005Y-67312552D01*
X115301535Y-67352440D01*
X115333549Y-67391449D01*
X115535307Y-67557027D01*
X115736108Y-67664357D01*
X115765490Y-67680062D01*
X116015253Y-67755827D01*
X116274998Y-67781410D01*
X116340089Y-67774999D01*
X116384910Y-67774999D01*
X116450001Y-67781410D01*
X116515092Y-67774999D01*
X116709746Y-67755827D01*
X116827888Y-67719989D01*
X119770608Y-67719989D01*
X119666290Y-67971836D01*
X119629884Y-68154862D01*
X117046870Y-70737877D01*
X116992499Y-70782498D01*
X116933074Y-70854908D01*
X116814424Y-70999483D01*
X116682103Y-71247038D01*
X116610358Y-71483551D01*
X116600620Y-71515652D01*
X116573106Y-71795000D01*
X116580001Y-71865004D01*
X116580000Y-77417851D01*
X116467089Y-77452102D01*
X116219533Y-77584424D01*
X116002549Y-77762498D01*
X115957927Y-77816870D01*
X114666870Y-79107927D01*
X114612498Y-79152550D01*
X114434424Y-79369534D01*
X114302102Y-79617090D01*
X114220619Y-79885703D01*
X114203422Y-80060309D01*
X114193106Y-80165051D01*
X114200000Y-80235046D01*
X114200001Y-84804996D01*
X114193106Y-84875000D01*
X114215559Y-85102963D01*
X114220620Y-85154349D01*
X114263193Y-85294693D01*
X114300000Y-85416030D01*
X114300001Y-88216332D01*
X114142297Y-88200800D01*
X114142294Y-88200800D01*
X114072300Y-88193906D01*
X114002306Y-88200800D01*
X113707895Y-88200800D01*
X113588689Y-88102970D01*
X113427995Y-88017077D01*
X113253632Y-87964185D01*
X113072300Y-87946325D01*
X112022300Y-87946325D01*
X111840968Y-87964185D01*
X111666605Y-88017077D01*
X111505911Y-88102970D01*
X111365062Y-88218562D01*
X111250875Y-88357699D01*
X111229541Y-88342582D01*
X111021964Y-88249852D01*
X110957295Y-88240443D01*
X110780000Y-88364143D01*
X110780000Y-89450000D01*
X110800000Y-89450000D01*
X110800000Y-89700000D01*
X110780000Y-89700000D01*
X110780000Y-90785857D01*
X110957295Y-90909557D01*
X111021964Y-90900148D01*
X111209051Y-90816571D01*
X111249470Y-90892189D01*
X111365062Y-91033038D01*
X111505911Y-91148630D01*
X111666605Y-91234523D01*
X111840968Y-91287415D01*
X112022300Y-91305275D01*
X113072300Y-91305275D01*
X113253632Y-91287415D01*
X113427995Y-91234523D01*
X113585536Y-91150315D01*
X113681437Y-91229019D01*
X113725983Y-91265577D01*
X113800253Y-91305275D01*
X113973538Y-91397898D01*
X114242151Y-91479381D01*
X114300000Y-91485079D01*
X114300001Y-94284744D01*
X113734745Y-94850000D01*
X112120491Y-94850000D01*
X112096410Y-94728936D01*
X111966376Y-94415006D01*
X111777595Y-94132476D01*
X111537324Y-93892205D01*
X111254794Y-93703424D01*
X110940864Y-93573390D01*
X110757837Y-93536984D01*
X110595832Y-93374979D01*
X110433218Y-93241525D01*
X110192050Y-93112618D01*
X110038550Y-92959118D01*
X109997050Y-92908550D01*
X109795292Y-92742972D01*
X109565109Y-92619937D01*
X109315345Y-92544172D01*
X109120691Y-92525000D01*
X109055600Y-92518589D01*
X108990509Y-92525000D01*
X105189519Y-92525000D01*
X105174624Y-92510105D01*
X104892094Y-92321324D01*
X104853604Y-92305381D01*
X104075000Y-91526777D01*
X103296396Y-92305381D01*
X103257906Y-92321324D01*
X102975376Y-92510105D01*
X102960481Y-92525000D01*
X101265090Y-92525000D01*
X101199999Y-92518589D01*
X100940254Y-92544172D01*
X100793261Y-92588762D01*
X100690491Y-92619937D01*
X100460308Y-92742972D01*
X100258550Y-92908550D01*
X100217050Y-92959118D01*
X99976168Y-93200000D01*
X99890090Y-93200000D01*
X99824999Y-93193589D01*
X99565254Y-93219172D01*
X99507123Y-93236806D01*
X99315491Y-93294937D01*
X99085308Y-93417972D01*
X98883550Y-93583550D01*
X98842057Y-93634110D01*
X97659117Y-94817051D01*
X97608550Y-94858550D01*
X97442972Y-95060309D01*
X97370630Y-95195652D01*
X97319937Y-95290492D01*
X97244172Y-95540255D01*
X97218589Y-95800000D01*
X97223752Y-95852416D01*
X96792555Y-96283613D01*
X96670652Y-96295619D01*
X96402039Y-96377102D01*
X96154483Y-96509424D01*
X95937499Y-96687498D01*
X95759425Y-96904482D01*
X95627103Y-97152038D01*
X95545620Y-97420651D01*
X95525001Y-97630003D01*
X95525000Y-100809746D01*
X94534747Y-101800000D01*
X81365254Y-101800000D01*
X79875000Y-100309747D01*
X79875000Y-99191124D01*
X81896755Y-99191124D01*
X82013066Y-99539801D01*
X82195166Y-99859087D01*
X82436056Y-100136712D01*
X82726480Y-100362008D01*
X83055276Y-100526316D01*
X83308877Y-100603242D01*
X83600000Y-100489199D01*
X83600000Y-98900000D01*
X83850000Y-98900000D01*
X83850000Y-100489199D01*
X84141123Y-100603242D01*
X84394724Y-100526316D01*
X84723520Y-100362008D01*
X85013944Y-100136712D01*
X85254834Y-99859087D01*
X85436934Y-99539801D01*
X85553245Y-99191124D01*
X85439582Y-98900000D01*
X83850000Y-98900000D01*
X83600000Y-98900000D01*
X82010418Y-98900000D01*
X81896755Y-99191124D01*
X79875000Y-99191124D01*
X79875000Y-95827324D01*
X80038304Y-95693304D01*
X80172551Y-95529724D01*
X80272305Y-95343097D01*
X80333733Y-95140595D01*
X80354475Y-94930000D01*
X80354475Y-94834691D01*
X80509909Y-94850000D01*
X81326168Y-94850000D01*
X83496374Y-97020207D01*
X83308877Y-96946758D01*
X83055276Y-97023684D01*
X82726480Y-97187992D01*
X82436056Y-97413288D01*
X82195166Y-97690913D01*
X82013066Y-98010199D01*
X81896755Y-98358876D01*
X82010418Y-98650000D01*
X83600000Y-98650000D01*
X83600000Y-98630000D01*
X83850000Y-98630000D01*
X83850000Y-98650000D01*
X85439582Y-98650000D01*
X85553245Y-98358876D01*
X85436934Y-98010199D01*
X85427304Y-97993314D01*
X85495191Y-98000000D01*
X93809660Y-98000000D01*
X93879654Y-98006894D01*
X93949648Y-98000000D01*
X93949651Y-98000000D01*
X94159003Y-97979381D01*
X94427616Y-97897898D01*
X94675172Y-97765576D01*
X94892156Y-97587502D01*
X94936782Y-97533125D01*
X96983140Y-95486769D01*
X97037501Y-95442156D01*
X97082115Y-95387794D01*
X97082122Y-95387787D01*
X97215576Y-95225173D01*
X97317488Y-95034508D01*
X97347898Y-94977616D01*
X97429381Y-94709003D01*
X97450000Y-94499651D01*
X97450000Y-94499642D01*
X97456893Y-94429655D01*
X97450000Y-94359668D01*
X97450000Y-92283404D01*
X97469305Y-92293723D01*
X97643668Y-92346615D01*
X97825000Y-92364475D01*
X100025000Y-92364475D01*
X100206332Y-92346615D01*
X100380695Y-92293723D01*
X100541389Y-92207830D01*
X100682238Y-92092238D01*
X100797830Y-91951389D01*
X100883723Y-91790695D01*
X100936615Y-91616332D01*
X100947140Y-91509471D01*
X101057497Y-91418903D01*
X102644763Y-91418903D01*
X102685686Y-91696604D01*
X102780000Y-91960986D01*
X102847521Y-92087307D01*
X103088935Y-92159288D01*
X103898223Y-91350000D01*
X104251777Y-91350000D01*
X105061065Y-92159288D01*
X105302479Y-92087307D01*
X105422735Y-91833670D01*
X105491198Y-91561447D01*
X105505237Y-91281097D01*
X105464314Y-91003396D01*
X105370000Y-90739014D01*
X105302479Y-90612693D01*
X105061065Y-90540712D01*
X104251777Y-91350000D01*
X103898223Y-91350000D01*
X103088935Y-90540712D01*
X102847521Y-90612693D01*
X102727265Y-90866330D01*
X102658802Y-91138553D01*
X102644763Y-91418903D01*
X101057497Y-91418903D01*
X101144500Y-91347502D01*
X101189126Y-91293125D01*
X102118316Y-90363935D01*
X103265712Y-90363935D01*
X104075000Y-91173223D01*
X104884288Y-90363935D01*
X104812307Y-90122521D01*
X104558670Y-90002265D01*
X104286447Y-89933802D01*
X104006097Y-89919763D01*
X103728396Y-89960686D01*
X103464014Y-90055000D01*
X103337693Y-90122521D01*
X103265712Y-90363935D01*
X102118316Y-90363935D01*
X105007252Y-87475000D01*
X107325000Y-87475000D01*
X107325001Y-89052498D01*
X107320981Y-89065750D01*
X107300000Y-89278775D01*
X107300000Y-89871224D01*
X107320981Y-90084249D01*
X107403894Y-90357575D01*
X107538536Y-90609473D01*
X107719735Y-90830264D01*
X107940526Y-91011464D01*
X108192424Y-91146106D01*
X108465750Y-91229019D01*
X108750000Y-91257015D01*
X109034249Y-91229019D01*
X109307575Y-91146106D01*
X109559473Y-91011464D01*
X109780264Y-90830265D01*
X109902503Y-90681317D01*
X110080459Y-90807418D01*
X110288036Y-90900148D01*
X110352705Y-90909557D01*
X110530000Y-90785857D01*
X110530000Y-89700000D01*
X110510000Y-89700000D01*
X110510000Y-89450000D01*
X110530000Y-89450000D01*
X110530000Y-88364143D01*
X110352705Y-88240443D01*
X110288036Y-88249852D01*
X110175000Y-88300348D01*
X110175000Y-86640253D01*
X110845138Y-85970116D01*
X111028164Y-85933710D01*
X111342094Y-85803676D01*
X111624624Y-85614895D01*
X111864895Y-85374624D01*
X112053676Y-85092094D01*
X112183710Y-84778164D01*
X112250000Y-84444898D01*
X112250000Y-84105102D01*
X112183710Y-83771836D01*
X112053676Y-83457906D01*
X111864895Y-83175376D01*
X111624624Y-82935105D01*
X111342094Y-82746324D01*
X111303604Y-82730381D01*
X110525000Y-81951777D01*
X109746396Y-82730381D01*
X109707906Y-82746324D01*
X109425376Y-82935105D01*
X109185105Y-83175376D01*
X108996324Y-83457906D01*
X108866290Y-83771836D01*
X108829884Y-83954862D01*
X108159747Y-84625000D01*
X104915254Y-84625000D01*
X106308140Y-83232114D01*
X106362512Y-83187492D01*
X106540586Y-82970508D01*
X106672908Y-82722952D01*
X106754391Y-82454339D01*
X106775010Y-82244987D01*
X106775010Y-82244985D01*
X106781904Y-82174990D01*
X106775010Y-82104996D01*
X106775010Y-81843903D01*
X109094763Y-81843903D01*
X109135686Y-82121604D01*
X109230000Y-82385986D01*
X109297521Y-82512307D01*
X109538935Y-82584288D01*
X110348223Y-81775000D01*
X110701777Y-81775000D01*
X111511065Y-82584288D01*
X111752479Y-82512307D01*
X111872735Y-82258670D01*
X111941198Y-81986447D01*
X111955237Y-81706097D01*
X111914314Y-81428396D01*
X111820000Y-81164014D01*
X111752479Y-81037693D01*
X111511065Y-80965712D01*
X110701777Y-81775000D01*
X110348223Y-81775000D01*
X109538935Y-80965712D01*
X109297521Y-81037693D01*
X109177265Y-81291330D01*
X109108802Y-81563553D01*
X109094763Y-81843903D01*
X106775010Y-81843903D01*
X106775010Y-80788935D01*
X109715712Y-80788935D01*
X110525000Y-81598223D01*
X111334288Y-80788935D01*
X111262307Y-80547521D01*
X111008670Y-80427265D01*
X110736447Y-80358802D01*
X110456097Y-80344763D01*
X110178396Y-80385686D01*
X109914014Y-80480000D01*
X109787693Y-80547521D01*
X109715712Y-80788935D01*
X106775010Y-80788935D01*
X106775010Y-78730359D01*
X108401417Y-78730359D01*
X108467342Y-78966670D01*
X108712448Y-79081926D01*
X108975329Y-79147149D01*
X109245883Y-79159834D01*
X109513714Y-79119492D01*
X109768527Y-79027674D01*
X109882658Y-78966670D01*
X109948583Y-78730359D01*
X109175000Y-77956777D01*
X108401417Y-78730359D01*
X106775010Y-78730359D01*
X106775010Y-77850883D01*
X107795166Y-77850883D01*
X107835508Y-78118714D01*
X107927326Y-78373527D01*
X107988330Y-78487658D01*
X108224641Y-78553583D01*
X108998223Y-77780000D01*
X109351777Y-77780000D01*
X110125359Y-78553583D01*
X110361670Y-78487658D01*
X110476926Y-78242552D01*
X110542149Y-77979671D01*
X110554834Y-77709117D01*
X110514492Y-77441286D01*
X110422674Y-77186473D01*
X110361670Y-77072342D01*
X110125359Y-77006417D01*
X109351777Y-77780000D01*
X108998223Y-77780000D01*
X108224641Y-77006417D01*
X107988330Y-77072342D01*
X107873074Y-77317448D01*
X107807851Y-77580329D01*
X107795166Y-77850883D01*
X106775010Y-77850883D01*
X106775010Y-76323500D01*
X106905482Y-76430576D01*
X107153038Y-76562898D01*
X107421651Y-76644381D01*
X107631003Y-76665000D01*
X107631012Y-76665000D01*
X107700999Y-76671893D01*
X107770986Y-76665000D01*
X108292742Y-76665000D01*
X108381590Y-76724366D01*
X108425690Y-76742633D01*
X108401417Y-76829641D01*
X109175000Y-77603223D01*
X109948583Y-76829641D01*
X109924310Y-76742633D01*
X109968410Y-76724366D01*
X110242751Y-76541058D01*
X110476058Y-76307751D01*
X110659366Y-76033410D01*
X110785631Y-75728580D01*
X110850000Y-75404973D01*
X110850000Y-75075027D01*
X110785631Y-74751420D01*
X110659366Y-74446590D01*
X110485607Y-74186541D01*
X110582238Y-74107238D01*
X110605349Y-74079077D01*
X110872961Y-73997898D01*
X111120517Y-73865576D01*
X111337501Y-73687502D01*
X111515576Y-73470518D01*
X111647898Y-73222962D01*
X111729381Y-72954349D01*
X111750000Y-72744997D01*
X111750000Y-70981236D01*
X111856969Y-70970700D01*
X112238683Y-70854908D01*
X112590473Y-70666873D01*
X112898819Y-70413819D01*
X113151873Y-70105473D01*
X113339908Y-69753683D01*
X113455700Y-69371969D01*
X113494798Y-68975000D01*
X113455700Y-68578031D01*
X113339908Y-68196317D01*
X113151873Y-67844527D01*
X112910000Y-67549805D01*
X112910000Y-64216194D01*
X112973819Y-64163819D01*
X113226873Y-63855473D01*
X113393410Y-63543903D01*
X119894763Y-63543903D01*
X119935686Y-63821604D01*
X120030000Y-64085986D01*
X120097521Y-64212307D01*
X120338935Y-64284288D01*
X121148223Y-63475000D01*
X121501777Y-63475000D01*
X122311065Y-64284288D01*
X122552479Y-64212307D01*
X122672735Y-63958670D01*
X122741198Y-63686447D01*
X122755237Y-63406097D01*
X122714314Y-63128396D01*
X122640159Y-62920522D01*
X125522519Y-62920522D01*
X125616491Y-63183592D01*
X125759980Y-63423274D01*
X125947471Y-63630357D01*
X126171760Y-63796883D01*
X126424227Y-63916453D01*
X126559479Y-63957476D01*
X126780000Y-63837577D01*
X126780000Y-62700000D01*
X125641738Y-62700000D01*
X125522519Y-62920522D01*
X122640159Y-62920522D01*
X122620000Y-62864014D01*
X122552479Y-62737693D01*
X122311065Y-62665712D01*
X121501777Y-63475000D01*
X121148223Y-63475000D01*
X120338935Y-62665712D01*
X120097521Y-62737693D01*
X119977265Y-62991330D01*
X119908802Y-63263553D01*
X119894763Y-63543903D01*
X113393410Y-63543903D01*
X113414908Y-63503683D01*
X113530700Y-63121969D01*
X113569798Y-62725000D01*
X113546548Y-62488935D01*
X120515712Y-62488935D01*
X121325000Y-63298223D01*
X122134288Y-62488935D01*
X122062307Y-62247521D01*
X121808670Y-62127265D01*
X121536447Y-62058802D01*
X121256097Y-62044763D01*
X120978396Y-62085686D01*
X120714014Y-62180000D01*
X120587693Y-62247521D01*
X120515712Y-62488935D01*
X113546548Y-62488935D01*
X113530700Y-62328031D01*
X113414908Y-61946317D01*
X113226873Y-61594527D01*
X112975000Y-61287620D01*
X112975000Y-61010595D01*
X113072830Y-60891389D01*
X113158723Y-60730695D01*
X113211615Y-60556332D01*
X113229475Y-60375000D01*
X113229475Y-59274780D01*
X113588474Y-59633779D01*
X113528513Y-59831444D01*
X113497138Y-60150000D01*
X113528513Y-60468556D01*
X113621432Y-60774869D01*
X113772325Y-61057170D01*
X113975392Y-61304608D01*
X114222830Y-61507675D01*
X114505131Y-61658568D01*
X114811444Y-61751487D01*
X115050176Y-61775000D01*
X115209824Y-61775000D01*
X115448556Y-61751487D01*
X115754869Y-61658568D01*
X116037170Y-61507675D01*
X116284608Y-61304608D01*
X116487675Y-61057170D01*
X116638568Y-60774869D01*
X116731487Y-60468556D01*
X116762862Y-60150000D01*
X116731487Y-59831444D01*
X116638568Y-59525131D01*
X116555000Y-59368786D01*
X116555000Y-59230037D01*
X116561893Y-59160050D01*
X116555000Y-59090063D01*
X116555000Y-59090054D01*
X116534381Y-58880702D01*
X116452898Y-58612089D01*
X116320576Y-58364533D01*
X116142502Y-58147549D01*
X116088130Y-58102927D01*
X114112077Y-56126875D01*
X114067451Y-56072498D01*
X113850467Y-55894424D01*
X113602911Y-55762102D01*
X113334298Y-55680619D01*
X113124946Y-55660000D01*
X113124943Y-55660000D01*
X113054949Y-55653106D01*
X112984955Y-55660000D01*
X112432258Y-55660000D01*
X112343410Y-55600634D01*
X112299310Y-55582367D01*
X112323583Y-55495359D01*
X111550000Y-54721777D01*
X110776417Y-55495359D01*
X110800690Y-55582367D01*
X110756590Y-55600634D01*
X110482249Y-55783942D01*
X110248942Y-56017249D01*
X110065634Y-56291590D01*
X110031247Y-56374606D01*
X109956519Y-56234799D01*
X109790941Y-56033041D01*
X109740373Y-55991541D01*
X109283459Y-55534627D01*
X109241959Y-55484059D01*
X109040201Y-55318481D01*
X108810018Y-55195446D01*
X108560254Y-55119681D01*
X108365600Y-55100509D01*
X108300509Y-55094098D01*
X108235418Y-55100509D01*
X105065763Y-55100509D01*
X104581137Y-54615883D01*
X110170166Y-54615883D01*
X110210508Y-54883714D01*
X110302326Y-55138527D01*
X110363330Y-55252658D01*
X110599641Y-55318583D01*
X111373223Y-54545000D01*
X111726777Y-54545000D01*
X112500359Y-55318583D01*
X112736670Y-55252658D01*
X112851926Y-55007552D01*
X112917149Y-54744671D01*
X112929834Y-54474117D01*
X112889492Y-54206286D01*
X112797674Y-53951473D01*
X112736670Y-53837342D01*
X112500359Y-53771417D01*
X111726777Y-54545000D01*
X111373223Y-54545000D01*
X110599641Y-53771417D01*
X110363330Y-53837342D01*
X110248074Y-54082448D01*
X110182851Y-54345329D01*
X110170166Y-54615883D01*
X104581137Y-54615883D01*
X104282137Y-54316884D01*
X104237512Y-54262508D01*
X104020528Y-54084434D01*
X103876077Y-54007223D01*
X103463495Y-53594641D01*
X110776417Y-53594641D01*
X111550000Y-54368223D01*
X112323583Y-53594641D01*
X112257658Y-53358330D01*
X112012552Y-53243074D01*
X111749671Y-53177851D01*
X111479117Y-53165166D01*
X111211286Y-53205508D01*
X110956473Y-53297326D01*
X110842342Y-53358330D01*
X110776417Y-53594641D01*
X103463495Y-53594641D01*
X97410718Y-47541865D01*
X97366092Y-47487488D01*
X97149108Y-47309414D01*
X96901552Y-47177092D01*
X96632939Y-47095609D01*
X96423587Y-47074990D01*
X96423584Y-47074990D01*
X96353590Y-47068096D01*
X96283596Y-47074990D01*
X89885841Y-47074990D01*
X89330930Y-46520079D01*
X89191855Y-46405943D01*
X89077709Y-46266857D01*
X88027716Y-45216865D01*
X87983090Y-45162488D01*
X87766106Y-44984414D01*
X87730792Y-44965538D01*
X87409216Y-44643962D01*
X93232815Y-44643962D01*
X93479398Y-45033820D01*
X93979995Y-45298822D01*
X94522672Y-45461070D01*
X95086575Y-45514330D01*
X95650032Y-45456554D01*
X96191392Y-45289963D01*
X96670602Y-45033820D01*
X96917185Y-44643962D01*
X95075000Y-42801777D01*
X93232815Y-44643962D01*
X87409216Y-44643962D01*
X86650000Y-43884747D01*
X86650000Y-42636575D01*
X92185670Y-42636575D01*
X92243446Y-43200032D01*
X92410037Y-43741392D01*
X92666180Y-44220602D01*
X93056038Y-44467185D01*
X94898223Y-42625000D01*
X95251777Y-42625000D01*
X97093962Y-44467185D01*
X97483820Y-44220602D01*
X97748822Y-43720005D01*
X97911070Y-43177328D01*
X97964330Y-42613425D01*
X97906554Y-42049968D01*
X97739963Y-41508608D01*
X97483820Y-41029398D01*
X97093962Y-40782815D01*
X95251777Y-42625000D01*
X94898223Y-42625000D01*
X93056038Y-40782815D01*
X92666180Y-41029398D01*
X92401178Y-41529995D01*
X92238930Y-42072672D01*
X92185670Y-42636575D01*
X86650000Y-42636575D01*
X86650000Y-41890088D01*
X86656411Y-41824999D01*
X86644617Y-41705259D01*
X86630828Y-41565255D01*
X86555063Y-41315491D01*
X86432028Y-41085308D01*
X86266450Y-40883550D01*
X86215882Y-40842050D01*
X85979870Y-40606038D01*
X93232815Y-40606038D01*
X95075000Y-42448223D01*
X96917185Y-40606038D01*
X96670602Y-40216180D01*
X96170005Y-39951178D01*
X95627328Y-39788930D01*
X95063425Y-39735670D01*
X94499968Y-39793446D01*
X93958608Y-39960037D01*
X93479398Y-40216180D01*
X93232815Y-40606038D01*
X85979870Y-40606038D01*
X85607950Y-40234118D01*
X85566450Y-40183550D01*
X85364692Y-40017972D01*
X85134509Y-39894937D01*
X84884745Y-39819172D01*
X84690091Y-39800000D01*
X84625000Y-39793589D01*
X84559909Y-39800000D01*
X78315091Y-39800000D01*
X78250000Y-39793589D01*
X77990254Y-39819172D01*
X77836833Y-39865712D01*
X77740491Y-39894937D01*
X77510308Y-40017972D01*
X77308550Y-40183550D01*
X77267050Y-40234118D01*
X76784113Y-40717055D01*
X76733551Y-40758550D01*
X76567972Y-40960308D01*
X76444937Y-41190491D01*
X76435912Y-41220244D01*
X76352103Y-41377038D01*
X76270620Y-41645651D01*
X76250001Y-41855003D01*
X76250000Y-52012239D01*
X76243106Y-52082234D01*
X76250000Y-52152228D01*
X76250000Y-52152230D01*
X76270619Y-52361582D01*
X76352102Y-52630195D01*
X76484424Y-52877751D01*
X76662498Y-53094735D01*
X76716871Y-53139358D01*
X82143046Y-58565534D01*
X81982804Y-58760788D01*
X81780840Y-59138637D01*
X81656471Y-59548626D01*
X81614477Y-59975000D01*
X81656471Y-60401374D01*
X81780840Y-60811363D01*
X81982804Y-61189212D01*
X82254602Y-61520398D01*
X82325001Y-61578173D01*
X82325000Y-64355793D01*
X82204602Y-64454602D01*
X81932804Y-64785788D01*
X81730840Y-65163637D01*
X81606471Y-65573626D01*
X81564477Y-66000000D01*
X81606471Y-66426374D01*
X81730840Y-66836363D01*
X81932804Y-67214212D01*
X82204602Y-67545398D01*
X82535788Y-67817196D01*
X82913637Y-68019160D01*
X83323626Y-68143529D01*
X83643158Y-68175000D01*
X83856842Y-68175000D01*
X84176374Y-68143529D01*
X84586363Y-68019160D01*
X84964212Y-67817196D01*
X85295398Y-67545398D01*
X85567196Y-67214212D01*
X85769160Y-66836363D01*
X85893529Y-66426374D01*
X85935523Y-66000000D01*
X85893529Y-65573626D01*
X85769160Y-65163637D01*
X85567196Y-64785788D01*
X85295398Y-64454602D01*
X85175000Y-64355794D01*
X85175000Y-61660240D01*
X85345398Y-61520398D01*
X85617196Y-61189212D01*
X85819160Y-60811363D01*
X85943529Y-60401374D01*
X85985523Y-59975000D01*
X85943529Y-59548626D01*
X85819160Y-59138637D01*
X85617196Y-58760788D01*
X85345398Y-58429602D01*
X85225000Y-58330794D01*
X85225000Y-58277228D01*
X85231894Y-58207233D01*
X85222386Y-58110695D01*
X85204381Y-57927885D01*
X85122898Y-57659272D01*
X84990576Y-57411716D01*
X84812502Y-57194732D01*
X84758130Y-57150110D01*
X79100000Y-51491981D01*
X79100000Y-42450000D01*
X80705374Y-42450000D01*
X80695525Y-42550000D01*
X80695525Y-44750000D01*
X80713385Y-44931332D01*
X80766277Y-45105695D01*
X80852170Y-45266389D01*
X80967762Y-45407238D01*
X81108611Y-45522830D01*
X81269305Y-45608723D01*
X81300000Y-45618034D01*
X81300000Y-46830005D01*
X81293106Y-46900000D01*
X81300000Y-46969994D01*
X81300000Y-46969996D01*
X81320619Y-47179348D01*
X81402102Y-47447961D01*
X81534424Y-47695517D01*
X81630476Y-47812557D01*
X81614477Y-47975000D01*
X81656471Y-48401374D01*
X81780840Y-48811363D01*
X81982804Y-49189212D01*
X82254602Y-49520398D01*
X82585788Y-49792196D01*
X82963637Y-49994160D01*
X83373626Y-50118529D01*
X83693158Y-50150000D01*
X83906842Y-50150000D01*
X84226374Y-50118529D01*
X84636363Y-49994160D01*
X85014212Y-49792196D01*
X85345398Y-49520398D01*
X85444206Y-49400000D01*
X85634747Y-49400000D01*
X87492876Y-51258130D01*
X87537498Y-51312502D01*
X87591868Y-51357122D01*
X87754482Y-51490577D01*
X87865655Y-51550000D01*
X85680872Y-51550000D01*
X85324617Y-51585088D01*
X84867503Y-51723752D01*
X84733226Y-51795525D01*
X84550000Y-51795525D01*
X84368668Y-51813385D01*
X84194305Y-51866277D01*
X84033611Y-51952170D01*
X83892762Y-52067762D01*
X83777170Y-52208611D01*
X83691277Y-52369305D01*
X83638385Y-52543668D01*
X83620525Y-52725000D01*
X83620525Y-52908226D01*
X83548752Y-53042503D01*
X83410088Y-53499617D01*
X83363267Y-53975000D01*
X83410088Y-54450383D01*
X83548752Y-54907497D01*
X83620525Y-55041774D01*
X83620525Y-55225000D01*
X83638385Y-55406332D01*
X83691277Y-55580695D01*
X83777170Y-55741389D01*
X83892762Y-55882238D01*
X84033611Y-55997830D01*
X84194305Y-56083723D01*
X84368668Y-56136615D01*
X84550000Y-56154475D01*
X84733226Y-56154475D01*
X84867503Y-56226248D01*
X85324617Y-56364912D01*
X85680872Y-56400000D01*
X89959249Y-56400000D01*
X90050775Y-56491526D01*
X90570865Y-56839039D01*
X91148758Y-57078410D01*
X91762246Y-57200440D01*
X92387754Y-57200440D01*
X93001242Y-57078410D01*
X93579135Y-56839039D01*
X94099225Y-56491526D01*
X94515751Y-56075000D01*
X95493652Y-56075000D01*
X95321324Y-56332906D01*
X95191290Y-56646836D01*
X95125000Y-56980102D01*
X95125000Y-57319898D01*
X95191290Y-57653164D01*
X95321324Y-57967094D01*
X95510105Y-58249624D01*
X95750376Y-58489895D01*
X96032906Y-58678676D01*
X96150000Y-58727178D01*
X96150000Y-58907740D01*
X96134943Y-58930274D01*
X96012448Y-59226005D01*
X95987500Y-59351427D01*
X95962552Y-59226005D01*
X95840057Y-58930274D01*
X95662220Y-58664123D01*
X95435877Y-58437780D01*
X95169726Y-58259943D01*
X94873995Y-58137448D01*
X94560049Y-58075000D01*
X94239951Y-58075000D01*
X93926005Y-58137448D01*
X93630274Y-58259943D01*
X93570325Y-58300000D01*
X91847256Y-58300000D01*
X91692094Y-58196324D01*
X91378164Y-58066290D01*
X91044898Y-58000000D01*
X90705102Y-58000000D01*
X90371836Y-58066290D01*
X90057906Y-58196324D01*
X89775376Y-58385105D01*
X89535105Y-58625376D01*
X89346324Y-58907906D01*
X89216290Y-59221836D01*
X89150000Y-59555102D01*
X89150000Y-59894898D01*
X89216290Y-60228164D01*
X89346324Y-60542094D01*
X89535105Y-60824624D01*
X89685481Y-60975000D01*
X89535105Y-61125376D01*
X89346324Y-61407906D01*
X89216290Y-61721836D01*
X89179884Y-61904863D01*
X89116871Y-61967876D01*
X89062499Y-62012498D01*
X88884425Y-62229482D01*
X88752103Y-62477038D01*
X88670620Y-62745651D01*
X88650001Y-62955002D01*
X88643107Y-63024999D01*
X88650001Y-63094994D01*
X88650002Y-68029997D01*
X88643107Y-68100001D01*
X88666007Y-68332502D01*
X88670621Y-68379350D01*
X88699693Y-68475187D01*
X88752104Y-68647963D01*
X88884425Y-68895518D01*
X88904044Y-68919424D01*
X89062500Y-69112503D01*
X89116871Y-69157124D01*
X89534747Y-69575000D01*
X86264686Y-69575000D01*
X85908431Y-69610088D01*
X85451317Y-69748752D01*
X85317040Y-69820525D01*
X84500000Y-69820525D01*
X84318668Y-69838385D01*
X84144305Y-69891277D01*
X83983611Y-69977170D01*
X83842762Y-70092762D01*
X83727170Y-70233611D01*
X83641277Y-70394305D01*
X83588385Y-70568668D01*
X83570525Y-70750000D01*
X83570525Y-73125001D01*
X77665255Y-73125001D01*
X74500000Y-69959747D01*
X74500000Y-67594994D01*
X74506894Y-67525000D01*
X74497224Y-67426818D01*
X74479381Y-67245651D01*
X74408570Y-67012220D01*
X74397898Y-66977037D01*
X74265577Y-66729482D01*
X74132122Y-66566868D01*
X74087502Y-66512498D01*
X74033130Y-66467876D01*
X73948943Y-66383689D01*
X73986733Y-66000000D01*
X73939912Y-65524617D01*
X73801248Y-65067503D01*
X73576069Y-64646224D01*
X73273030Y-64276970D01*
X72903776Y-63973931D01*
X72482497Y-63748752D01*
X72025383Y-63610088D01*
X71669128Y-63575000D01*
X70149990Y-63575000D01*
X70149990Y-61151084D01*
X70311056Y-61336712D01*
X70601480Y-61562008D01*
X70930276Y-61726316D01*
X71183877Y-61803242D01*
X71475000Y-61689199D01*
X71475000Y-60100000D01*
X71725000Y-60100000D01*
X71725000Y-61689199D01*
X72016123Y-61803242D01*
X72269724Y-61726316D01*
X72598520Y-61562008D01*
X72888944Y-61336712D01*
X73129834Y-61059087D01*
X73311934Y-60739801D01*
X73428245Y-60391124D01*
X73314582Y-60100000D01*
X71725000Y-60100000D01*
X71475000Y-60100000D01*
X71455000Y-60100000D01*
X71455000Y-59850000D01*
X71475000Y-59850000D01*
X71475000Y-59830000D01*
X71725000Y-59830000D01*
X71725000Y-59850000D01*
X73314582Y-59850000D01*
X73428245Y-59558876D01*
X73311934Y-59210199D01*
X73129834Y-58890913D01*
X72888944Y-58613288D01*
X72598520Y-58387992D01*
X72269724Y-58223684D01*
X72016123Y-58146758D01*
X71725002Y-58260800D01*
X71725002Y-58100000D01*
X71650466Y-58100000D01*
X73230503Y-56519963D01*
X73323030Y-56444028D01*
X73398965Y-56351501D01*
X73398970Y-56351496D01*
X73626069Y-56074775D01*
X73791955Y-55764424D01*
X73851248Y-55653495D01*
X73989912Y-55196381D01*
X74025000Y-54840126D01*
X74025000Y-54840115D01*
X74036732Y-54720998D01*
X74025000Y-54601881D01*
X74025000Y-47855872D01*
X73989912Y-47499617D01*
X73956463Y-47389349D01*
X73994381Y-47264349D01*
X74015000Y-47054997D01*
X74015000Y-47054988D01*
X74021893Y-46985001D01*
X74015000Y-46915014D01*
X74015000Y-45075195D01*
X74256873Y-44780473D01*
X74444908Y-44428683D01*
X74560700Y-44046969D01*
X74599798Y-43650000D01*
X74560700Y-43253031D01*
X74444908Y-42871317D01*
X74256873Y-42519527D01*
X74003819Y-42211181D01*
X73695473Y-41958127D01*
X73343683Y-41770092D01*
X72961969Y-41654300D01*
X72664481Y-41625000D01*
X72465519Y-41625000D01*
X72168031Y-41654300D01*
X71786317Y-41770092D01*
X71434527Y-41958127D01*
X71126181Y-42211181D01*
X70873127Y-42519527D01*
X70685092Y-42871317D01*
X70569300Y-43253031D01*
X70530202Y-43650000D01*
X70569300Y-44046969D01*
X70685092Y-44428683D01*
X70873127Y-44780473D01*
X71126181Y-45088819D01*
X71165000Y-45120677D01*
X71165001Y-45581111D01*
X71124617Y-45585088D01*
X70667503Y-45723752D01*
X70246224Y-45948931D01*
X69876970Y-46251970D01*
X69573931Y-46621225D01*
X69348752Y-47042504D01*
X69210088Y-47499618D01*
X69175000Y-47855873D01*
X69175001Y-53716529D01*
X66094492Y-56797039D01*
X66001960Y-56872978D01*
X65926022Y-56965509D01*
X65926020Y-56965511D01*
X65698921Y-57242232D01*
X65641042Y-57350517D01*
X65473742Y-57663512D01*
X65335078Y-58120626D01*
X65299990Y-58476881D01*
X65299990Y-58476891D01*
X65288258Y-58596008D01*
X65299990Y-58715125D01*
X65299991Y-65655853D01*
X65299990Y-65655863D01*
X65299990Y-65655873D01*
X65288258Y-65774990D01*
X65299990Y-65894107D01*
X65299991Y-91228207D01*
X65210079Y-91524608D01*
X65163258Y-91999990D01*
X64375000Y-91999990D01*
X64375000Y-38925000D01*
X100572426Y-38925000D01*
X100530415Y-38949255D01*
X100530415Y-38949255D01*
G37*
X100530415Y-38949255D02*
X99820343Y-39564536D01*
X99239546Y-40303080D01*
X98809014Y-41138194D01*
X98544310Y-42039695D01*
X98454999Y-42975000D01*
X98544310Y-43910305D01*
X98809014Y-44811806D01*
X99239546Y-45646920D01*
X99820343Y-46385464D01*
X100530415Y-47000745D01*
X101344098Y-47470525D01*
X102231982Y-47777825D01*
X103161979Y-47911538D01*
X104100474Y-47866832D01*
X105013549Y-47645323D01*
X105868203Y-47255015D01*
X106633546Y-46710017D01*
X107281916Y-46030026D01*
X107789881Y-45239618D01*
X108139080Y-44367361D01*
X108316893Y-43444780D01*
X108316893Y-42505220D01*
X108139080Y-41582639D01*
X107819679Y-40784813D01*
X107941699Y-40784813D01*
X108030701Y-41028835D01*
X108165599Y-41250805D01*
X108341209Y-41442193D01*
X108550783Y-41595643D01*
X108786266Y-41705259D01*
X108895188Y-41738296D01*
X109100000Y-41617046D01*
X109100000Y-40580000D01*
X109350000Y-40580000D01*
X109350000Y-41617046D01*
X109554812Y-41738296D01*
X109663734Y-41705259D01*
X109899217Y-41595643D01*
X110108791Y-41442193D01*
X110284401Y-41250805D01*
X110419299Y-41028835D01*
X110508301Y-40784813D01*
X110484241Y-40743903D01*
X111594763Y-40743903D01*
X111635686Y-41021604D01*
X111730000Y-41285986D01*
X111797521Y-41412307D01*
X112038935Y-41484288D01*
X112848223Y-40675000D01*
X112038935Y-39865712D01*
X111797521Y-39937693D01*
X111677265Y-40191330D01*
X111608802Y-40463553D01*
X111594763Y-40743903D01*
X110484241Y-40743903D01*
X110387846Y-40580000D01*
X109350000Y-40580000D01*
X109100000Y-40580000D01*
X108062154Y-40580000D01*
X107941699Y-40784813D01*
X107819679Y-40784813D01*
X107789881Y-40710382D01*
X107413799Y-40125187D01*
X107941699Y-40125187D01*
X108062154Y-40330000D01*
X109100000Y-40330000D01*
X109100000Y-39292954D01*
X109350000Y-39292954D01*
X109350000Y-40330000D01*
X110387846Y-40330000D01*
X110508301Y-40125187D01*
X110419299Y-39881165D01*
X110302475Y-39688935D01*
X112215712Y-39688935D01*
X113025000Y-40498223D01*
X113834288Y-39688935D01*
X113762307Y-39447521D01*
X113508670Y-39327265D01*
X113236447Y-39258802D01*
X112956097Y-39244763D01*
X112678396Y-39285686D01*
X112414014Y-39380000D01*
X112287693Y-39447521D01*
X112215712Y-39688935D01*
X110302475Y-39688935D01*
X110284401Y-39659195D01*
X110108791Y-39467807D01*
X109899217Y-39314357D01*
X109663734Y-39204741D01*
X109554812Y-39171704D01*
X109350000Y-39292954D01*
X109100000Y-39292954D01*
X108895188Y-39171704D01*
X108786266Y-39204741D01*
X108550783Y-39314357D01*
X108341209Y-39467807D01*
X108165599Y-39659195D01*
X108030701Y-39881165D01*
X107941699Y-40125187D01*
X107413799Y-40125187D01*
X107281916Y-39919974D01*
X106633546Y-39239983D01*
X106191214Y-38925000D01*
X140475001Y-38925000D01*
X140475000Y-103136500D01*
X118401191Y-103136500D01*
X118401191Y-105025000D01*
X106233013Y-105025000D01*
X106725485Y-104674312D01*
X107381144Y-103986677D01*
X107894819Y-103187383D01*
X108247943Y-102305321D01*
X108427755Y-101372369D01*
X108427755Y-100422247D01*
X108247943Y-99489295D01*
X108234880Y-99456665D01*
X109628412Y-99456665D01*
X109700393Y-99698079D01*
X109954030Y-99818335D01*
X110226253Y-99886798D01*
X110506603Y-99900837D01*
X110784304Y-99859914D01*
X111048686Y-99765600D01*
X111175007Y-99698079D01*
X111246988Y-99456665D01*
X110437700Y-98647377D01*
X109628412Y-99456665D01*
X108234880Y-99456665D01*
X107894819Y-98607233D01*
X107851292Y-98539503D01*
X109007463Y-98539503D01*
X109048386Y-98817204D01*
X109142700Y-99081586D01*
X109210221Y-99207907D01*
X109451635Y-99279888D01*
X110260923Y-98470600D01*
X109451635Y-97661312D01*
X109210221Y-97733293D01*
X109089965Y-97986930D01*
X109021502Y-98259153D01*
X109007463Y-98539503D01*
X107851292Y-98539503D01*
X107381144Y-97807939D01*
X106725485Y-97120304D01*
X105951539Y-96569179D01*
X105087277Y-96174484D01*
X104163938Y-95950484D01*
X103214892Y-95905276D01*
X102274441Y-96040492D01*
X101376575Y-96351247D01*
X100553746Y-96826307D01*
X99835691Y-97448505D01*
X99248365Y-98195351D01*
X98812994Y-99039853D01*
X98545314Y-99951488D01*
X98454999Y-100897308D01*
X98545314Y-101843128D01*
X98812994Y-102754763D01*
X99248365Y-103599265D01*
X99835691Y-104346111D01*
X100553746Y-104968309D01*
X100651938Y-105025000D01*
X64375000Y-105025000D01*
X64375000Y-91999990D01*
X65163258Y-91999990D01*
X65210079Y-92475372D01*
X65348743Y-92932487D01*
X65573921Y-93353766D01*
X65801020Y-93630487D01*
X65926026Y-93755493D01*
X66001961Y-93848020D01*
X66094487Y-93923954D01*
X67370532Y-95200000D01*
X68641045Y-96470513D01*
X68716980Y-96563040D01*
X68809507Y-96638975D01*
X68809512Y-96638980D01*
X69086233Y-96866079D01*
X69273653Y-96966257D01*
X69507513Y-97091258D01*
X69964627Y-97229922D01*
X69978239Y-97231263D01*
X69707804Y-97560788D01*
X69505840Y-97938637D01*
X69381471Y-98348626D01*
X69339477Y-98775000D01*
X69381471Y-99201374D01*
X69505840Y-99611363D01*
X69707804Y-99989212D01*
X69979602Y-100320398D01*
X70310788Y-100592196D01*
X70688637Y-100794160D01*
X71098626Y-100918529D01*
X71418158Y-100950000D01*
X71631842Y-100950000D01*
X71951374Y-100918529D01*
X72361363Y-100794160D01*
X72739212Y-100592196D01*
X73070398Y-100320398D01*
X73342196Y-99989212D01*
X73544160Y-99611363D01*
X73668529Y-99201374D01*
X73710523Y-98775000D01*
X73668529Y-98348626D01*
X73544160Y-97938637D01*
X73342196Y-97560788D01*
X73099457Y-97265010D01*
X73619128Y-97265010D01*
X73975383Y-97229922D01*
X74432497Y-97091258D01*
X74853776Y-96866079D01*
X75223030Y-96563040D01*
X75526069Y-96193786D01*
X75751248Y-95772507D01*
X75889912Y-95315393D01*
X75936733Y-94840010D01*
X75889912Y-94364627D01*
X75751248Y-93907513D01*
X75526069Y-93486234D01*
X75402021Y-93335081D01*
X75383733Y-93149405D01*
X75322305Y-92946903D01*
X75283872Y-92875000D01*
X75322305Y-92803097D01*
X75383733Y-92600595D01*
X75402021Y-92414919D01*
X75526069Y-92263766D01*
X75751248Y-91842487D01*
X75889912Y-91385373D01*
X75925000Y-91029118D01*
X75925000Y-90670000D01*
X76846976Y-90670000D01*
X76850000Y-90688750D01*
X77006250Y-90845000D01*
X78325000Y-90845000D01*
X78325000Y-90201250D01*
X78575000Y-90201250D01*
X78575000Y-90845000D01*
X79893750Y-90845000D01*
X80050000Y-90688750D01*
X80053024Y-90670000D01*
X80040957Y-90547479D01*
X80005219Y-90429666D01*
X79947183Y-90321089D01*
X79869080Y-90225920D01*
X79773911Y-90147817D01*
X79665334Y-90089781D01*
X79547521Y-90054043D01*
X79425000Y-90041976D01*
X78731250Y-90045000D01*
X78575000Y-90201250D01*
X78325000Y-90201250D01*
X78168750Y-90045000D01*
X77475000Y-90041976D01*
X77352479Y-90054043D01*
X77234666Y-90089781D01*
X77126089Y-90147817D01*
X77030920Y-90225920D01*
X76952817Y-90321089D01*
X76894781Y-90429666D01*
X76859043Y-90547479D01*
X76846976Y-90670000D01*
X75925000Y-90670000D01*
X75925000Y-87101350D01*
X75936732Y-86982233D01*
X75925000Y-86863116D01*
X75925000Y-86863106D01*
X75889912Y-86506851D01*
X75751248Y-86049737D01*
X75526069Y-85628458D01*
X75223030Y-85259204D01*
X75130499Y-85183266D01*
X75091735Y-85144502D01*
X75015796Y-85051970D01*
X74901055Y-84957804D01*
X74646542Y-84748931D01*
X74225263Y-84523752D01*
X73768149Y-84385088D01*
X73411894Y-84350000D01*
X73411883Y-84350000D01*
X73292766Y-84338268D01*
X73173649Y-84350000D01*
X71405872Y-84350000D01*
X71049617Y-84385088D01*
X70592503Y-84523752D01*
X70171224Y-84748931D01*
X70149990Y-84766357D01*
X70149990Y-83411065D01*
X74815712Y-83411065D01*
X74887693Y-83652479D01*
X75141330Y-83772735D01*
X75413553Y-83841198D01*
X75693903Y-83855237D01*
X75971604Y-83814314D01*
X76235986Y-83720000D01*
X76362307Y-83652479D01*
X76434288Y-83411065D01*
X75625000Y-82601777D01*
X74815712Y-83411065D01*
X70149990Y-83411065D01*
X70149990Y-82493903D01*
X74194763Y-82493903D01*
X74235686Y-82771604D01*
X74330000Y-83035986D01*
X74397521Y-83162307D01*
X74638935Y-83234288D01*
X75448223Y-82425000D01*
X75801777Y-82425000D01*
X76611065Y-83234288D01*
X76852479Y-83162307D01*
X76972735Y-82908670D01*
X77041198Y-82636447D01*
X77055237Y-82356097D01*
X77014314Y-82078396D01*
X76920000Y-81814014D01*
X76852479Y-81687693D01*
X76611065Y-81615712D01*
X75801777Y-82425000D01*
X75448223Y-82425000D01*
X74638935Y-81615712D01*
X74397521Y-81687693D01*
X74277265Y-81941330D01*
X74208802Y-82213553D01*
X74194763Y-82493903D01*
X70149990Y-82493903D01*
X70149990Y-81438935D01*
X74815712Y-81438935D01*
X75625000Y-82248223D01*
X76434288Y-81438935D01*
X76362307Y-81197521D01*
X76108670Y-81077265D01*
X75836447Y-81008802D01*
X75556097Y-80994763D01*
X75278396Y-81035686D01*
X75014014Y-81130000D01*
X74887693Y-81197521D01*
X74815712Y-81438935D01*
X70149990Y-81438935D01*
X70149990Y-79233709D01*
X70261056Y-79361712D01*
X70551480Y-79587008D01*
X70880276Y-79751316D01*
X71133877Y-79828242D01*
X71425000Y-79714199D01*
X71425000Y-78125000D01*
X71675000Y-78125000D01*
X71675000Y-79714199D01*
X71966123Y-79828242D01*
X72219724Y-79751316D01*
X72548520Y-79587008D01*
X72838944Y-79361712D01*
X73079834Y-79084087D01*
X73261934Y-78764801D01*
X73378245Y-78416124D01*
X73264582Y-78125000D01*
X71675000Y-78125000D01*
X71425000Y-78125000D01*
X71405000Y-78125000D01*
X71405000Y-77875000D01*
X71425000Y-77875000D01*
X71425000Y-76285801D01*
X71675000Y-76285801D01*
X71675000Y-77875000D01*
X73264582Y-77875000D01*
X73378245Y-77583876D01*
X73261934Y-77235199D01*
X73079834Y-76915913D01*
X72838944Y-76638288D01*
X72548520Y-76412992D01*
X72219724Y-76248684D01*
X71966123Y-76171758D01*
X71675000Y-76285801D01*
X71425000Y-76285801D01*
X71133877Y-76171758D01*
X70880276Y-76248684D01*
X70551480Y-76412992D01*
X70261056Y-76638288D01*
X70149990Y-76766291D01*
X70149990Y-68425000D01*
X71650001Y-68425000D01*
X71650000Y-70480005D01*
X71643106Y-70550000D01*
X71650000Y-70619994D01*
X71650000Y-70619996D01*
X71670619Y-70829348D01*
X71752102Y-71097961D01*
X71884424Y-71345517D01*
X72062498Y-71562501D01*
X72116871Y-71607124D01*
X76017877Y-75508131D01*
X76062499Y-75562503D01*
X76116869Y-75607123D01*
X76279483Y-75740578D01*
X76527038Y-75872899D01*
X76577753Y-75888283D01*
X76795652Y-75954382D01*
X77005004Y-75975001D01*
X77005007Y-75975001D01*
X77075001Y-75981895D01*
X77144995Y-75975001D01*
X82932886Y-75975001D01*
X82913637Y-75980840D01*
X82535788Y-76182804D01*
X82204602Y-76454602D01*
X81932804Y-76785788D01*
X81730840Y-77163637D01*
X81606471Y-77573626D01*
X81564477Y-78000000D01*
X81606471Y-78426374D01*
X81730840Y-78836363D01*
X81932804Y-79214212D01*
X82204602Y-79545398D01*
X82535788Y-79817196D01*
X82913637Y-80019160D01*
X83323626Y-80143529D01*
X83643158Y-80175000D01*
X83856842Y-80175000D01*
X83905003Y-80170257D01*
X85792876Y-82058130D01*
X85837498Y-82112502D01*
X86054482Y-82290576D01*
X86302038Y-82422898D01*
X86570651Y-82504381D01*
X86780003Y-82525000D01*
X86780005Y-82525000D01*
X86849999Y-82531894D01*
X86919994Y-82525000D01*
X89927723Y-82525000D01*
X89819749Y-82597146D01*
X89447146Y-82969749D01*
X89154393Y-83407884D01*
X88952742Y-83894714D01*
X88849940Y-84411530D01*
X88849940Y-84938470D01*
X88915697Y-85269050D01*
X88834747Y-85350000D01*
X85369206Y-85350000D01*
X85270398Y-85229602D01*
X84939212Y-84957804D01*
X84561363Y-84755840D01*
X84151374Y-84631471D01*
X83831842Y-84600000D01*
X83618158Y-84600000D01*
X83298626Y-84631471D01*
X82888637Y-84755840D01*
X82510788Y-84957804D01*
X82179602Y-85229602D01*
X82050000Y-85387522D01*
X82050000Y-83397256D01*
X82153676Y-83242094D01*
X82283710Y-82928164D01*
X82350000Y-82594898D01*
X82350000Y-82255102D01*
X82283710Y-81921836D01*
X82153676Y-81607906D01*
X81964895Y-81325376D01*
X81724624Y-81085105D01*
X81442094Y-80896324D01*
X81128164Y-80766290D01*
X80794898Y-80700000D01*
X80455102Y-80700000D01*
X80121836Y-80766290D01*
X79807906Y-80896324D01*
X79525376Y-81085105D01*
X79285105Y-81325376D01*
X79096324Y-81607906D01*
X78966290Y-81921836D01*
X78900000Y-82255102D01*
X78900000Y-82594898D01*
X78966290Y-82928164D01*
X79096324Y-83242094D01*
X79200001Y-83397257D01*
X79200000Y-88605005D01*
X79193106Y-88675000D01*
X79200000Y-88744994D01*
X79200000Y-88744996D01*
X79220619Y-88954348D01*
X79302102Y-89222961D01*
X79434424Y-89470517D01*
X79612498Y-89687501D01*
X79666870Y-89732123D01*
X80750000Y-90815255D01*
X80750000Y-90999990D01*
X79600176Y-90999990D01*
X79540009Y-90994064D01*
X79479842Y-90999990D01*
X79479832Y-90999990D01*
X79327434Y-91015000D01*
X79320435Y-91015000D01*
X79275000Y-91010525D01*
X77625000Y-91010525D01*
X77414405Y-91031267D01*
X77211903Y-91092695D01*
X77207591Y-91095000D01*
X77006250Y-91095000D01*
X76850000Y-91251250D01*
X76846976Y-91270000D01*
X76853539Y-91336635D01*
X76727449Y-91490276D01*
X76627695Y-91676903D01*
X76566267Y-91879405D01*
X76545525Y-92090000D01*
X76545525Y-92390000D01*
X76566267Y-92600595D01*
X76627695Y-92803097D01*
X76666128Y-92875000D01*
X76627695Y-92946903D01*
X76566267Y-93149405D01*
X76545525Y-93360000D01*
X76545525Y-93660000D01*
X76566267Y-93870595D01*
X76627695Y-94073097D01*
X76666128Y-94145000D01*
X76627695Y-94216903D01*
X76566267Y-94419405D01*
X76545525Y-94630000D01*
X76545525Y-94930000D01*
X76566267Y-95140595D01*
X76627695Y-95343097D01*
X76727449Y-95529724D01*
X76861696Y-95693304D01*
X77025000Y-95827325D01*
X77025001Y-100829996D01*
X77018106Y-100900000D01*
X77045620Y-101179348D01*
X77127103Y-101447962D01*
X77250782Y-101679348D01*
X77259425Y-101695518D01*
X77437499Y-101912502D01*
X77491870Y-101957123D01*
X79717876Y-104183130D01*
X79762498Y-104237502D01*
X79816868Y-104282122D01*
X79979482Y-104415577D01*
X80227037Y-104547898D01*
X80277752Y-104563282D01*
X80495651Y-104629381D01*
X80705003Y-104650000D01*
X80705006Y-104650000D01*
X80775000Y-104656894D01*
X80844994Y-104650000D01*
X95055006Y-104650000D01*
X95125000Y-104656894D01*
X95194994Y-104650000D01*
X95194997Y-104650000D01*
X95404349Y-104629381D01*
X95672962Y-104547898D01*
X95920518Y-104415576D01*
X96137502Y-104237502D01*
X96182128Y-104183125D01*
X97908135Y-102457119D01*
X97962501Y-102412502D01*
X98050463Y-102305321D01*
X98140577Y-102195518D01*
X98272897Y-101947963D01*
X98272898Y-101947962D01*
X98354381Y-101679349D01*
X98375000Y-101469997D01*
X98375000Y-101469995D01*
X98381894Y-101400000D01*
X98375000Y-101330006D01*
X98375000Y-98448832D01*
X99440887Y-97382945D01*
X99491450Y-97341450D01*
X99657028Y-97139692D01*
X99780063Y-96909509D01*
X99813920Y-96797898D01*
X99855828Y-96659746D01*
X99881411Y-96400000D01*
X99876248Y-96347584D01*
X100373833Y-95850000D01*
X100459909Y-95850000D01*
X100525000Y-95856411D01*
X100590091Y-95850000D01*
X100784745Y-95830828D01*
X101034509Y-95755063D01*
X101264692Y-95632028D01*
X101466450Y-95466450D01*
X101507950Y-95415882D01*
X101748832Y-95175000D01*
X102960481Y-95175000D01*
X102975376Y-95189895D01*
X103257906Y-95378676D01*
X103571836Y-95508710D01*
X103905102Y-95575000D01*
X104244898Y-95575000D01*
X104578164Y-95508710D01*
X104892094Y-95378676D01*
X105174624Y-95189895D01*
X105189519Y-95175000D01*
X108419000Y-95175000D01*
X108447125Y-95227618D01*
X108580579Y-95390232D01*
X108742584Y-95552237D01*
X108778990Y-95735264D01*
X108909024Y-96049194D01*
X109097805Y-96331724D01*
X109338076Y-96571995D01*
X109620606Y-96760776D01*
X109934536Y-96890810D01*
X110117561Y-96927216D01*
X110248444Y-97058099D01*
X110091096Y-97081286D01*
X109826714Y-97175600D01*
X109700393Y-97243121D01*
X109628412Y-97484535D01*
X110437700Y-98293823D01*
X110451842Y-98279681D01*
X110628619Y-98456458D01*
X110614477Y-98470600D01*
X111423765Y-99279888D01*
X111665179Y-99207907D01*
X111785435Y-98954270D01*
X111853898Y-98682047D01*
X111867937Y-98401697D01*
X111827014Y-98123996D01*
X111732700Y-97859614D01*
X111665179Y-97733293D01*
X111553519Y-97700000D01*
X114255005Y-97700000D01*
X114324999Y-97706894D01*
X114394993Y-97700000D01*
X114394996Y-97700000D01*
X114604348Y-97679381D01*
X114872961Y-97597898D01*
X115120517Y-97465576D01*
X115337501Y-97287502D01*
X115382126Y-97233126D01*
X116307478Y-96307776D01*
X116352170Y-96391389D01*
X116467762Y-96532238D01*
X116608611Y-96647830D01*
X116769305Y-96733723D01*
X116943668Y-96786615D01*
X117125000Y-96804475D01*
X117664222Y-96804475D01*
X119165697Y-98305951D01*
X119099940Y-98636530D01*
X119099940Y-99163470D01*
X119202742Y-99680286D01*
X119404393Y-100167116D01*
X119697146Y-100605251D01*
X120069749Y-100977854D01*
X120507884Y-101270607D01*
X120994714Y-101472258D01*
X121511530Y-101575060D01*
X122038470Y-101575060D01*
X122555286Y-101472258D01*
X123042116Y-101270607D01*
X123480251Y-100977854D01*
X123852854Y-100605251D01*
X124145607Y-100167116D01*
X124347258Y-99680286D01*
X124450060Y-99163470D01*
X124450060Y-98636530D01*
X124347258Y-98119714D01*
X124145607Y-97632884D01*
X123852854Y-97194749D01*
X123480251Y-96822146D01*
X123042116Y-96529393D01*
X122555286Y-96327742D01*
X122038470Y-96224940D01*
X121511530Y-96224940D01*
X121180951Y-96290697D01*
X120310775Y-95420521D01*
X124162524Y-95420521D01*
X124203547Y-95555773D01*
X124323117Y-95808240D01*
X124489643Y-96032529D01*
X124696726Y-96220020D01*
X124936408Y-96363509D01*
X125199478Y-96457481D01*
X125420000Y-96338262D01*
X125420000Y-95200000D01*
X125670000Y-95200000D01*
X125670000Y-96338262D01*
X125890522Y-96457481D01*
X126153592Y-96363509D01*
X126393274Y-96220020D01*
X126600357Y-96032529D01*
X126766883Y-95808240D01*
X126886453Y-95555773D01*
X126927476Y-95420521D01*
X126807577Y-95200000D01*
X125670000Y-95200000D01*
X125420000Y-95200000D01*
X124282423Y-95200000D01*
X124162524Y-95420521D01*
X120310775Y-95420521D01*
X119654475Y-94764222D01*
X119654475Y-94729479D01*
X124162524Y-94729479D01*
X124282423Y-94950000D01*
X125420000Y-94950000D01*
X125420000Y-93811738D01*
X125670000Y-93811738D01*
X125670000Y-94950000D01*
X126807577Y-94950000D01*
X126927476Y-94729479D01*
X126886453Y-94594227D01*
X126766883Y-94341760D01*
X126600357Y-94117471D01*
X126393274Y-93929980D01*
X126153592Y-93786491D01*
X125890522Y-93692519D01*
X125670000Y-93811738D01*
X125420000Y-93811738D01*
X125199478Y-93692519D01*
X124936408Y-93786491D01*
X124696726Y-93929980D01*
X124489643Y-94117471D01*
X124323117Y-94341760D01*
X124203547Y-94594227D01*
X124162524Y-94729479D01*
X119654475Y-94729479D01*
X119654475Y-94275000D01*
X119636615Y-94093668D01*
X119583723Y-93919305D01*
X119497830Y-93758611D01*
X119382238Y-93617762D01*
X119350000Y-93591305D01*
X119350000Y-91858695D01*
X119382238Y-91832238D01*
X119497830Y-91691389D01*
X119583723Y-91530695D01*
X119636615Y-91356332D01*
X119654475Y-91175000D01*
X119654475Y-89575000D01*
X119636615Y-89393668D01*
X119583723Y-89219305D01*
X119497830Y-89058611D01*
X119382238Y-88917762D01*
X119350000Y-88891305D01*
X119350000Y-87739654D01*
X119387552Y-87648995D01*
X119450000Y-87335049D01*
X119450000Y-87014951D01*
X119387552Y-86701005D01*
X119265057Y-86405274D01*
X119087220Y-86139123D01*
X119009045Y-86060948D01*
X119156694Y-85982028D01*
X119358452Y-85816450D01*
X119399951Y-85765883D01*
X120795890Y-84369945D01*
X120846451Y-84328451D01*
X121012029Y-84126693D01*
X121135064Y-83896510D01*
X121210829Y-83646746D01*
X121230001Y-83452092D01*
X121230001Y-83452091D01*
X121236412Y-83387002D01*
X121230001Y-83321913D01*
X121230001Y-83245165D01*
X122215902Y-82259265D01*
X122266459Y-82217774D01*
X122316385Y-82156939D01*
X122432037Y-82016017D01*
X122555073Y-81785833D01*
X122630838Y-81536070D01*
X122656421Y-81276324D01*
X122650009Y-81211223D01*
X122650011Y-77423822D01*
X123515890Y-76557943D01*
X123566451Y-76516449D01*
X123732029Y-76314691D01*
X123855064Y-76084508D01*
X123930829Y-75834744D01*
X123950001Y-75640090D01*
X123950001Y-75640089D01*
X123956412Y-75575000D01*
X123950001Y-75509911D01*
X123950001Y-74523831D01*
X124275505Y-74198327D01*
X124208802Y-74463553D01*
X124194763Y-74743903D01*
X124235686Y-75021604D01*
X124330000Y-75285986D01*
X124397521Y-75412307D01*
X124638935Y-75484288D01*
X125448223Y-74675000D01*
X125434081Y-74660858D01*
X125610858Y-74484081D01*
X125625000Y-74498223D01*
X125639142Y-74484081D01*
X125815919Y-74660858D01*
X125801777Y-74675000D01*
X125815919Y-74689142D01*
X125639142Y-74865919D01*
X125625000Y-74851777D01*
X124815712Y-75661065D01*
X124887693Y-75902479D01*
X125141330Y-76022735D01*
X125413553Y-76091198D01*
X125693903Y-76105237D01*
X125971604Y-76064314D01*
X126235986Y-75970000D01*
X126320473Y-75924840D01*
X126274161Y-76077511D01*
X126248578Y-76337256D01*
X126254989Y-76402347D01*
X126254989Y-77277062D01*
X126098995Y-77212448D01*
X125785049Y-77150000D01*
X125464951Y-77150000D01*
X125151005Y-77212448D01*
X124855274Y-77334943D01*
X124589123Y-77512780D01*
X124362780Y-77739123D01*
X124184943Y-78005274D01*
X124062448Y-78301005D01*
X124000000Y-78614951D01*
X124000000Y-78935049D01*
X124062448Y-79248995D01*
X124184943Y-79544726D01*
X124200001Y-79567262D01*
X124200000Y-81682739D01*
X124184943Y-81705274D01*
X124062448Y-82001005D01*
X124022045Y-82204122D01*
X122654112Y-83572056D01*
X122603550Y-83613551D01*
X122472642Y-83773063D01*
X122437972Y-83815309D01*
X122314936Y-84045493D01*
X122239171Y-84295256D01*
X122213588Y-84555001D01*
X122220000Y-84620102D01*
X122219999Y-88309908D01*
X122213588Y-88374999D01*
X122239171Y-88634744D01*
X122289289Y-88799960D01*
X122314936Y-88884507D01*
X122437971Y-89114690D01*
X122603549Y-89316449D01*
X122654117Y-89357949D01*
X123827003Y-90530835D01*
X123844960Y-90713159D01*
X123943597Y-91038323D01*
X124103775Y-91337995D01*
X124319339Y-91600661D01*
X124582005Y-91816225D01*
X124881677Y-91976403D01*
X125206841Y-92075040D01*
X125460262Y-92100000D01*
X125629738Y-92100000D01*
X125883159Y-92075040D01*
X126208323Y-91976403D01*
X126507995Y-91816225D01*
X126770661Y-91600661D01*
X126986225Y-91337995D01*
X127146403Y-91038323D01*
X127245040Y-90713159D01*
X127278346Y-90375000D01*
X127245040Y-90036841D01*
X127146403Y-89711677D01*
X126986225Y-89412005D01*
X126770661Y-89149339D01*
X126507995Y-88933775D01*
X126208323Y-88773597D01*
X125883159Y-88674960D01*
X125700835Y-88657003D01*
X125543832Y-88500000D01*
X125570002Y-88500000D01*
X125570002Y-88337847D01*
X125774813Y-88458301D01*
X126018835Y-88369299D01*
X126240805Y-88234401D01*
X126432193Y-88058791D01*
X126585643Y-87849217D01*
X126695259Y-87613734D01*
X126728296Y-87504812D01*
X126607046Y-87300000D01*
X125570000Y-87300000D01*
X125570000Y-87320000D01*
X125320000Y-87320000D01*
X125320000Y-87300000D01*
X125300000Y-87300000D01*
X125300000Y-87050000D01*
X125320000Y-87050000D01*
X125320000Y-86012154D01*
X125570000Y-86012154D01*
X125570000Y-87050000D01*
X126607046Y-87050000D01*
X126728296Y-86845188D01*
X126695259Y-86736266D01*
X126585643Y-86500783D01*
X126432193Y-86291209D01*
X126240805Y-86115599D01*
X126018835Y-85980701D01*
X125774813Y-85891699D01*
X125570000Y-86012154D01*
X125320000Y-86012154D01*
X125115187Y-85891699D01*
X124871165Y-85980701D01*
X124869999Y-85981410D01*
X124869999Y-85103833D01*
X125782446Y-84191387D01*
X125904348Y-84179381D01*
X126172961Y-84097898D01*
X126420517Y-83965576D01*
X126637501Y-83787502D01*
X126760642Y-83637455D01*
X126818509Y-83579588D01*
X129129808Y-85890887D01*
X129171303Y-85941449D01*
X129373061Y-86107027D01*
X129543069Y-86197898D01*
X129603244Y-86230062D01*
X129720141Y-86265522D01*
X129559943Y-86505274D01*
X129437448Y-86801005D01*
X129375000Y-87114951D01*
X129375000Y-87435049D01*
X129437448Y-87748995D01*
X129559943Y-88044726D01*
X129575001Y-88067261D01*
X129575000Y-89016305D01*
X129542762Y-89042762D01*
X129427170Y-89183611D01*
X129341277Y-89344305D01*
X129288385Y-89518668D01*
X129270525Y-89700000D01*
X129270525Y-91300000D01*
X129288385Y-91481332D01*
X129341277Y-91655695D01*
X129427170Y-91816389D01*
X129542762Y-91957238D01*
X129575001Y-91983696D01*
X129575000Y-93716305D01*
X129542762Y-93742762D01*
X129427170Y-93883611D01*
X129341277Y-94044305D01*
X129288385Y-94218668D01*
X129270525Y-94400000D01*
X129270525Y-96000000D01*
X129288385Y-96181332D01*
X129341277Y-96355695D01*
X129427170Y-96516389D01*
X129542762Y-96657238D01*
X129683611Y-96772830D01*
X129844305Y-96858723D01*
X130018668Y-96911615D01*
X130200000Y-96929475D01*
X130439222Y-96929475D01*
X131915697Y-98405950D01*
X131849940Y-98736530D01*
X131849940Y-99263470D01*
X131952742Y-99780286D01*
X132154393Y-100267116D01*
X132447146Y-100705251D01*
X132819749Y-101077854D01*
X133257884Y-101370607D01*
X133744714Y-101572258D01*
X134261530Y-101675060D01*
X134788470Y-101675060D01*
X135305286Y-101572258D01*
X135792116Y-101370607D01*
X136230251Y-101077854D01*
X136602854Y-100705251D01*
X136895607Y-100267116D01*
X137097258Y-99780286D01*
X137200060Y-99263470D01*
X137200060Y-98736530D01*
X137097258Y-98219714D01*
X136895607Y-97732884D01*
X136602854Y-97294749D01*
X136230251Y-96922146D01*
X135792116Y-96629393D01*
X135305286Y-96427742D01*
X134788470Y-96324940D01*
X134261530Y-96324940D01*
X133930950Y-96390697D01*
X133085774Y-95545521D01*
X137237524Y-95545521D01*
X137278547Y-95680773D01*
X137398117Y-95933240D01*
X137564643Y-96157529D01*
X137771726Y-96345020D01*
X138011408Y-96488509D01*
X138274478Y-96582481D01*
X138495000Y-96463262D01*
X138495000Y-95325000D01*
X138745000Y-95325000D01*
X138745000Y-96463262D01*
X138965522Y-96582481D01*
X139228592Y-96488509D01*
X139468274Y-96345020D01*
X139675357Y-96157529D01*
X139841883Y-95933240D01*
X139961453Y-95680773D01*
X140002476Y-95545521D01*
X139882577Y-95325000D01*
X138745000Y-95325000D01*
X138495000Y-95325000D01*
X137357423Y-95325000D01*
X137237524Y-95545521D01*
X133085774Y-95545521D01*
X132729475Y-95189222D01*
X132729475Y-94854479D01*
X137237524Y-94854479D01*
X137357423Y-95075000D01*
X138495000Y-95075000D01*
X138495000Y-93936738D01*
X138745000Y-93936738D01*
X138745000Y-95075000D01*
X139882577Y-95075000D01*
X140002476Y-94854479D01*
X139961453Y-94719227D01*
X139841883Y-94466760D01*
X139675357Y-94242471D01*
X139468274Y-94054980D01*
X139228592Y-93911491D01*
X138965522Y-93817519D01*
X138745000Y-93936738D01*
X138495000Y-93936738D01*
X138274478Y-93817519D01*
X138011408Y-93911491D01*
X137771726Y-94054980D01*
X137564643Y-94242471D01*
X137398117Y-94466760D01*
X137278547Y-94719227D01*
X137237524Y-94854479D01*
X132729475Y-94854479D01*
X132729475Y-94400000D01*
X132711615Y-94218668D01*
X132658723Y-94044305D01*
X132572830Y-93883611D01*
X132457238Y-93742762D01*
X132425000Y-93716305D01*
X132425000Y-91983695D01*
X132457238Y-91957238D01*
X132572830Y-91816389D01*
X132658723Y-91655695D01*
X132711615Y-91481332D01*
X132729475Y-91300000D01*
X132729475Y-89700000D01*
X132711615Y-89518668D01*
X132658723Y-89344305D01*
X132572830Y-89183611D01*
X132457238Y-89042762D01*
X132425000Y-89016305D01*
X132425000Y-88067260D01*
X132440057Y-88044726D01*
X132562552Y-87748995D01*
X132625000Y-87435049D01*
X132625000Y-87114951D01*
X132562552Y-86801005D01*
X132440057Y-86505274D01*
X132284031Y-86271766D01*
X132421510Y-86230062D01*
X132651693Y-86107027D01*
X132853451Y-85941449D01*
X132894950Y-85890882D01*
X133870890Y-84914943D01*
X133921451Y-84873449D01*
X134087029Y-84671691D01*
X134149400Y-84555001D01*
X135188105Y-84555001D01*
X135195000Y-84625005D01*
X135194999Y-88430004D01*
X135188105Y-88499999D01*
X135194999Y-88569993D01*
X135194999Y-88569995D01*
X135215618Y-88779347D01*
X135297101Y-89047960D01*
X135429423Y-89295516D01*
X135607497Y-89512500D01*
X135661870Y-89557123D01*
X136917453Y-90812707D01*
X136919960Y-90838159D01*
X137018597Y-91163323D01*
X137178775Y-91462995D01*
X137394339Y-91725661D01*
X137657005Y-91941225D01*
X137956677Y-92101403D01*
X138281841Y-92200040D01*
X138535262Y-92225000D01*
X138704738Y-92225000D01*
X138958159Y-92200040D01*
X139283323Y-92101403D01*
X139582995Y-91941225D01*
X139845661Y-91725661D01*
X140061225Y-91462995D01*
X140221403Y-91163323D01*
X140320040Y-90838159D01*
X140353346Y-90500000D01*
X140320040Y-90161841D01*
X140221403Y-89836677D01*
X140061225Y-89537005D01*
X139845661Y-89274339D01*
X139582995Y-89058775D01*
X139283323Y-88898597D01*
X138958159Y-88799960D01*
X138932707Y-88797453D01*
X138735254Y-88600000D01*
X138745002Y-88600000D01*
X138745002Y-88437847D01*
X138949813Y-88558301D01*
X139193835Y-88469299D01*
X139415805Y-88334401D01*
X139607193Y-88158791D01*
X139760643Y-87949217D01*
X139870259Y-87713734D01*
X139903296Y-87604812D01*
X139782046Y-87400000D01*
X138745000Y-87400000D01*
X138745000Y-87420000D01*
X138495000Y-87420000D01*
X138495000Y-87400000D01*
X138475000Y-87400000D01*
X138475000Y-87150000D01*
X138495000Y-87150000D01*
X138495000Y-86112154D01*
X138745000Y-86112154D01*
X138745000Y-87150000D01*
X139782046Y-87150000D01*
X139903296Y-86945188D01*
X139870259Y-86836266D01*
X139760643Y-86600783D01*
X139607193Y-86391209D01*
X139415805Y-86215599D01*
X139193835Y-86080701D01*
X138949813Y-85991699D01*
X138745000Y-86112154D01*
X138495000Y-86112154D01*
X138290187Y-85991699D01*
X138046165Y-86080701D01*
X138044999Y-86081410D01*
X138044999Y-85145254D01*
X139057123Y-84133131D01*
X139057128Y-84133125D01*
X139147414Y-84042839D01*
X139173995Y-84037552D01*
X139469726Y-83915057D01*
X139735877Y-83737220D01*
X139962220Y-83510877D01*
X140140057Y-83244726D01*
X140262552Y-82948995D01*
X140325000Y-82635049D01*
X140325000Y-82314951D01*
X140262552Y-82001005D01*
X140140057Y-81705274D01*
X140125000Y-81682740D01*
X140125000Y-79692260D01*
X140140057Y-79669726D01*
X140262552Y-79373995D01*
X140325000Y-79060049D01*
X140325000Y-78739951D01*
X140262552Y-78426005D01*
X140140057Y-78130274D01*
X139962220Y-77864123D01*
X139735877Y-77637780D01*
X139469726Y-77459943D01*
X139173995Y-77337448D01*
X138860049Y-77275000D01*
X138539951Y-77275000D01*
X138226005Y-77337448D01*
X137930274Y-77459943D01*
X137664123Y-77637780D01*
X137437780Y-77864123D01*
X137259943Y-78130274D01*
X137137448Y-78426005D01*
X137075000Y-78739951D01*
X137075000Y-79060049D01*
X137137448Y-79373995D01*
X137259943Y-79669726D01*
X137275001Y-79692261D01*
X137275000Y-81682739D01*
X137259943Y-81705274D01*
X137137448Y-82001005D01*
X137132161Y-82027586D01*
X137041875Y-82117872D01*
X137041869Y-82117877D01*
X135661869Y-83497878D01*
X135607498Y-83542499D01*
X135562877Y-83596870D01*
X135429423Y-83759484D01*
X135302420Y-83997089D01*
X135297102Y-84007039D01*
X135215817Y-84275001D01*
X135215619Y-84275653D01*
X135188105Y-84555001D01*
X134149400Y-84555001D01*
X134210064Y-84441508D01*
X134223974Y-84395653D01*
X134285829Y-84191745D01*
X134311412Y-83932000D01*
X134305001Y-83866909D01*
X134305001Y-80865091D01*
X134311412Y-80800000D01*
X134285829Y-80540255D01*
X134210064Y-80290492D01*
X134145284Y-80169297D01*
X134087029Y-80060309D01*
X133921451Y-79858551D01*
X133870889Y-79817056D01*
X132686536Y-78632703D01*
X132681487Y-78581444D01*
X132588568Y-78275131D01*
X132437675Y-77992830D01*
X132234608Y-77745392D01*
X131987170Y-77542325D01*
X131704869Y-77391432D01*
X131398556Y-77298513D01*
X131159824Y-77275000D01*
X131000176Y-77275000D01*
X130761444Y-77298513D01*
X130752652Y-77301180D01*
X131963833Y-76090000D01*
X134672744Y-76090000D01*
X134827906Y-76193676D01*
X135141836Y-76323710D01*
X135475102Y-76390000D01*
X135814898Y-76390000D01*
X136148164Y-76323710D01*
X136462094Y-76193676D01*
X136744624Y-76004895D01*
X136984895Y-75764624D01*
X137060772Y-75651065D01*
X137335712Y-75651065D01*
X137407693Y-75892479D01*
X137661330Y-76012735D01*
X137933553Y-76081198D01*
X138213903Y-76095237D01*
X138491604Y-76054314D01*
X138755986Y-75960000D01*
X138882307Y-75892479D01*
X138954288Y-75651065D01*
X138145000Y-74841777D01*
X137335712Y-75651065D01*
X137060772Y-75651065D01*
X137173676Y-75482094D01*
X137189619Y-75443604D01*
X137968223Y-74665000D01*
X138321777Y-74665000D01*
X139131065Y-75474288D01*
X139372479Y-75402307D01*
X139492735Y-75148670D01*
X139561198Y-74876447D01*
X139575237Y-74596097D01*
X139534314Y-74318396D01*
X139440000Y-74054014D01*
X139372479Y-73927693D01*
X139131065Y-73855712D01*
X138321777Y-74665000D01*
X137968223Y-74665000D01*
X137189619Y-73886396D01*
X137173676Y-73847906D01*
X137060773Y-73678935D01*
X137335712Y-73678935D01*
X138145000Y-74488223D01*
X138954288Y-73678935D01*
X138882307Y-73437521D01*
X138628670Y-73317265D01*
X138356447Y-73248802D01*
X138076097Y-73234763D01*
X137798396Y-73275686D01*
X137534014Y-73370000D01*
X137407693Y-73437521D01*
X137335712Y-73678935D01*
X137060773Y-73678935D01*
X136984895Y-73565376D01*
X136744624Y-73325105D01*
X136462094Y-73136324D01*
X136148164Y-73006290D01*
X135814898Y-72940000D01*
X135475102Y-72940000D01*
X135141836Y-73006290D01*
X134827906Y-73136324D01*
X134672744Y-73240000D01*
X132105254Y-73240000D01*
X130870000Y-72004747D01*
X130870000Y-71511478D01*
X131022005Y-71636225D01*
X131321677Y-71796403D01*
X131646841Y-71895040D01*
X131900262Y-71920000D01*
X132069738Y-71920000D01*
X132323159Y-71895040D01*
X132648323Y-71796403D01*
X132947995Y-71636225D01*
X133210661Y-71420661D01*
X133426225Y-71157995D01*
X133447615Y-71117977D01*
X133567471Y-71250357D01*
X133791760Y-71416883D01*
X134044227Y-71536453D01*
X134179479Y-71577476D01*
X134400000Y-71457577D01*
X134400000Y-70320000D01*
X134650000Y-70320000D01*
X134650000Y-71457577D01*
X134870521Y-71577476D01*
X135005773Y-71536453D01*
X135258240Y-71416883D01*
X135482529Y-71250357D01*
X135670020Y-71043274D01*
X135813509Y-70803592D01*
X135907481Y-70540522D01*
X135788262Y-70320000D01*
X134650000Y-70320000D01*
X134400000Y-70320000D01*
X134380000Y-70320000D01*
X134380000Y-70070000D01*
X134400000Y-70070000D01*
X134400000Y-68932423D01*
X134650000Y-68932423D01*
X134650000Y-70070000D01*
X135788262Y-70070000D01*
X135907481Y-69849478D01*
X135813509Y-69586408D01*
X135670020Y-69346726D01*
X135482529Y-69139643D01*
X135476024Y-69134813D01*
X136411699Y-69134813D01*
X136500701Y-69378835D01*
X136635599Y-69600805D01*
X136811209Y-69792193D01*
X137020783Y-69945643D01*
X137256266Y-70055259D01*
X137365188Y-70088296D01*
X137570000Y-69967046D01*
X137570000Y-68930000D01*
X137820000Y-68930000D01*
X137820000Y-69967046D01*
X138024812Y-70088296D01*
X138133734Y-70055259D01*
X138369217Y-69945643D01*
X138578791Y-69792193D01*
X138754401Y-69600805D01*
X138889299Y-69378835D01*
X138978301Y-69134813D01*
X138857846Y-68930000D01*
X137820000Y-68930000D01*
X137570000Y-68930000D01*
X136532154Y-68930000D01*
X136411699Y-69134813D01*
X135476024Y-69134813D01*
X135258240Y-68973117D01*
X135005773Y-68853547D01*
X134870521Y-68812524D01*
X134650000Y-68932423D01*
X134400000Y-68932423D01*
X134226043Y-68837841D01*
X134588697Y-68475187D01*
X136411699Y-68475187D01*
X136532154Y-68680000D01*
X137570000Y-68680000D01*
X137570000Y-67642954D01*
X137820000Y-67642954D01*
X137820000Y-68680000D01*
X138857846Y-68680000D01*
X138978301Y-68475187D01*
X138889299Y-68231165D01*
X138754401Y-68009195D01*
X138578791Y-67817807D01*
X138369217Y-67664357D01*
X138133734Y-67554741D01*
X138024812Y-67521704D01*
X137820000Y-67642954D01*
X137570000Y-67642954D01*
X137365188Y-67521704D01*
X137256266Y-67554741D01*
X137020783Y-67664357D01*
X136811209Y-67817807D01*
X136635599Y-68009195D01*
X136500701Y-68231165D01*
X136411699Y-68475187D01*
X134588697Y-68475187D01*
X138653140Y-64410744D01*
X138707501Y-64366132D01*
X138752115Y-64311770D01*
X138752122Y-64311763D01*
X138885576Y-64149149D01*
X139006475Y-63922962D01*
X139017898Y-63901592D01*
X139099381Y-63632979D01*
X139120000Y-63423627D01*
X139120000Y-63423618D01*
X139126893Y-63353631D01*
X139120000Y-63283644D01*
X139120000Y-61977260D01*
X139135057Y-61954726D01*
X139257552Y-61658995D01*
X139320000Y-61345049D01*
X139320000Y-61024951D01*
X139257552Y-60711005D01*
X139135057Y-60415274D01*
X139120000Y-60392740D01*
X139120000Y-57874994D01*
X139126894Y-57805000D01*
X139119639Y-57731337D01*
X139099381Y-57525651D01*
X139017898Y-57257038D01*
X139017898Y-57257037D01*
X138885577Y-57009482D01*
X138811762Y-56919539D01*
X138707502Y-56792498D01*
X138653125Y-56747872D01*
X138574475Y-56669222D01*
X138574475Y-56155000D01*
X138556615Y-55973668D01*
X138503723Y-55799305D01*
X138417830Y-55638611D01*
X138302238Y-55497762D01*
X138270000Y-55471305D01*
X138270000Y-55397765D01*
X138286225Y-55377995D01*
X138446403Y-55078323D01*
X138545040Y-54753159D01*
X138578346Y-54415000D01*
X138545040Y-54076841D01*
X138446403Y-53751677D01*
X138286225Y-53452005D01*
X138270000Y-53432235D01*
X138270000Y-52857765D01*
X138286225Y-52837995D01*
X138446403Y-52538323D01*
X138545040Y-52213159D01*
X138578346Y-51875000D01*
X138545040Y-51536841D01*
X138446403Y-51211677D01*
X138286225Y-50912005D01*
X138270000Y-50892235D01*
X138270000Y-50317765D01*
X138286225Y-50297995D01*
X138446403Y-49998323D01*
X138545040Y-49673159D01*
X138578346Y-49335000D01*
X138545040Y-48996841D01*
X138446403Y-48671677D01*
X138286225Y-48372005D01*
X138270000Y-48352235D01*
X138270000Y-47777765D01*
X138286225Y-47757995D01*
X138446403Y-47458323D01*
X138545040Y-47133159D01*
X138578346Y-46795000D01*
X138545040Y-46456841D01*
X138446403Y-46131677D01*
X138286225Y-45832005D01*
X138270000Y-45812235D01*
X138270000Y-45237765D01*
X138286225Y-45217995D01*
X138446403Y-44918323D01*
X138545040Y-44593159D01*
X138578346Y-44255000D01*
X138545040Y-43916841D01*
X138446403Y-43591677D01*
X138286225Y-43292005D01*
X138070661Y-43029339D01*
X137807995Y-42813775D01*
X137508323Y-42653597D01*
X137183159Y-42554960D01*
X136929738Y-42530000D01*
X136760262Y-42530000D01*
X136506841Y-42554960D01*
X136181677Y-42653597D01*
X135882005Y-42813775D01*
X135619339Y-43029339D01*
X135403775Y-43292005D01*
X135243597Y-43591677D01*
X135144960Y-43916841D01*
X135111654Y-44255000D01*
X135144960Y-44593159D01*
X135243597Y-44918323D01*
X135403775Y-45217995D01*
X135420001Y-45237766D01*
X135420000Y-45812234D01*
X135403775Y-45832005D01*
X135243597Y-46131677D01*
X135144960Y-46456841D01*
X135111654Y-46795000D01*
X135144960Y-47133159D01*
X135243597Y-47458323D01*
X135403775Y-47757995D01*
X135420001Y-47777766D01*
X135420000Y-48352234D01*
X135403775Y-48372005D01*
X135243597Y-48671677D01*
X135144960Y-48996841D01*
X135111654Y-49335000D01*
X135144960Y-49673159D01*
X135243597Y-49998323D01*
X135403775Y-50297995D01*
X135420001Y-50317766D01*
X135420000Y-50892234D01*
X135403775Y-50912005D01*
X135243597Y-51211677D01*
X135144960Y-51536841D01*
X135111654Y-51875000D01*
X135144960Y-52213159D01*
X135243597Y-52538323D01*
X135403775Y-52837995D01*
X135420001Y-52857766D01*
X135420000Y-53432234D01*
X135403775Y-53452005D01*
X135243597Y-53751677D01*
X135144960Y-54076841D01*
X135111654Y-54415000D01*
X135144960Y-54753159D01*
X135243597Y-55078323D01*
X135403775Y-55377995D01*
X135420001Y-55397766D01*
X135420001Y-55471304D01*
X135387762Y-55497762D01*
X135272170Y-55638611D01*
X135186277Y-55799305D01*
X135133385Y-55973668D01*
X135115525Y-56155000D01*
X135115525Y-57755000D01*
X135133385Y-57936332D01*
X135186277Y-58110695D01*
X135272170Y-58271389D01*
X135387762Y-58412238D01*
X135528611Y-58527830D01*
X135689305Y-58613723D01*
X135863668Y-58666615D01*
X136045000Y-58684475D01*
X136270001Y-58684475D01*
X136270000Y-60392739D01*
X136254943Y-60415274D01*
X136132448Y-60711005D01*
X136070000Y-61024951D01*
X136070000Y-61224700D01*
X135982238Y-61117762D01*
X135841389Y-61002170D01*
X135680695Y-60916277D01*
X135506332Y-60863385D01*
X135384657Y-60851401D01*
X133188002Y-58654747D01*
X133188002Y-43754986D01*
X133194895Y-43684999D01*
X133188002Y-43615012D01*
X133188002Y-43615003D01*
X133167383Y-43405651D01*
X133085900Y-43137038D01*
X132953578Y-42889482D01*
X132775504Y-42672498D01*
X132721132Y-42627876D01*
X131191132Y-41097877D01*
X131028518Y-40964423D01*
X130780963Y-40832102D01*
X130512349Y-40750619D01*
X130259555Y-40725720D01*
X129097951Y-39564116D01*
X129056451Y-39513549D01*
X128854693Y-39347971D01*
X128624510Y-39224936D01*
X128374746Y-39149171D01*
X128180092Y-39129999D01*
X128115001Y-39123588D01*
X128049910Y-39129999D01*
X124628090Y-39129999D01*
X124562999Y-39123588D01*
X124303253Y-39149171D01*
X124120064Y-39204741D01*
X124053490Y-39224936D01*
X123823307Y-39347971D01*
X123621549Y-39513549D01*
X123580054Y-39564112D01*
X122651168Y-40492998D01*
X120686032Y-40492998D01*
X120645888Y-40460053D01*
X119749950Y-39564116D01*
X119708451Y-39513549D01*
X119506693Y-39347971D01*
X119276510Y-39224936D01*
X119026746Y-39149171D01*
X118832092Y-39129999D01*
X118767001Y-39123588D01*
X118701910Y-39129999D01*
X116010089Y-39129999D01*
X115945000Y-39123588D01*
X115879911Y-39129999D01*
X115879910Y-39129999D01*
X115685256Y-39149171D01*
X115435492Y-39224936D01*
X115205309Y-39347971D01*
X115003551Y-39513549D01*
X114962055Y-39564112D01*
X114357377Y-40168790D01*
X114320000Y-40064014D01*
X114252479Y-39937693D01*
X114011065Y-39865712D01*
X113201777Y-40675000D01*
X113215919Y-40689142D01*
X113039142Y-40865919D01*
X113025000Y-40851777D01*
X112246396Y-41630381D01*
X112207906Y-41646324D01*
X112052744Y-41750000D01*
X111894986Y-41750000D01*
X111824999Y-41743107D01*
X111755012Y-41750000D01*
X111755003Y-41750000D01*
X111545651Y-41770619D01*
X111277038Y-41852102D01*
X111029482Y-41984424D01*
X110812498Y-42162498D01*
X110767876Y-42216870D01*
X108966869Y-44017878D01*
X108912498Y-44062499D01*
X108867877Y-44116870D01*
X108734423Y-44279484D01*
X108634095Y-44467185D01*
X108602102Y-44527039D01*
X108528216Y-44770610D01*
X108520619Y-44795653D01*
X108493105Y-45075001D01*
X108500000Y-45145005D01*
X108499999Y-46616417D01*
X108455274Y-46634943D01*
X108189123Y-46812780D01*
X107962780Y-47039123D01*
X107784943Y-47305274D01*
X107662448Y-47601005D01*
X107600000Y-47914951D01*
X107600000Y-48235049D01*
X107662448Y-48548995D01*
X107784943Y-48844726D01*
X107962780Y-49110877D01*
X108189123Y-49337220D01*
X108395325Y-49475000D01*
X107921640Y-49475000D01*
X107851791Y-49405151D01*
X107536588Y-49194539D01*
X107186353Y-49049467D01*
X106814546Y-48975510D01*
X106435454Y-48975510D01*
X106063647Y-49049467D01*
X105713412Y-49194539D01*
X105398209Y-49405151D01*
X105130151Y-49673209D01*
X104919539Y-49988412D01*
X104774467Y-50338647D01*
X104700510Y-50710454D01*
X104700510Y-51089546D01*
X104774467Y-51461353D01*
X104919539Y-51811588D01*
X105130151Y-52126791D01*
X105398209Y-52394849D01*
X105713412Y-52605461D01*
X106063647Y-52750533D01*
X106435454Y-52824490D01*
X106814546Y-52824490D01*
X107186353Y-52750533D01*
X107536588Y-52605461D01*
X107851791Y-52394849D01*
X107921640Y-52325000D01*
X115199747Y-52325000D01*
X116177161Y-53302414D01*
X116182448Y-53328995D01*
X116304943Y-53624726D01*
X116320000Y-53647261D01*
X116320001Y-55762739D01*
X116304943Y-55785274D01*
X116182448Y-56081005D01*
X116120000Y-56394951D01*
X116120000Y-56715049D01*
X116182448Y-57028995D01*
X116304943Y-57324726D01*
X116482780Y-57590877D01*
X116709123Y-57817220D01*
X116975274Y-57995057D01*
X117271005Y-58117552D01*
X117584951Y-58180000D01*
X117905049Y-58180000D01*
X118218995Y-58117552D01*
X118514726Y-57995057D01*
X118686920Y-57880000D01*
X122004166Y-57880000D01*
X122649165Y-58525000D01*
X122589951Y-58525000D01*
X122276005Y-58587448D01*
X121980274Y-58709943D01*
X121714123Y-58887780D01*
X121487780Y-59114123D01*
X121309943Y-59380274D01*
X121187448Y-59676005D01*
X121125000Y-59989951D01*
X121125000Y-60310049D01*
X121187448Y-60623995D01*
X121309943Y-60919726D01*
X121487780Y-61185877D01*
X121714123Y-61412220D01*
X121980274Y-61590057D01*
X122276005Y-61712552D01*
X122589951Y-61775000D01*
X122910049Y-61775000D01*
X123223995Y-61712552D01*
X123519726Y-61590057D01*
X123542260Y-61575000D01*
X123624085Y-61575000D01*
X123674963Y-61580011D01*
X123674966Y-61580011D01*
X123744960Y-61586905D01*
X123814954Y-61580011D01*
X125892814Y-61580011D01*
X125759980Y-61726726D01*
X125616491Y-61966408D01*
X125522519Y-62229478D01*
X125641738Y-62450000D01*
X126780000Y-62450000D01*
X126780000Y-62430000D01*
X127030000Y-62430000D01*
X127030000Y-62450000D01*
X127050000Y-62450000D01*
X127050000Y-62700000D01*
X127030000Y-62700000D01*
X127030000Y-63837577D01*
X127250521Y-63957476D01*
X127385773Y-63916453D01*
X127638240Y-63796883D01*
X127862529Y-63630357D01*
X127982385Y-63497977D01*
X128003775Y-63537995D01*
X128219339Y-63800661D01*
X128482005Y-64016225D01*
X128781677Y-64176403D01*
X129106841Y-64275040D01*
X129360262Y-64300000D01*
X129529738Y-64300000D01*
X129673077Y-64285882D01*
X128888971Y-65069989D01*
X117052218Y-65069989D01*
X117015057Y-64980274D01*
X116837220Y-64714123D01*
X116610877Y-64487780D01*
X116570896Y-64461065D01*
X120515712Y-64461065D01*
X120587693Y-64702479D01*
X120841330Y-64822735D01*
X121113553Y-64891198D01*
X121393903Y-64905237D01*
X121671604Y-64864314D01*
X121935986Y-64770000D01*
X122062307Y-64702479D01*
X122134288Y-64461065D01*
X121325000Y-63651777D01*
X120515712Y-64461065D01*
X116570896Y-64461065D01*
X116344726Y-64309943D01*
X116048995Y-64187448D01*
X115735049Y-64125000D01*
X115414951Y-64125000D01*
X115101005Y-64187448D01*
X114805274Y-64309943D01*
X114539123Y-64487780D01*
X114312780Y-64714123D01*
X114134943Y-64980274D01*
X114012448Y-65276005D01*
X113950000Y-65589951D01*
X113950000Y-65910049D01*
X114012448Y-66223995D01*
X114134943Y-66519726D01*
X114312780Y-66785877D01*
X114539123Y-67012220D01*
X114805274Y-67190057D01*
X115101005Y-67312552D01*
X115301535Y-67352440D01*
X115333549Y-67391449D01*
X115535307Y-67557027D01*
X115736108Y-67664357D01*
X115765490Y-67680062D01*
X116015253Y-67755827D01*
X116274998Y-67781410D01*
X116340089Y-67774999D01*
X116384910Y-67774999D01*
X116450001Y-67781410D01*
X116515092Y-67774999D01*
X116709746Y-67755827D01*
X116827888Y-67719989D01*
X119770608Y-67719989D01*
X119666290Y-67971836D01*
X119629884Y-68154862D01*
X117046870Y-70737877D01*
X116992499Y-70782498D01*
X116933074Y-70854908D01*
X116814424Y-70999483D01*
X116682103Y-71247038D01*
X116610358Y-71483551D01*
X116600620Y-71515652D01*
X116573106Y-71795000D01*
X116580001Y-71865004D01*
X116580000Y-77417851D01*
X116467089Y-77452102D01*
X116219533Y-77584424D01*
X116002549Y-77762498D01*
X115957927Y-77816870D01*
X114666870Y-79107927D01*
X114612498Y-79152550D01*
X114434424Y-79369534D01*
X114302102Y-79617090D01*
X114220619Y-79885703D01*
X114203422Y-80060309D01*
X114193106Y-80165051D01*
X114200000Y-80235046D01*
X114200001Y-84804996D01*
X114193106Y-84875000D01*
X114215559Y-85102963D01*
X114220620Y-85154349D01*
X114263193Y-85294693D01*
X114300000Y-85416030D01*
X114300001Y-88216332D01*
X114142297Y-88200800D01*
X114142294Y-88200800D01*
X114072300Y-88193906D01*
X114002306Y-88200800D01*
X113707895Y-88200800D01*
X113588689Y-88102970D01*
X113427995Y-88017077D01*
X113253632Y-87964185D01*
X113072300Y-87946325D01*
X112022300Y-87946325D01*
X111840968Y-87964185D01*
X111666605Y-88017077D01*
X111505911Y-88102970D01*
X111365062Y-88218562D01*
X111250875Y-88357699D01*
X111229541Y-88342582D01*
X111021964Y-88249852D01*
X110957295Y-88240443D01*
X110780000Y-88364143D01*
X110780000Y-89450000D01*
X110800000Y-89450000D01*
X110800000Y-89700000D01*
X110780000Y-89700000D01*
X110780000Y-90785857D01*
X110957295Y-90909557D01*
X111021964Y-90900148D01*
X111209051Y-90816571D01*
X111249470Y-90892189D01*
X111365062Y-91033038D01*
X111505911Y-91148630D01*
X111666605Y-91234523D01*
X111840968Y-91287415D01*
X112022300Y-91305275D01*
X113072300Y-91305275D01*
X113253632Y-91287415D01*
X113427995Y-91234523D01*
X113585536Y-91150315D01*
X113681437Y-91229019D01*
X113725983Y-91265577D01*
X113800253Y-91305275D01*
X113973538Y-91397898D01*
X114242151Y-91479381D01*
X114300000Y-91485079D01*
X114300001Y-94284744D01*
X113734745Y-94850000D01*
X112120491Y-94850000D01*
X112096410Y-94728936D01*
X111966376Y-94415006D01*
X111777595Y-94132476D01*
X111537324Y-93892205D01*
X111254794Y-93703424D01*
X110940864Y-93573390D01*
X110757837Y-93536984D01*
X110595832Y-93374979D01*
X110433218Y-93241525D01*
X110192050Y-93112618D01*
X110038550Y-92959118D01*
X109997050Y-92908550D01*
X109795292Y-92742972D01*
X109565109Y-92619937D01*
X109315345Y-92544172D01*
X109120691Y-92525000D01*
X109055600Y-92518589D01*
X108990509Y-92525000D01*
X105189519Y-92525000D01*
X105174624Y-92510105D01*
X104892094Y-92321324D01*
X104853604Y-92305381D01*
X104075000Y-91526777D01*
X103296396Y-92305381D01*
X103257906Y-92321324D01*
X102975376Y-92510105D01*
X102960481Y-92525000D01*
X101265090Y-92525000D01*
X101199999Y-92518589D01*
X100940254Y-92544172D01*
X100793261Y-92588762D01*
X100690491Y-92619937D01*
X100460308Y-92742972D01*
X100258550Y-92908550D01*
X100217050Y-92959118D01*
X99976168Y-93200000D01*
X99890090Y-93200000D01*
X99824999Y-93193589D01*
X99565254Y-93219172D01*
X99507123Y-93236806D01*
X99315491Y-93294937D01*
X99085308Y-93417972D01*
X98883550Y-93583550D01*
X98842057Y-93634110D01*
X97659117Y-94817051D01*
X97608550Y-94858550D01*
X97442972Y-95060309D01*
X97370630Y-95195652D01*
X97319937Y-95290492D01*
X97244172Y-95540255D01*
X97218589Y-95800000D01*
X97223752Y-95852416D01*
X96792555Y-96283613D01*
X96670652Y-96295619D01*
X96402039Y-96377102D01*
X96154483Y-96509424D01*
X95937499Y-96687498D01*
X95759425Y-96904482D01*
X95627103Y-97152038D01*
X95545620Y-97420651D01*
X95525001Y-97630003D01*
X95525000Y-100809746D01*
X94534747Y-101800000D01*
X81365254Y-101800000D01*
X79875000Y-100309747D01*
X79875000Y-99191124D01*
X81896755Y-99191124D01*
X82013066Y-99539801D01*
X82195166Y-99859087D01*
X82436056Y-100136712D01*
X82726480Y-100362008D01*
X83055276Y-100526316D01*
X83308877Y-100603242D01*
X83600000Y-100489199D01*
X83600000Y-98900000D01*
X83850000Y-98900000D01*
X83850000Y-100489199D01*
X84141123Y-100603242D01*
X84394724Y-100526316D01*
X84723520Y-100362008D01*
X85013944Y-100136712D01*
X85254834Y-99859087D01*
X85436934Y-99539801D01*
X85553245Y-99191124D01*
X85439582Y-98900000D01*
X83850000Y-98900000D01*
X83600000Y-98900000D01*
X82010418Y-98900000D01*
X81896755Y-99191124D01*
X79875000Y-99191124D01*
X79875000Y-95827324D01*
X80038304Y-95693304D01*
X80172551Y-95529724D01*
X80272305Y-95343097D01*
X80333733Y-95140595D01*
X80354475Y-94930000D01*
X80354475Y-94834691D01*
X80509909Y-94850000D01*
X81326168Y-94850000D01*
X83496374Y-97020207D01*
X83308877Y-96946758D01*
X83055276Y-97023684D01*
X82726480Y-97187992D01*
X82436056Y-97413288D01*
X82195166Y-97690913D01*
X82013066Y-98010199D01*
X81896755Y-98358876D01*
X82010418Y-98650000D01*
X83600000Y-98650000D01*
X83600000Y-98630000D01*
X83850000Y-98630000D01*
X83850000Y-98650000D01*
X85439582Y-98650000D01*
X85553245Y-98358876D01*
X85436934Y-98010199D01*
X85427304Y-97993314D01*
X85495191Y-98000000D01*
X93809660Y-98000000D01*
X93879654Y-98006894D01*
X93949648Y-98000000D01*
X93949651Y-98000000D01*
X94159003Y-97979381D01*
X94427616Y-97897898D01*
X94675172Y-97765576D01*
X94892156Y-97587502D01*
X94936782Y-97533125D01*
X96983140Y-95486769D01*
X97037501Y-95442156D01*
X97082115Y-95387794D01*
X97082122Y-95387787D01*
X97215576Y-95225173D01*
X97317488Y-95034508D01*
X97347898Y-94977616D01*
X97429381Y-94709003D01*
X97450000Y-94499651D01*
X97450000Y-94499642D01*
X97456893Y-94429655D01*
X97450000Y-94359668D01*
X97450000Y-92283404D01*
X97469305Y-92293723D01*
X97643668Y-92346615D01*
X97825000Y-92364475D01*
X100025000Y-92364475D01*
X100206332Y-92346615D01*
X100380695Y-92293723D01*
X100541389Y-92207830D01*
X100682238Y-92092238D01*
X100797830Y-91951389D01*
X100883723Y-91790695D01*
X100936615Y-91616332D01*
X100947140Y-91509471D01*
X101057497Y-91418903D01*
X102644763Y-91418903D01*
X102685686Y-91696604D01*
X102780000Y-91960986D01*
X102847521Y-92087307D01*
X103088935Y-92159288D01*
X103898223Y-91350000D01*
X104251777Y-91350000D01*
X105061065Y-92159288D01*
X105302479Y-92087307D01*
X105422735Y-91833670D01*
X105491198Y-91561447D01*
X105505237Y-91281097D01*
X105464314Y-91003396D01*
X105370000Y-90739014D01*
X105302479Y-90612693D01*
X105061065Y-90540712D01*
X104251777Y-91350000D01*
X103898223Y-91350000D01*
X103088935Y-90540712D01*
X102847521Y-90612693D01*
X102727265Y-90866330D01*
X102658802Y-91138553D01*
X102644763Y-91418903D01*
X101057497Y-91418903D01*
X101144500Y-91347502D01*
X101189126Y-91293125D01*
X102118316Y-90363935D01*
X103265712Y-90363935D01*
X104075000Y-91173223D01*
X104884288Y-90363935D01*
X104812307Y-90122521D01*
X104558670Y-90002265D01*
X104286447Y-89933802D01*
X104006097Y-89919763D01*
X103728396Y-89960686D01*
X103464014Y-90055000D01*
X103337693Y-90122521D01*
X103265712Y-90363935D01*
X102118316Y-90363935D01*
X105007252Y-87475000D01*
X107325000Y-87475000D01*
X107325001Y-89052498D01*
X107320981Y-89065750D01*
X107300000Y-89278775D01*
X107300000Y-89871224D01*
X107320981Y-90084249D01*
X107403894Y-90357575D01*
X107538536Y-90609473D01*
X107719735Y-90830264D01*
X107940526Y-91011464D01*
X108192424Y-91146106D01*
X108465750Y-91229019D01*
X108750000Y-91257015D01*
X109034249Y-91229019D01*
X109307575Y-91146106D01*
X109559473Y-91011464D01*
X109780264Y-90830265D01*
X109902503Y-90681317D01*
X110080459Y-90807418D01*
X110288036Y-90900148D01*
X110352705Y-90909557D01*
X110530000Y-90785857D01*
X110530000Y-89700000D01*
X110510000Y-89700000D01*
X110510000Y-89450000D01*
X110530000Y-89450000D01*
X110530000Y-88364143D01*
X110352705Y-88240443D01*
X110288036Y-88249852D01*
X110175000Y-88300348D01*
X110175000Y-86640253D01*
X110845138Y-85970116D01*
X111028164Y-85933710D01*
X111342094Y-85803676D01*
X111624624Y-85614895D01*
X111864895Y-85374624D01*
X112053676Y-85092094D01*
X112183710Y-84778164D01*
X112250000Y-84444898D01*
X112250000Y-84105102D01*
X112183710Y-83771836D01*
X112053676Y-83457906D01*
X111864895Y-83175376D01*
X111624624Y-82935105D01*
X111342094Y-82746324D01*
X111303604Y-82730381D01*
X110525000Y-81951777D01*
X109746396Y-82730381D01*
X109707906Y-82746324D01*
X109425376Y-82935105D01*
X109185105Y-83175376D01*
X108996324Y-83457906D01*
X108866290Y-83771836D01*
X108829884Y-83954862D01*
X108159747Y-84625000D01*
X104915254Y-84625000D01*
X106308140Y-83232114D01*
X106362512Y-83187492D01*
X106540586Y-82970508D01*
X106672908Y-82722952D01*
X106754391Y-82454339D01*
X106775010Y-82244987D01*
X106775010Y-82244985D01*
X106781904Y-82174990D01*
X106775010Y-82104996D01*
X106775010Y-81843903D01*
X109094763Y-81843903D01*
X109135686Y-82121604D01*
X109230000Y-82385986D01*
X109297521Y-82512307D01*
X109538935Y-82584288D01*
X110348223Y-81775000D01*
X110701777Y-81775000D01*
X111511065Y-82584288D01*
X111752479Y-82512307D01*
X111872735Y-82258670D01*
X111941198Y-81986447D01*
X111955237Y-81706097D01*
X111914314Y-81428396D01*
X111820000Y-81164014D01*
X111752479Y-81037693D01*
X111511065Y-80965712D01*
X110701777Y-81775000D01*
X110348223Y-81775000D01*
X109538935Y-80965712D01*
X109297521Y-81037693D01*
X109177265Y-81291330D01*
X109108802Y-81563553D01*
X109094763Y-81843903D01*
X106775010Y-81843903D01*
X106775010Y-80788935D01*
X109715712Y-80788935D01*
X110525000Y-81598223D01*
X111334288Y-80788935D01*
X111262307Y-80547521D01*
X111008670Y-80427265D01*
X110736447Y-80358802D01*
X110456097Y-80344763D01*
X110178396Y-80385686D01*
X109914014Y-80480000D01*
X109787693Y-80547521D01*
X109715712Y-80788935D01*
X106775010Y-80788935D01*
X106775010Y-78730359D01*
X108401417Y-78730359D01*
X108467342Y-78966670D01*
X108712448Y-79081926D01*
X108975329Y-79147149D01*
X109245883Y-79159834D01*
X109513714Y-79119492D01*
X109768527Y-79027674D01*
X109882658Y-78966670D01*
X109948583Y-78730359D01*
X109175000Y-77956777D01*
X108401417Y-78730359D01*
X106775010Y-78730359D01*
X106775010Y-77850883D01*
X107795166Y-77850883D01*
X107835508Y-78118714D01*
X107927326Y-78373527D01*
X107988330Y-78487658D01*
X108224641Y-78553583D01*
X108998223Y-77780000D01*
X109351777Y-77780000D01*
X110125359Y-78553583D01*
X110361670Y-78487658D01*
X110476926Y-78242552D01*
X110542149Y-77979671D01*
X110554834Y-77709117D01*
X110514492Y-77441286D01*
X110422674Y-77186473D01*
X110361670Y-77072342D01*
X110125359Y-77006417D01*
X109351777Y-77780000D01*
X108998223Y-77780000D01*
X108224641Y-77006417D01*
X107988330Y-77072342D01*
X107873074Y-77317448D01*
X107807851Y-77580329D01*
X107795166Y-77850883D01*
X106775010Y-77850883D01*
X106775010Y-76323500D01*
X106905482Y-76430576D01*
X107153038Y-76562898D01*
X107421651Y-76644381D01*
X107631003Y-76665000D01*
X107631012Y-76665000D01*
X107700999Y-76671893D01*
X107770986Y-76665000D01*
X108292742Y-76665000D01*
X108381590Y-76724366D01*
X108425690Y-76742633D01*
X108401417Y-76829641D01*
X109175000Y-77603223D01*
X109948583Y-76829641D01*
X109924310Y-76742633D01*
X109968410Y-76724366D01*
X110242751Y-76541058D01*
X110476058Y-76307751D01*
X110659366Y-76033410D01*
X110785631Y-75728580D01*
X110850000Y-75404973D01*
X110850000Y-75075027D01*
X110785631Y-74751420D01*
X110659366Y-74446590D01*
X110485607Y-74186541D01*
X110582238Y-74107238D01*
X110605349Y-74079077D01*
X110872961Y-73997898D01*
X111120517Y-73865576D01*
X111337501Y-73687502D01*
X111515576Y-73470518D01*
X111647898Y-73222962D01*
X111729381Y-72954349D01*
X111750000Y-72744997D01*
X111750000Y-70981236D01*
X111856969Y-70970700D01*
X112238683Y-70854908D01*
X112590473Y-70666873D01*
X112898819Y-70413819D01*
X113151873Y-70105473D01*
X113339908Y-69753683D01*
X113455700Y-69371969D01*
X113494798Y-68975000D01*
X113455700Y-68578031D01*
X113339908Y-68196317D01*
X113151873Y-67844527D01*
X112910000Y-67549805D01*
X112910000Y-64216194D01*
X112973819Y-64163819D01*
X113226873Y-63855473D01*
X113393410Y-63543903D01*
X119894763Y-63543903D01*
X119935686Y-63821604D01*
X120030000Y-64085986D01*
X120097521Y-64212307D01*
X120338935Y-64284288D01*
X121148223Y-63475000D01*
X121501777Y-63475000D01*
X122311065Y-64284288D01*
X122552479Y-64212307D01*
X122672735Y-63958670D01*
X122741198Y-63686447D01*
X122755237Y-63406097D01*
X122714314Y-63128396D01*
X122640159Y-62920522D01*
X125522519Y-62920522D01*
X125616491Y-63183592D01*
X125759980Y-63423274D01*
X125947471Y-63630357D01*
X126171760Y-63796883D01*
X126424227Y-63916453D01*
X126559479Y-63957476D01*
X126780000Y-63837577D01*
X126780000Y-62700000D01*
X125641738Y-62700000D01*
X125522519Y-62920522D01*
X122640159Y-62920522D01*
X122620000Y-62864014D01*
X122552479Y-62737693D01*
X122311065Y-62665712D01*
X121501777Y-63475000D01*
X121148223Y-63475000D01*
X120338935Y-62665712D01*
X120097521Y-62737693D01*
X119977265Y-62991330D01*
X119908802Y-63263553D01*
X119894763Y-63543903D01*
X113393410Y-63543903D01*
X113414908Y-63503683D01*
X113530700Y-63121969D01*
X113569798Y-62725000D01*
X113546548Y-62488935D01*
X120515712Y-62488935D01*
X121325000Y-63298223D01*
X122134288Y-62488935D01*
X122062307Y-62247521D01*
X121808670Y-62127265D01*
X121536447Y-62058802D01*
X121256097Y-62044763D01*
X120978396Y-62085686D01*
X120714014Y-62180000D01*
X120587693Y-62247521D01*
X120515712Y-62488935D01*
X113546548Y-62488935D01*
X113530700Y-62328031D01*
X113414908Y-61946317D01*
X113226873Y-61594527D01*
X112975000Y-61287620D01*
X112975000Y-61010595D01*
X113072830Y-60891389D01*
X113158723Y-60730695D01*
X113211615Y-60556332D01*
X113229475Y-60375000D01*
X113229475Y-59274780D01*
X113588474Y-59633779D01*
X113528513Y-59831444D01*
X113497138Y-60150000D01*
X113528513Y-60468556D01*
X113621432Y-60774869D01*
X113772325Y-61057170D01*
X113975392Y-61304608D01*
X114222830Y-61507675D01*
X114505131Y-61658568D01*
X114811444Y-61751487D01*
X115050176Y-61775000D01*
X115209824Y-61775000D01*
X115448556Y-61751487D01*
X115754869Y-61658568D01*
X116037170Y-61507675D01*
X116284608Y-61304608D01*
X116487675Y-61057170D01*
X116638568Y-60774869D01*
X116731487Y-60468556D01*
X116762862Y-60150000D01*
X116731487Y-59831444D01*
X116638568Y-59525131D01*
X116555000Y-59368786D01*
X116555000Y-59230037D01*
X116561893Y-59160050D01*
X116555000Y-59090063D01*
X116555000Y-59090054D01*
X116534381Y-58880702D01*
X116452898Y-58612089D01*
X116320576Y-58364533D01*
X116142502Y-58147549D01*
X116088130Y-58102927D01*
X114112077Y-56126875D01*
X114067451Y-56072498D01*
X113850467Y-55894424D01*
X113602911Y-55762102D01*
X113334298Y-55680619D01*
X113124946Y-55660000D01*
X113124943Y-55660000D01*
X113054949Y-55653106D01*
X112984955Y-55660000D01*
X112432258Y-55660000D01*
X112343410Y-55600634D01*
X112299310Y-55582367D01*
X112323583Y-55495359D01*
X111550000Y-54721777D01*
X110776417Y-55495359D01*
X110800690Y-55582367D01*
X110756590Y-55600634D01*
X110482249Y-55783942D01*
X110248942Y-56017249D01*
X110065634Y-56291590D01*
X110031247Y-56374606D01*
X109956519Y-56234799D01*
X109790941Y-56033041D01*
X109740373Y-55991541D01*
X109283459Y-55534627D01*
X109241959Y-55484059D01*
X109040201Y-55318481D01*
X108810018Y-55195446D01*
X108560254Y-55119681D01*
X108365600Y-55100509D01*
X108300509Y-55094098D01*
X108235418Y-55100509D01*
X105065763Y-55100509D01*
X104581137Y-54615883D01*
X110170166Y-54615883D01*
X110210508Y-54883714D01*
X110302326Y-55138527D01*
X110363330Y-55252658D01*
X110599641Y-55318583D01*
X111373223Y-54545000D01*
X111726777Y-54545000D01*
X112500359Y-55318583D01*
X112736670Y-55252658D01*
X112851926Y-55007552D01*
X112917149Y-54744671D01*
X112929834Y-54474117D01*
X112889492Y-54206286D01*
X112797674Y-53951473D01*
X112736670Y-53837342D01*
X112500359Y-53771417D01*
X111726777Y-54545000D01*
X111373223Y-54545000D01*
X110599641Y-53771417D01*
X110363330Y-53837342D01*
X110248074Y-54082448D01*
X110182851Y-54345329D01*
X110170166Y-54615883D01*
X104581137Y-54615883D01*
X104282137Y-54316884D01*
X104237512Y-54262508D01*
X104020528Y-54084434D01*
X103876077Y-54007223D01*
X103463495Y-53594641D01*
X110776417Y-53594641D01*
X111550000Y-54368223D01*
X112323583Y-53594641D01*
X112257658Y-53358330D01*
X112012552Y-53243074D01*
X111749671Y-53177851D01*
X111479117Y-53165166D01*
X111211286Y-53205508D01*
X110956473Y-53297326D01*
X110842342Y-53358330D01*
X110776417Y-53594641D01*
X103463495Y-53594641D01*
X97410718Y-47541865D01*
X97366092Y-47487488D01*
X97149108Y-47309414D01*
X96901552Y-47177092D01*
X96632939Y-47095609D01*
X96423587Y-47074990D01*
X96423584Y-47074990D01*
X96353590Y-47068096D01*
X96283596Y-47074990D01*
X89885841Y-47074990D01*
X89330930Y-46520079D01*
X89191855Y-46405943D01*
X89077709Y-46266857D01*
X88027716Y-45216865D01*
X87983090Y-45162488D01*
X87766106Y-44984414D01*
X87730792Y-44965538D01*
X87409216Y-44643962D01*
X93232815Y-44643962D01*
X93479398Y-45033820D01*
X93979995Y-45298822D01*
X94522672Y-45461070D01*
X95086575Y-45514330D01*
X95650032Y-45456554D01*
X96191392Y-45289963D01*
X96670602Y-45033820D01*
X96917185Y-44643962D01*
X95075000Y-42801777D01*
X93232815Y-44643962D01*
X87409216Y-44643962D01*
X86650000Y-43884747D01*
X86650000Y-42636575D01*
X92185670Y-42636575D01*
X92243446Y-43200032D01*
X92410037Y-43741392D01*
X92666180Y-44220602D01*
X93056038Y-44467185D01*
X94898223Y-42625000D01*
X95251777Y-42625000D01*
X97093962Y-44467185D01*
X97483820Y-44220602D01*
X97748822Y-43720005D01*
X97911070Y-43177328D01*
X97964330Y-42613425D01*
X97906554Y-42049968D01*
X97739963Y-41508608D01*
X97483820Y-41029398D01*
X97093962Y-40782815D01*
X95251777Y-42625000D01*
X94898223Y-42625000D01*
X93056038Y-40782815D01*
X92666180Y-41029398D01*
X92401178Y-41529995D01*
X92238930Y-42072672D01*
X92185670Y-42636575D01*
X86650000Y-42636575D01*
X86650000Y-41890088D01*
X86656411Y-41824999D01*
X86644617Y-41705259D01*
X86630828Y-41565255D01*
X86555063Y-41315491D01*
X86432028Y-41085308D01*
X86266450Y-40883550D01*
X86215882Y-40842050D01*
X85979870Y-40606038D01*
X93232815Y-40606038D01*
X95075000Y-42448223D01*
X96917185Y-40606038D01*
X96670602Y-40216180D01*
X96170005Y-39951178D01*
X95627328Y-39788930D01*
X95063425Y-39735670D01*
X94499968Y-39793446D01*
X93958608Y-39960037D01*
X93479398Y-40216180D01*
X93232815Y-40606038D01*
X85979870Y-40606038D01*
X85607950Y-40234118D01*
X85566450Y-40183550D01*
X85364692Y-40017972D01*
X85134509Y-39894937D01*
X84884745Y-39819172D01*
X84690091Y-39800000D01*
X84625000Y-39793589D01*
X84559909Y-39800000D01*
X78315091Y-39800000D01*
X78250000Y-39793589D01*
X77990254Y-39819172D01*
X77836833Y-39865712D01*
X77740491Y-39894937D01*
X77510308Y-40017972D01*
X77308550Y-40183550D01*
X77267050Y-40234118D01*
X76784113Y-40717055D01*
X76733551Y-40758550D01*
X76567972Y-40960308D01*
X76444937Y-41190491D01*
X76435912Y-41220244D01*
X76352103Y-41377038D01*
X76270620Y-41645651D01*
X76250001Y-41855003D01*
X76250000Y-52012239D01*
X76243106Y-52082234D01*
X76250000Y-52152228D01*
X76250000Y-52152230D01*
X76270619Y-52361582D01*
X76352102Y-52630195D01*
X76484424Y-52877751D01*
X76662498Y-53094735D01*
X76716871Y-53139358D01*
X82143046Y-58565534D01*
X81982804Y-58760788D01*
X81780840Y-59138637D01*
X81656471Y-59548626D01*
X81614477Y-59975000D01*
X81656471Y-60401374D01*
X81780840Y-60811363D01*
X81982804Y-61189212D01*
X82254602Y-61520398D01*
X82325001Y-61578173D01*
X82325000Y-64355793D01*
X82204602Y-64454602D01*
X81932804Y-64785788D01*
X81730840Y-65163637D01*
X81606471Y-65573626D01*
X81564477Y-66000000D01*
X81606471Y-66426374D01*
X81730840Y-66836363D01*
X81932804Y-67214212D01*
X82204602Y-67545398D01*
X82535788Y-67817196D01*
X82913637Y-68019160D01*
X83323626Y-68143529D01*
X83643158Y-68175000D01*
X83856842Y-68175000D01*
X84176374Y-68143529D01*
X84586363Y-68019160D01*
X84964212Y-67817196D01*
X85295398Y-67545398D01*
X85567196Y-67214212D01*
X85769160Y-66836363D01*
X85893529Y-66426374D01*
X85935523Y-66000000D01*
X85893529Y-65573626D01*
X85769160Y-65163637D01*
X85567196Y-64785788D01*
X85295398Y-64454602D01*
X85175000Y-64355794D01*
X85175000Y-61660240D01*
X85345398Y-61520398D01*
X85617196Y-61189212D01*
X85819160Y-60811363D01*
X85943529Y-60401374D01*
X85985523Y-59975000D01*
X85943529Y-59548626D01*
X85819160Y-59138637D01*
X85617196Y-58760788D01*
X85345398Y-58429602D01*
X85225000Y-58330794D01*
X85225000Y-58277228D01*
X85231894Y-58207233D01*
X85222386Y-58110695D01*
X85204381Y-57927885D01*
X85122898Y-57659272D01*
X84990576Y-57411716D01*
X84812502Y-57194732D01*
X84758130Y-57150110D01*
X79100000Y-51491981D01*
X79100000Y-42450000D01*
X80705374Y-42450000D01*
X80695525Y-42550000D01*
X80695525Y-44750000D01*
X80713385Y-44931332D01*
X80766277Y-45105695D01*
X80852170Y-45266389D01*
X80967762Y-45407238D01*
X81108611Y-45522830D01*
X81269305Y-45608723D01*
X81300000Y-45618034D01*
X81300000Y-46830005D01*
X81293106Y-46900000D01*
X81300000Y-46969994D01*
X81300000Y-46969996D01*
X81320619Y-47179348D01*
X81402102Y-47447961D01*
X81534424Y-47695517D01*
X81630476Y-47812557D01*
X81614477Y-47975000D01*
X81656471Y-48401374D01*
X81780840Y-48811363D01*
X81982804Y-49189212D01*
X82254602Y-49520398D01*
X82585788Y-49792196D01*
X82963637Y-49994160D01*
X83373626Y-50118529D01*
X83693158Y-50150000D01*
X83906842Y-50150000D01*
X84226374Y-50118529D01*
X84636363Y-49994160D01*
X85014212Y-49792196D01*
X85345398Y-49520398D01*
X85444206Y-49400000D01*
X85634747Y-49400000D01*
X87492876Y-51258130D01*
X87537498Y-51312502D01*
X87591868Y-51357122D01*
X87754482Y-51490577D01*
X87865655Y-51550000D01*
X85680872Y-51550000D01*
X85324617Y-51585088D01*
X84867503Y-51723752D01*
X84733226Y-51795525D01*
X84550000Y-51795525D01*
X84368668Y-51813385D01*
X84194305Y-51866277D01*
X84033611Y-51952170D01*
X83892762Y-52067762D01*
X83777170Y-52208611D01*
X83691277Y-52369305D01*
X83638385Y-52543668D01*
X83620525Y-52725000D01*
X83620525Y-52908226D01*
X83548752Y-53042503D01*
X83410088Y-53499617D01*
X83363267Y-53975000D01*
X83410088Y-54450383D01*
X83548752Y-54907497D01*
X83620525Y-55041774D01*
X83620525Y-55225000D01*
X83638385Y-55406332D01*
X83691277Y-55580695D01*
X83777170Y-55741389D01*
X83892762Y-55882238D01*
X84033611Y-55997830D01*
X84194305Y-56083723D01*
X84368668Y-56136615D01*
X84550000Y-56154475D01*
X84733226Y-56154475D01*
X84867503Y-56226248D01*
X85324617Y-56364912D01*
X85680872Y-56400000D01*
X89959249Y-56400000D01*
X90050775Y-56491526D01*
X90570865Y-56839039D01*
X91148758Y-57078410D01*
X91762246Y-57200440D01*
X92387754Y-57200440D01*
X93001242Y-57078410D01*
X93579135Y-56839039D01*
X94099225Y-56491526D01*
X94515751Y-56075000D01*
X95493652Y-56075000D01*
X95321324Y-56332906D01*
X95191290Y-56646836D01*
X95125000Y-56980102D01*
X95125000Y-57319898D01*
X95191290Y-57653164D01*
X95321324Y-57967094D01*
X95510105Y-58249624D01*
X95750376Y-58489895D01*
X96032906Y-58678676D01*
X96150000Y-58727178D01*
X96150000Y-58907740D01*
X96134943Y-58930274D01*
X96012448Y-59226005D01*
X95987500Y-59351427D01*
X95962552Y-59226005D01*
X95840057Y-58930274D01*
X95662220Y-58664123D01*
X95435877Y-58437780D01*
X95169726Y-58259943D01*
X94873995Y-58137448D01*
X94560049Y-58075000D01*
X94239951Y-58075000D01*
X93926005Y-58137448D01*
X93630274Y-58259943D01*
X93570325Y-58300000D01*
X91847256Y-58300000D01*
X91692094Y-58196324D01*
X91378164Y-58066290D01*
X91044898Y-58000000D01*
X90705102Y-58000000D01*
X90371836Y-58066290D01*
X90057906Y-58196324D01*
X89775376Y-58385105D01*
X89535105Y-58625376D01*
X89346324Y-58907906D01*
X89216290Y-59221836D01*
X89150000Y-59555102D01*
X89150000Y-59894898D01*
X89216290Y-60228164D01*
X89346324Y-60542094D01*
X89535105Y-60824624D01*
X89685481Y-60975000D01*
X89535105Y-61125376D01*
X89346324Y-61407906D01*
X89216290Y-61721836D01*
X89179884Y-61904863D01*
X89116871Y-61967876D01*
X89062499Y-62012498D01*
X88884425Y-62229482D01*
X88752103Y-62477038D01*
X88670620Y-62745651D01*
X88650001Y-62955002D01*
X88643107Y-63024999D01*
X88650001Y-63094994D01*
X88650002Y-68029997D01*
X88643107Y-68100001D01*
X88666007Y-68332502D01*
X88670621Y-68379350D01*
X88699693Y-68475187D01*
X88752104Y-68647963D01*
X88884425Y-68895518D01*
X88904044Y-68919424D01*
X89062500Y-69112503D01*
X89116871Y-69157124D01*
X89534747Y-69575000D01*
X86264686Y-69575000D01*
X85908431Y-69610088D01*
X85451317Y-69748752D01*
X85317040Y-69820525D01*
X84500000Y-69820525D01*
X84318668Y-69838385D01*
X84144305Y-69891277D01*
X83983611Y-69977170D01*
X83842762Y-70092762D01*
X83727170Y-70233611D01*
X83641277Y-70394305D01*
X83588385Y-70568668D01*
X83570525Y-70750000D01*
X83570525Y-73125001D01*
X77665255Y-73125001D01*
X74500000Y-69959747D01*
X74500000Y-67594994D01*
X74506894Y-67525000D01*
X74497224Y-67426818D01*
X74479381Y-67245651D01*
X74408570Y-67012220D01*
X74397898Y-66977037D01*
X74265577Y-66729482D01*
X74132122Y-66566868D01*
X74087502Y-66512498D01*
X74033130Y-66467876D01*
X73948943Y-66383689D01*
X73986733Y-66000000D01*
X73939912Y-65524617D01*
X73801248Y-65067503D01*
X73576069Y-64646224D01*
X73273030Y-64276970D01*
X72903776Y-63973931D01*
X72482497Y-63748752D01*
X72025383Y-63610088D01*
X71669128Y-63575000D01*
X70149990Y-63575000D01*
X70149990Y-61151084D01*
X70311056Y-61336712D01*
X70601480Y-61562008D01*
X70930276Y-61726316D01*
X71183877Y-61803242D01*
X71475000Y-61689199D01*
X71475000Y-60100000D01*
X71725000Y-60100000D01*
X71725000Y-61689199D01*
X72016123Y-61803242D01*
X72269724Y-61726316D01*
X72598520Y-61562008D01*
X72888944Y-61336712D01*
X73129834Y-61059087D01*
X73311934Y-60739801D01*
X73428245Y-60391124D01*
X73314582Y-60100000D01*
X71725000Y-60100000D01*
X71475000Y-60100000D01*
X71455000Y-60100000D01*
X71455000Y-59850000D01*
X71475000Y-59850000D01*
X71475000Y-59830000D01*
X71725000Y-59830000D01*
X71725000Y-59850000D01*
X73314582Y-59850000D01*
X73428245Y-59558876D01*
X73311934Y-59210199D01*
X73129834Y-58890913D01*
X72888944Y-58613288D01*
X72598520Y-58387992D01*
X72269724Y-58223684D01*
X72016123Y-58146758D01*
X71725002Y-58260800D01*
X71725002Y-58100000D01*
X71650466Y-58100000D01*
X73230503Y-56519963D01*
X73323030Y-56444028D01*
X73398965Y-56351501D01*
X73398970Y-56351496D01*
X73626069Y-56074775D01*
X73791955Y-55764424D01*
X73851248Y-55653495D01*
X73989912Y-55196381D01*
X74025000Y-54840126D01*
X74025000Y-54840115D01*
X74036732Y-54720998D01*
X74025000Y-54601881D01*
X74025000Y-47855872D01*
X73989912Y-47499617D01*
X73956463Y-47389349D01*
X73994381Y-47264349D01*
X74015000Y-47054997D01*
X74015000Y-47054988D01*
X74021893Y-46985001D01*
X74015000Y-46915014D01*
X74015000Y-45075195D01*
X74256873Y-44780473D01*
X74444908Y-44428683D01*
X74560700Y-44046969D01*
X74599798Y-43650000D01*
X74560700Y-43253031D01*
X74444908Y-42871317D01*
X74256873Y-42519527D01*
X74003819Y-42211181D01*
X73695473Y-41958127D01*
X73343683Y-41770092D01*
X72961969Y-41654300D01*
X72664481Y-41625000D01*
X72465519Y-41625000D01*
X72168031Y-41654300D01*
X71786317Y-41770092D01*
X71434527Y-41958127D01*
X71126181Y-42211181D01*
X70873127Y-42519527D01*
X70685092Y-42871317D01*
X70569300Y-43253031D01*
X70530202Y-43650000D01*
X70569300Y-44046969D01*
X70685092Y-44428683D01*
X70873127Y-44780473D01*
X71126181Y-45088819D01*
X71165000Y-45120677D01*
X71165001Y-45581111D01*
X71124617Y-45585088D01*
X70667503Y-45723752D01*
X70246224Y-45948931D01*
X69876970Y-46251970D01*
X69573931Y-46621225D01*
X69348752Y-47042504D01*
X69210088Y-47499618D01*
X69175000Y-47855873D01*
X69175001Y-53716529D01*
X66094492Y-56797039D01*
X66001960Y-56872978D01*
X65926022Y-56965509D01*
X65926020Y-56965511D01*
X65698921Y-57242232D01*
X65641042Y-57350517D01*
X65473742Y-57663512D01*
X65335078Y-58120626D01*
X65299990Y-58476881D01*
X65299990Y-58476891D01*
X65288258Y-58596008D01*
X65299990Y-58715125D01*
X65299991Y-65655853D01*
X65299990Y-65655863D01*
X65299990Y-65655873D01*
X65288258Y-65774990D01*
X65299990Y-65894107D01*
X65299991Y-91228207D01*
X65210079Y-91524608D01*
X65163258Y-91999990D01*
X64375000Y-91999990D01*
X64375000Y-38925000D01*
X100572426Y-38925000D01*
X100530415Y-38949255D01*
M02*
