G04 #@! TF.GenerationSoftware,KiCad,Pcbnew,5.1.4-e60b266~84~ubuntu18.04.1*
G04 #@! TF.CreationDate,2019-11-08T12:52:39-03:00*
G04 #@! TF.ProjectId,DriverConSensor,44726976-6572-4436-9f6e-53656e736f72,Ribelotta-Perren*
G04 #@! TF.SameCoordinates,Original*
G04 #@! TF.FileFunction,Copper,L1,Top*
G04 #@! TF.FilePolarity,Positive*
%FSLAX46Y46*%
G04 Gerber Fmt 4.6, Leading zero omitted, Abs format (unit mm)*
G04 Created by KiCad (PCBNEW 5.1.4-e60b266~84~ubuntu18.04.1) date 2019-11-08 12:52:39*
%MOMM*%
%LPD*%
G04 APERTURE LIST*
%ADD10O,2.500000X2.500000*%
%ADD11R,2.500000X2.500000*%
%ADD12C,1.600000*%
%ADD13O,1.050000X1.500000*%
%ADD14R,1.050000X1.500000*%
%ADD15C,1.998980*%
%ADD16R,2.200000X2.200000*%
%ADD17O,2.200000X2.200000*%
%ADD18R,1.600000X1.600000*%
%ADD19O,1.600000X1.600000*%
%ADD20C,3.500120*%
%ADD21C,4.500880*%
%ADD22R,1.500000X1.500000*%
%ADD23C,1.500000*%
%ADD24C,1.400000*%
%ADD25O,1.400000X1.400000*%
%ADD26C,1.000000*%
G04 APERTURE END LIST*
D10*
X137250000Y-105075000D03*
X125050000Y-105075000D03*
X125050000Y-93075000D03*
X137250000Y-93075000D03*
D11*
X139250000Y-99075000D03*
D10*
X131900000Y-81700000D03*
X119700000Y-81700000D03*
X119700000Y-69700000D03*
X131900000Y-69700000D03*
D11*
X133900000Y-75700000D03*
D10*
X123925000Y-110475000D03*
X136125000Y-110475000D03*
X136125000Y-122475000D03*
X123925000Y-122475000D03*
D11*
X121925000Y-116475000D03*
D12*
X121875000Y-87575000D03*
X116875000Y-87575000D03*
X170400000Y-88000000D03*
X170400000Y-93000000D03*
X174700000Y-99200000D03*
X169700000Y-99200000D03*
D13*
X161055000Y-114500000D03*
X159150000Y-114500000D03*
D14*
X162947300Y-114550800D03*
D15*
X161950000Y-73575000D03*
X161900000Y-86800000D03*
D16*
X143575000Y-88400000D03*
D17*
X153735000Y-88400000D03*
D12*
X128910000Y-126850000D03*
X131410000Y-126850000D03*
X187220000Y-99190000D03*
X184720000Y-99190000D03*
X153050000Y-100675000D03*
X155550000Y-100675000D03*
X137962000Y-82804000D03*
X140462000Y-82804000D03*
X154725000Y-110275000D03*
X154725000Y-112775000D03*
X161100000Y-120800000D03*
X161100000Y-123300000D03*
X162100000Y-67700000D03*
X162100000Y-65200000D03*
D18*
X180075000Y-119725000D03*
D19*
X187695000Y-119725000D03*
X174620000Y-119600000D03*
D18*
X167000000Y-119600000D03*
X180075000Y-115025000D03*
D19*
X187695000Y-115025000D03*
X174620000Y-114900000D03*
D18*
X167000000Y-114900000D03*
D17*
X126740000Y-88900000D03*
D16*
X136900000Y-88900000D03*
X143570000Y-92460000D03*
D17*
X153730000Y-92460000D03*
X144125000Y-105790000D03*
D16*
X144125000Y-115950000D03*
D20*
X183600000Y-123525000D03*
X170850000Y-123425000D03*
D21*
X144850000Y-99250000D03*
X139000000Y-77600000D03*
X116375000Y-117475000D03*
D20*
X116175000Y-126250000D03*
D21*
X116275000Y-103700000D03*
D22*
X145725000Y-84050000D03*
D23*
X145725000Y-78970000D03*
X145725000Y-81510000D03*
X148075000Y-107440000D03*
X148075000Y-109980000D03*
D22*
X148075000Y-104900000D03*
D24*
X180075000Y-111800000D03*
D25*
X187695000Y-111800000D03*
X180155000Y-107000000D03*
D24*
X187775000Y-107000000D03*
X187775000Y-103425000D03*
D25*
X180155000Y-103425000D03*
D24*
X166900000Y-111700000D03*
D25*
X174520000Y-111700000D03*
X167080000Y-103300000D03*
D24*
X174700000Y-103300000D03*
D25*
X167080000Y-107000000D03*
D24*
X174700000Y-107000000D03*
D25*
X152130000Y-81550000D03*
D24*
X159750000Y-81550000D03*
D25*
X153480000Y-106000000D03*
D24*
X161100000Y-106000000D03*
X158200000Y-97700000D03*
D25*
X150580000Y-97700000D03*
D24*
X132650000Y-86275000D03*
D25*
X125030000Y-86275000D03*
D24*
X158300000Y-72600000D03*
D25*
X158300000Y-64980000D03*
X186770000Y-93330000D03*
D24*
X186770000Y-85710000D03*
X166820000Y-81080000D03*
D25*
X174440000Y-81080000D03*
X174440000Y-77380000D03*
D24*
X166820000Y-77380000D03*
X166920000Y-74080000D03*
D25*
X174540000Y-74080000D03*
X174510000Y-70480000D03*
D24*
X166890000Y-70480000D03*
X166930000Y-66880000D03*
D25*
X174550000Y-66880000D03*
D18*
X185920000Y-81480000D03*
D19*
X178300000Y-68780000D03*
X185920000Y-78940000D03*
X178300000Y-71320000D03*
X185920000Y-76400000D03*
X178300000Y-73860000D03*
X185920000Y-73860000D03*
X178300000Y-76400000D03*
X185920000Y-71320000D03*
X178300000Y-78940000D03*
X185920000Y-68780000D03*
X178300000Y-81480000D03*
D18*
X183600000Y-87100000D03*
D19*
X175980000Y-94720000D03*
X181060000Y-87100000D03*
X178520000Y-94720000D03*
X178520000Y-87100000D03*
X181060000Y-94720000D03*
X175980000Y-87100000D03*
X183600000Y-94720000D03*
D26*
X161950000Y-86750000D02*
X161900000Y-86800000D01*
X161950000Y-73575000D02*
X161950000Y-86750000D01*
M02*
