M48
; DRILL file {KiCad 5.1.4-e60b266~84~ubuntu18.04.1} date vie 08 nov 2019 12:52:41 -03
; FORMAT={-:-/ absolute / inch / decimal}
; #@! TF.CreationDate,2019-11-08T12:52:41-03:00
; #@! TF.GenerationSoftware,Kicad,Pcbnew,5.1.4-e60b266~84~ubuntu18.04.1
; #@! TF.FileFunction,Plated,1,2,PTH
FMAT,2
INCH
T1C0.0276
T2C0.0295
T3C0.0315
T4C0.0315
T5C0.0433
T6C0.0472
T7C0.0512
T8C0.0787
%
G90
G05
T1
X7.3531Y-3.3744
X7.3531Y-3.6744
X6.5709Y-4.3976
X6.8709Y-4.3976
X6.0425Y-4.1732
X6.3425Y-4.1732
X5.9283Y-3.8465
X6.2283Y-3.8465
X5.9894Y-3.2106
X6.2894Y-3.2106
X6.5677Y-3.1921
X6.8677Y-3.1921
X6.572Y-2.6331
X6.872Y-2.6331
X6.578Y-4.0669
X6.878Y-4.0669
X6.5677Y-3.0465
X6.8677Y-3.0465
X7.0927Y-4.2126
X7.3927Y-4.2126
X6.2323Y-2.5583
X6.2323Y-2.8583
X6.5705Y-2.7748
X6.8705Y-2.7748
X6.578Y-4.2126
X6.878Y-4.2126
X7.0896Y-4.4016
X7.3896Y-4.4016
X6.5717Y-2.9165
X6.8717Y-2.9165
X4.9224Y-3.3967
X5.2224Y-3.3967
X7.0927Y-4.0719
X7.3927Y-4.0719
T2
X6.2657Y-4.5079
X6.3407Y-4.5079
X6.4152Y-4.5099
T3
X7.2724Y-3.9051
X7.3709Y-3.9051
X7.0896Y-4.7136
X7.3896Y-4.7136
X5.0752Y-4.9941
X5.1736Y-4.9941
X6.7087Y-3.4646
X6.7087Y-3.6614
X6.3819Y-2.5669
X6.3819Y-2.6654
X5.4316Y-3.26
X5.53Y-3.26
X7.0896Y-4.5285
X7.3896Y-4.5285
X6.9283Y-3.4291
X6.9283Y-3.7291
X7.0283Y-3.4291
X7.0283Y-3.7291
X7.1283Y-3.4291
X7.1283Y-3.7291
X7.2283Y-3.4291
X7.2283Y-3.7291
X6.5748Y-4.7087
X6.8748Y-4.7087
X7.0197Y-2.7079
X7.0197Y-2.8079
X7.0197Y-2.9079
X7.0197Y-3.0079
X7.0197Y-3.1079
X7.0197Y-3.2079
X7.3197Y-2.7079
X7.3197Y-2.8079
X7.3197Y-2.9079
X7.3197Y-3.0079
X7.3197Y-3.1079
X7.3197Y-3.2079
X6.5748Y-4.5236
X6.8748Y-4.5236
X6.0256Y-3.9636
X6.124Y-3.9636
X4.6014Y-3.4478
X4.7982Y-3.4478
X5.8297Y-4.1299
X5.8297Y-4.2299
X5.8297Y-4.3299
X5.7372Y-3.1091
X5.7372Y-3.2091
X5.7372Y-3.3091
X6.3425Y-4.7559
X6.3425Y-4.8543
X6.6811Y-3.9055
X6.878Y-3.9055
X6.0915Y-4.3415
X6.0915Y-4.44
T4
X6.374Y-3.4173
X6.376Y-2.8967
T5
X5.6526Y-3.4803
X6.0526Y-3.4803
X5.6524Y-3.6402
X6.0524Y-3.6402
X4.9898Y-3.5
X5.3898Y-3.5
X5.6742Y-4.165
X5.6742Y-4.565
T6
X6.7264Y-4.8593
X7.2283Y-4.8632
X4.5738Y-4.9705
T7
X4.8002Y-4.5856
X4.8789Y-4.3494
X4.8789Y-4.8219
X5.3593Y-4.3494
X5.3593Y-4.8219
X4.7126Y-2.7441
X4.7126Y-3.2165
X5.1929Y-2.7441
X5.1929Y-3.2165
X5.2717Y-2.9803
X4.9232Y-3.6644
X4.9232Y-4.1368
X5.4035Y-3.6644
X5.4035Y-4.1368
X5.4823Y-3.9006
T8
X5.4724Y-3.0551
X5.7028Y-3.9075
X4.5817Y-4.625
X4.5778Y-4.0827
T0
M30
