M48
; DRILL file {KiCad 5.1.4-e60b266~84~ubuntu18.04.1} date vie 15 nov 2019 12:41:20 -03
; FORMAT={-:-/ absolute / inch / decimal}
; #@! TF.CreationDate,2019-11-15T12:41:20-03:00
; #@! TF.GenerationSoftware,Kicad,Pcbnew,5.1.4-e60b266~84~ubuntu18.04.1
; #@! TF.FileFunction,Plated,1,2,PTH
FMAT,2
INCH
T1C0.0276
T2C0.0295
T3C0.0315
T4C0.0315
T5C0.0433
T6C0.0472
T7C0.0512
T8C0.0787
%
G90
G05
T1
X4.64Y-1.6675
X4.94Y-1.6675
X4.6396Y-1.951
X4.9396Y-1.951
X4.3002Y-1.5927
X4.3002Y-1.8927
X4.6459Y-3.247
X4.9459Y-3.247
X5.1606Y-3.247
X5.4606Y-3.247
X4.6356Y-2.2266
X4.9356Y-2.2266
X4.5327Y-2.3681
X4.8327Y-2.3681
X5.1575Y-3.436
X5.4575Y-3.436
X3.7165Y-2.3504
X3.7165Y-2.6504
X4.2502Y-2.5886
X4.5502Y-2.5886
X5.4211Y-2.4089
X5.4211Y-2.7089
X4.6356Y-2.0809
X4.9356Y-2.0809
X5.1606Y-3.1063
X5.4606Y-3.1063
X4.6388Y-3.4321
X4.9388Y-3.4321
X3.8415Y-2.3504
X3.8415Y-2.6504
X4.6384Y-1.8093
X4.9384Y-1.8093
X4.6459Y-3.1014
X4.9459Y-3.1014
T2
X4.2815Y-3.5266
X4.3565Y-3.5266
X4.431Y-3.5286
T3
X4.3514Y-3.2195
X4.3514Y-3.3179
X4.0974Y-3.5965
X4.0974Y-3.6949
X4.6427Y-3.5581
X4.9427Y-3.5581
X4.3479Y-3.7493
X4.3479Y-3.8768
X2.9774Y-3.2451
X3.1742Y-3.2451
X5.0876Y-1.7423
X5.0876Y-1.8423
X5.0876Y-1.9423
X5.0876Y-2.0423
X5.0876Y-2.1423
X5.0876Y-2.2423
X5.3876Y-1.7423
X5.3876Y-1.8423
X5.3876Y-1.9423
X5.3876Y-2.0423
X5.3876Y-2.1423
X5.3876Y-2.2423
X4.6427Y-3.7431
X4.9427Y-3.7431
X5.1575Y-3.563
X5.4575Y-3.563
X4.9963Y-2.4636
X4.9963Y-2.7636
X5.0963Y-2.4636
X5.0963Y-2.7636
X5.1963Y-2.4636
X5.1963Y-2.7636
X5.2963Y-2.4636
X5.2963Y-2.7636
X4.749Y-2.94
X4.9459Y-2.94
X4.7766Y-2.499
X4.7766Y-2.6959
X3.813Y-2.1516
X3.813Y-2.25
X5.1575Y-3.748
X5.4575Y-3.748
X5.3404Y-2.9396
X5.4388Y-2.9396
X4.4498Y-1.6014
X4.4498Y-1.6998
X3.5778Y-2.3514
X3.5778Y-2.4498
X4.2982Y-2.8622
X4.2982Y-2.9622
X4.2982Y-3.0622
X4.3917Y-2.1474
X4.3917Y-2.2474
X4.3917Y-2.3474
T4
X4.1988Y-2.3081
X4.1978Y-2.0039
T5
X3.9911Y-2.4695
X4.3911Y-2.4695
X3.8947Y-3.1565
X3.8947Y-3.5565
X3.9882Y-2.7156
X4.3882Y-2.7156
X2.8569Y-1.7185
X3.2569Y-1.7185
T6
X5.2963Y-3.8976
X3.6033Y-3.3337
X4.7943Y-3.8937
T7
X2.8169Y-2.5984
X2.8169Y-3.0709
X3.2972Y-2.5984
X3.2972Y-3.0709
X3.376Y-2.8346
X2.8189Y-1.8888
X2.8189Y-2.3612
X3.2992Y-1.8888
X3.2992Y-2.3612
X3.378Y-2.125
X2.8159Y-3.4163
X2.8159Y-3.8888
X3.2963Y-3.4163
X3.2963Y-3.8888
X3.375Y-3.6526
T8
X3.7431Y-1.6781
X3.625Y-2.127
X3.6388Y-3.6526
X3.625Y-2.8346
T0
M30
