G04 #@! TF.GenerationSoftware,KiCad,Pcbnew,5.1.4-e60b266~84~ubuntu18.04.1*
G04 #@! TF.CreationDate,2019-11-15T12:41:15-03:00*
G04 #@! TF.ProjectId,DriverConSensor,44726976-6572-4436-9f6e-53656e736f72,Ribelotta-Perren*
G04 #@! TF.SameCoordinates,Original*
G04 #@! TF.FileFunction,Copper,L1,Top*
G04 #@! TF.FilePolarity,Positive*
%FSLAX46Y46*%
G04 Gerber Fmt 4.6, Leading zero omitted, Abs format (unit mm)*
G04 Created by KiCad (PCBNEW 5.1.4-e60b266~84~ubuntu18.04.1) date 2019-11-15 12:41:15*
%MOMM*%
%LPD*%
G04 APERTURE LIST*
%ADD10O,2.500000X2.500000*%
%ADD11R,2.500000X2.500000*%
%ADD12C,1.600000*%
%ADD13O,1.050000X1.500000*%
%ADD14R,1.050000X1.500000*%
%ADD15C,1.998980*%
%ADD16R,2.200000X2.200000*%
%ADD17O,2.200000X2.200000*%
%ADD18R,1.600000X1.600000*%
%ADD19O,1.600000X1.600000*%
%ADD20C,3.500120*%
%ADD21C,4.500880*%
%ADD22R,1.500000X1.500000*%
%ADD23C,1.500000*%
%ADD24C,1.400000*%
%ADD25O,1.400000X1.400000*%
%ADD26C,1.000000*%
G04 APERTURE END LIST*
D10*
X83750000Y-78000000D03*
X71550000Y-78000000D03*
X71550000Y-66000000D03*
X83750000Y-66000000D03*
D11*
X85750000Y-72000000D03*
D10*
X83725000Y-98775000D03*
X71525000Y-98775000D03*
X71525000Y-86775000D03*
X83725000Y-86775000D03*
D11*
X85725000Y-92775000D03*
D10*
X83800000Y-59975000D03*
X71600000Y-59975000D03*
X71600000Y-47975000D03*
X83800000Y-47975000D03*
D11*
X85800000Y-53975000D03*
D12*
X75625000Y-82425000D03*
X80625000Y-82425000D03*
X121325000Y-63475000D03*
X121325000Y-68475000D03*
X125625000Y-74675000D03*
X120625000Y-74675000D03*
X110437700Y-95232100D03*
X110437700Y-98470600D03*
D13*
X110655000Y-89575000D03*
X108750000Y-89575000D03*
D14*
X112547300Y-89625800D03*
D15*
X106625000Y-50900000D03*
X106650000Y-58625000D03*
D16*
X101375000Y-62725000D03*
D17*
X111535000Y-62725000D03*
D12*
X104075000Y-91350000D03*
X104075000Y-93850000D03*
X138145000Y-74665000D03*
X135645000Y-74665000D03*
X96850000Y-54650000D03*
X96850000Y-57150000D03*
X90875000Y-59725000D03*
X90875000Y-62225000D03*
X110525000Y-81775000D03*
X110525000Y-84275000D03*
X113025000Y-43175000D03*
X113025000Y-40675000D03*
D18*
X131000000Y-95200000D03*
D19*
X138620000Y-95200000D03*
X125545000Y-95075000D03*
D18*
X117925000Y-95075000D03*
X131000000Y-90500000D03*
D19*
X138620000Y-90500000D03*
X125545000Y-90375000D03*
D18*
X117925000Y-90375000D03*
D17*
X72565000Y-43650000D03*
D16*
X82725000Y-43650000D03*
X101300000Y-68975000D03*
D17*
X111460000Y-68975000D03*
X98925000Y-80175000D03*
D16*
X98925000Y-90335000D03*
D20*
X134525000Y-99000000D03*
X121775000Y-98900000D03*
D21*
X92075000Y-54025000D03*
X92075000Y-72000000D03*
X92425000Y-92775000D03*
D20*
X91525000Y-84675000D03*
D21*
X95075000Y-42625000D03*
D22*
X111550000Y-59625000D03*
D23*
X111550000Y-54545000D03*
X111550000Y-57085000D03*
X109175000Y-75240000D03*
X109175000Y-77780000D03*
D22*
X109175000Y-72700000D03*
D24*
X131000000Y-87275000D03*
D25*
X138620000Y-87275000D03*
X131080000Y-82475000D03*
D24*
X138700000Y-82475000D03*
X138700000Y-78900000D03*
D25*
X131080000Y-78900000D03*
D24*
X117825000Y-87175000D03*
D25*
X125445000Y-87175000D03*
X118005000Y-78775000D03*
D24*
X125625000Y-78775000D03*
D25*
X118005000Y-82475000D03*
D24*
X125625000Y-82475000D03*
D25*
X115130000Y-60150000D03*
D24*
X122750000Y-60150000D03*
D25*
X107955000Y-65750000D03*
D24*
X115575000Y-65750000D03*
X97575000Y-59700000D03*
D25*
X97575000Y-67320000D03*
D24*
X94400000Y-59700000D03*
D25*
X94400000Y-67320000D03*
D24*
X109225000Y-48075000D03*
D25*
X109225000Y-40455000D03*
X137695000Y-68805000D03*
D24*
X137695000Y-61185000D03*
X117745000Y-56555000D03*
D25*
X125365000Y-56555000D03*
X125365000Y-52855000D03*
D24*
X117745000Y-52855000D03*
X117845000Y-49555000D03*
D25*
X125465000Y-49555000D03*
X125435000Y-45955000D03*
D24*
X117815000Y-45955000D03*
X117855000Y-42355000D03*
D25*
X125475000Y-42355000D03*
D18*
X136845000Y-56955000D03*
D19*
X129225000Y-44255000D03*
X136845000Y-54415000D03*
X129225000Y-46795000D03*
X136845000Y-51875000D03*
X129225000Y-49335000D03*
X136845000Y-49335000D03*
X129225000Y-51875000D03*
X136845000Y-46795000D03*
X129225000Y-54415000D03*
X136845000Y-44255000D03*
X129225000Y-56955000D03*
D18*
X134525000Y-62575000D03*
D19*
X126905000Y-70195000D03*
X131985000Y-62575000D03*
X129445000Y-70195000D03*
X129445000Y-62575000D03*
X131985000Y-70195000D03*
X126905000Y-62575000D03*
X134525000Y-70195000D03*
D26*
X106625000Y-58600000D02*
X106650000Y-58625000D01*
X106625000Y-50900000D02*
X106625000Y-58600000D01*
M02*
